<?xml version="1.0" standalone="no"?><!DOCTYPE svg PUBLIC "-//W3C//DTD SVG 1.1//EN" "http://www.w3.org/Graphics/SVG/1.1/DTD/svg11.dtd"><svg t="1519901504606" class="icon" style="" viewBox="0 0 1024 1024" version="1.1" xmlns="http://www.w3.org/2000/svg" p-id="19602" xmlns:xlink="http://www.w3.org/1999/xlink" width="30" height="30"><defs><style type="text/css"></style></defs><path d="M512.005117 0.346901c-282.287201 0-434.613492 213.591633-434.613492 396.730697 0 190.322673 196.84625 402.487817 429.855118 504.555447l4.758374 2.100848 4.758374-2.100848c232.997612-102.066607 429.844885-314.251194 429.844885-504.555447C946.607352 213.93751 794.292318 0.346901 512.005117 0.346901zM512.00307 526.686491c-108.035552 0-195.61419-87.579661-195.61419-195.61419S403.967518 135.458111 512.00307 135.458111c108.033505 0 195.61419 87.579661 195.61419 195.61419S620.037599 526.686491 512.00307 526.686491z" p-id="19603" fill="#ff9500"></path><path d="M259.848143 984.530057a246.409 38.232 0 1 0 504.303714 0 246.409 38.232 0 1 0-504.303714 0Z" p-id="19604" fill="#ff9500"></path></svg>