<?xml version="1.0" standalone="no"?><!DOCTYPE svg PUBLIC "-//W3C//DTD SVG 1.1//EN" "http://www.w3.org/Graphics/SVG/1.1/DTD/svg11.dtd"><svg t="1528695972613" class="icon" style="" viewBox="0 0 1024 1024" version="1.1" xmlns="http://www.w3.org/2000/svg" p-id="2971" xmlns:xlink="http://www.w3.org/1999/xlink" width="80" height="80"><defs><style type="text/css"></style></defs><path d="M904.59648 698.795008c-11.065344-11.066368-29.504512-10.734592-40.976384 0.736256l-119.256064 119.25504c-11.471872 11.471872-30.24384 11.471872-41.714688 0l-39.682048-39.682048c-11.471872-11.471872-29.91104-11.803648-40.976384-0.738304-11.065344 11.065344-10.733568 29.504512 0.738304 40.976384l43.300864 43.29984c11.471872 11.471872 20.859904 20.855808 20.859904 20.855808s8.247296 8.231936 18.317312 18.301952c10.070016 10.070016 27.696128 8.92416 39.168-2.547712l159.483904-159.479808C915.329024 728.301568 915.661824 709.861376 904.59648 698.795008z" p-id="2972" fill="#707070"></path><path d="M729.686016 657.426432c17.943552 0 32.489472-14.54592 32.489472-32.489472 0-7.642112-2.644992-14.662656-7.06048-20.210688 0 0-1.857536-2.369536-3.028992-3.310592-1.437696-1.369088-2.998272-2.608128-4.666368-3.697664-32.50176-25.314304-69.083136-45.628416-108.581888-59.825152 58.430464-41.638912 96.5376-109.952 96.5376-187.169792 0-126.851072-102.834176-229.679104-229.679104-229.679104-126.850048 0-229.679104 102.828032-229.679104 229.679104 0 77.207552 38.095872 145.513472 96.514048 187.154432-149.399552 53.68832-256.943104 195.137536-260.46464 362.181632-0.4864 2.259968-0.748544 4.60288-0.748544 7.008256 0 18.323456 14.854144 33.1776 33.1776 33.1776 18.323456 0 33.1776-14.854144 33.1776-33.1776 0-0.607232-0.018432-1.209344-0.0512-1.808384 1.75104-179.712 147.94752-324.856832 328.073216-324.856832 76.752896 0 203.783168 69.965824 203.783168 69.965824C715.026432 654.78144 722.044928 657.426432 729.686016 657.426432zM341.63712 350.724096c0-90.605568 73.45152-164.057088 164.057088-164.057088 90.604544 0 164.057088 73.45152 164.057088 164.057088 0 90.604544-73.452544 164.057088-164.057088 164.057088C415.08864 514.781184 341.63712 441.32864 341.63712 350.724096z" p-id="2973" fill="#707070"></path></svg>