<?xml version="1.0" standalone="no"?><!DOCTYPE svg PUBLIC "-//W3C//DTD SVG 1.1//EN" "http://www.w3.org/Graphics/SVG/1.1/DTD/svg11.dtd"><svg t="1528985644706" class="icon" style="" viewBox="0 0 1024 1024" version="1.1" xmlns="http://www.w3.org/2000/svg" p-id="2041" xmlns:xlink="http://www.w3.org/1999/xlink" width="80" height="80"><defs><style type="text/css"></style></defs><path d="M510.777 513.223m-418.146 0a418.146 418.146 0 1 0 836.292 0 418.146 418.146 0 1 0-836.292 0Z" fill="#FFD7D7" p-id="2042"></path><path d="M313.585 853.297a5.001 5.001 0 0 1-2.05-9.563c24.332-10.921 24.257-39.333 24.208-58.133-0.012-4.756-0.023-8.864 0.401-11.96 0.496-3.623 0.568-17.159 0.66-34.295 0.25-46.784 0.717-133.865 10.135-208.27 13.819-109.174-27.566-213.045-27.986-214.082a5 5 0 0 1 9.268-3.756c0.44 1.085 10.877 27.041 19.713 67.159 8.157 37.034 16.328 93.456 8.925 151.934-9.343 73.806-9.807 160.495-10.056 207.067-0.104 19.535-0.168 31.327-0.753 35.598-0.33 2.408-0.319 6.194-0.308 10.578 0.053 20.086 0.141 53.704-30.113 67.282a4.967 4.967 0 0 1-2.044 0.441z" fill="#280D0D" p-id="2043"></path><path d="M341.097 762.484c1.938-13.802-2.206-136.357 10.802-236.547 9.88-76.096-12.691-165.723-27.231-212.939-7.746 0.533-13.458 1.12-16.652 1.769-33.974 6.901-123.157 82.812-123.157 82.812-23.034 18.864-21.234 56.588-21.234 56.588 14.156 142.16-4.247 294.516 0 316.599 3.627 18.858 111.495 53.812 149.105 63.623 32.298-22.624 26.665-59.784 28.367-71.905z" fill="#45F2FF" p-id="2044"></path><path d="M312.729 839.326c-0.416 0-0.835-0.053-1.246-0.16-20.652-5.388-57.449-16.937-87.818-28.587-61.984-23.778-64.094-34.751-64.889-38.881-1.531-7.959-0.451-29.316 1.184-61.645 8.145-161.073 2.265-220.119-1.248-255.397a4.274 4.274 0 0 1-0.019-0.254c-0.078-1.642-1.635-40.437 23.038-60.643 3.609-3.073 90.48-76.757 125.302-83.83 3.341-0.679 8.999-1.286 17.296-1.856a4.942 4.942 0 0 1 5.057 3.472c14.535 47.198 37.423 137.894 27.409 215.028-9.341 71.949-9.805 156.463-10.055 201.866-0.104 19.054-0.168 30.555-0.754 34.732-0.255 1.817-0.328 4.571-0.413 7.76-0.438 16.551-1.253 47.358-30.012 67.502a4.932 4.932 0 0 1-2.832 0.893zM168.552 453.824c9.447 95.022 4.329 196.237 1.27 256.728-1.483 29.328-2.654 52.494-1.349 59.281 0.191 0.994 3.464 10.327 58.729 31.527 28.957 11.108 63.789 22.115 84.521 27.657 22.894-17.296 23.571-42.895 23.98-58.347 0.092-3.489 0.172-6.502 0.505-8.872 0.495-3.521 0.567-16.712 0.659-33.413 0.25-45.617 0.717-130.528 10.137-203.083 9.516-73.298-11.589-159.728-25.907-207.09-5.677 0.448-9.738 0.916-12.098 1.395-9.191 1.867-29.204 10.861-72.346 43.109-26.115 19.521-48.372 38.435-48.594 38.623-20.366 16.679-19.581 50.318-19.507 52.485z" fill="#280D0D" p-id="2045"></path><path d="M819.047 647.394c-11.325-55.208-24.065-258.096-35.39-271.898s-72.196-67.629-97.676-67.629c-23.085 0-286.681 0-361.312 5.132 14.54 47.216 37.111 136.843 27.231 212.939-13.008 100.191-8.864 222.746-10.802 236.547-1.702 12.121 3.931 49.281-28.368 71.904 6.433 1.678 10.826 2.626 12.273 2.626 9.909 0 387.874-67.629 464.317-82.812 76.442-15.182 41.052-51.601 29.727-106.809z" fill="#3BFFDE" p-id="2046"></path><path d="M789.32 754.203c-76.443 15.183-454.408 82.812-464.317 82.812-0.919 0-3.029-0.383-6.092-1.092a71.435 71.435 0 0 1-3.35 2.51 4.932 4.932 0 0 1-4.078 0.733c-20.652-5.388-57.449-16.937-87.818-28.587-61.984-23.778-64.094-34.751-64.889-38.881-1.531-7.959-0.451-29.316 1.184-61.645 8.145-161.073 2.265-220.119-1.248-255.397a4.274 4.274 0 0 1-0.019-0.254c-0.078-1.642-1.635-40.437 23.038-60.643 3.609-3.073 90.48-76.757 125.302-83.83 3.341-0.679 8.999-1.286 17.296-1.856a4.942 4.942 0 0 1 5.057 3.472l0.346 1.131c20.073-1.195 50.778-2.093 85.936-2.768-53.984-6.351-99.069-10.509-111.257-8.033-33.974 6.901-141.439 89.133-141.439 89.133-23.035 18.864-31.91 94.907-31.91 94.906 14.156 142.16-4.247 294.516 0 316.599 4.247 22.083 152.528 71.29 162.437 71.29s386.815-72.67 463.258-87.852c31.793-6.314 44.232-18.84 47.113-35.285-4.331 1.283-9.152 2.465-14.55 3.537z" fill="#280D0D" p-id="2047"></path><path d="M325.003 841.952c-0.849 0-2.837 0-13.52-2.786a4.938 4.938 0 0 1-1.587-8.821c24.684-17.29 25.386-43.822 25.806-59.675 0.092-3.489 0.172-6.502 0.505-8.872 0.495-3.521 0.567-16.712 0.659-33.414 0.25-45.617 0.717-130.528 10.137-203.083 9.774-75.283-12.755-164.418-27.054-210.85a4.938 4.938 0 0 1 4.379-6.379c71.194-4.895 313.751-5.143 361.651-5.143 12.233 0 31.461 9.978 57.149 29.657 19.465 14.911 38.174 32.258 44.344 39.778 6.643 8.095 11.803 53.225 21.213 147.137 5.086 50.761 10.346 103.25 15.196 126.9 2.477 12.073 6.233 23.54 9.547 33.656 6.975 21.291 12.998 39.677 4.347 54.472-6.807 11.643-21.898 19.433-47.495 24.516-73.517 14.602-454.122 82.907-465.277 82.907z m-1.39-10.078c0.859 0.155 1.244 0.193 1.38 0.202 12.954-0.728 384.33-67.018 463.364-82.715 22.313-4.432 35.69-10.914 40.896-19.815 6.408-10.959 1.282-26.605-5.207-46.415-3.396-10.368-7.245-22.119-9.835-34.745-4.953-24.147-10.003-74.544-15.35-127.9-3.332-33.249-6.776-67.63-10.119-94.125-4.901-38.842-7.868-46.333-8.917-47.751-11.274-13.74-70.948-65.805-93.845-65.805-46.536 0-276.992 0.233-354.777 4.73 14.53 48.585 35.198 135.05 25.592 209.039-9.341 71.949-9.805 156.462-10.055 201.866-0.104 19.055-0.168 30.556-0.754 34.732-0.255 1.817-0.328 4.571-0.413 7.76-0.392 14.839-1.088 41.142-21.96 60.942z" fill="#280D0D" p-id="2048"></path><path d="M201.067 391.332a5 5 0 0 1-2.48-9.345c10.789-6.147 105.669-59.741 130.351-57.553l365.418-8.653a4.995 4.995 0 0 1 2.798 0.777l89.183 56.624a5 5 0 1 1-5.359 8.442l-87.901-55.811-364.209 8.625a4.823 4.823 0 0 1-0.69-0.031c-15.705-1.812-84.773 33.556-124.64 56.268a4.98 4.98 0 0 1-2.471 0.657z" fill="#280D0D" p-id="2049"></path><path d="M273.21 333.675l-25.995 28.697-10.865 74.199 51.164 2.415 5.985-67.158z" fill="#FFD96E" p-id="2050"></path><path d="M287.517 443.986c-0.08 0-0.159-0.002-0.239-0.005l-51.164-2.415a5 5 0 0 1-4.711-5.719l10.865-74.199a5 5 0 0 1 1.242-2.632l25.995-28.698a5.003 5.003 0 0 1 8.12 1.009l20.289 38.153c0.455 0.856 0.652 1.826 0.566 2.792l-5.985 67.159a5.002 5.002 0 0 1-4.978 4.555z m-45.421-12.149l40.863 1.929 5.428-60.902-16.25-30.557-20.195 22.295-9.846 67.235zM600.768 336.364c-0.25 0-0.502-0.008-0.755-0.023-6.756-0.41-11.9-6.22-11.491-12.977 0.037-0.599 3.549-60.583-3.551-121.528-4.095-35.139-10.837-63.605-20.042-84.608-10.383-23.69-23.637-37.189-39.396-40.121-29.5-5.496-67.194 35.018-106.172 114.05-31.498 63.865-52.674 130.53-52.885 131.196-2.038 6.456-8.926 10.036-15.378 7.998-6.455-2.038-10.036-8.923-7.998-15.378 0.881-2.792 21.958-69.13 54.276-134.659 19.22-38.971 38.45-69.465 57.158-90.637 25.537-28.901 50.93-41.238 75.483-36.67 42.298 7.871 68.99 57.089 79.336 146.288 7.314 63.072 3.79 123.036 3.637 125.558-0.396 6.503-5.794 11.511-12.222 11.511zM494.411 560.386h-55.317a5 5 0 0 1-4.054-2.073l-34.587-47.906a4.996 4.996 0 0 1-0.923-3.405l11.035-114.939a5 5 0 0 1 4.977-4.522h55.317a5 5 0 0 1 4.666 3.203l44.283 114.939a5 5 0 0 1-0.077 3.783L499 557.372a5.002 5.002 0 0 1-4.589 3.014z m-52.761-10h49.476l18.614-43.016-42.313-109.829h-47.342l-10.421 108.541 31.986 44.304zM735.332 539.084h-51.381a4.998 4.998 0 0 1-3.966-1.955l-34.17-44.498a5.003 5.003 0 0 1-1.028-3.295l5.35-106.762a5 5 0 0 1 4.994-4.75h51.381a5.002 5.002 0 0 1 4.592 3.021l46.033 106.762a4.996 4.996 0 0 1 0.071 3.783l-17.213 44.498a5 5 0 0 1-4.663 3.196z m-48.916-10h45.489l15.239-39.395-43.922-101.864h-43.336L654.867 488l31.549 41.084z" fill="#280D0D" p-id="2051"></path><path d="M576.615 424.871a4.995 4.995 0 0 1-1.574-0.254l-140.078-46.492a5.002 5.002 0 0 1-3.425-4.746v-46.492a5 5 0 0 1 5-5h196.018a4.998 4.998 0 0 1 4.454 2.729l17.226 33.775a5 5 0 0 1-1.309 6.158l-73.165 59.208a5 5 0 0 1-3.147 1.114zM441.538 369.77l134.059 44.494 67.89-54.939-13.993-27.438H441.538v37.883z" fill="#280D0D" p-id="2052"></path><path d="M459.841 530.063c-15.776 0-31.378-9.64-33.105-25.417l-5.295-93.367c-1.727-15.776 8.152-2.451 23.928-2.451 15.776 0 24.179-14.773 25.906 1.004l17.601 91.016c1.726 15.776-13.259 29.215-29.035 29.215z" fill="#FF76C4" p-id="2053"></path><path d="M459.841 534.062c-16.438 0-35.021-10.157-37.081-28.981l-0.018-0.208-5.29-93.265c-0.546-5.092-0.037-7.989 1.751-9.983 0.84-0.937 2.36-2.054 4.831-2.054 2.212 0 4.511 0.879 7.422 1.992 3.806 1.455 8.542 3.266 13.912 3.266 5.4 0 10.002-2.104 13.699-3.794 2.916-1.333 5.433-2.484 7.947-2.484 6.911 0 7.905 7.847 8.218 10.683l17.601 91.017 0.018 0.163c0.865 7.904-1.802 15.765-7.512 22.133-6.464 7.21-15.997 11.515-25.498 11.515z m-29.118-29.751c1.611 14.13 16.187 21.752 29.118 21.752 7.265 0 14.57-3.311 19.542-8.857 4.133-4.611 6.094-10.204 5.532-15.768l-17.599-91.008-0.018-0.163c-0.228-2.077-0.542-3.14-0.748-3.647-0.978 0.236-2.715 1.031-4.157 1.69-4.171 1.907-9.884 4.519-17.026 4.519-6.847 0-12.582-2.193-16.769-3.793-1.106-0.423-2.387-0.913-3.352-1.205-0.017 0.648 0.015 1.611 0.168 3.014l0.018 0.208 5.291 93.258z" fill="#280D0D" p-id="2054"></path><path d="M702.481 512.875c-14.811 0-29.458-9.05-31.08-23.862l-8.692-87.655c-1.621-14.811 7.653-2.301 22.464-2.301s22.7-13.869 24.321 0.942l20.245 85.447c1.622 14.813-12.447 27.429-27.258 27.429z" fill="#FF76C4" p-id="2055"></path><path d="M702.481 516.875c-15.538 0-33.105-9.612-35.057-27.426l-8.696-87.696c-0.39-3.557-0.457-7.218 1.699-9.622 0.821-0.917 2.307-2.01 4.717-2.01 2.122 0 4.3 0.833 7.056 1.886 3.555 1.359 7.978 3.05 12.974 3.05 5.017 0 9.13-1.881 12.759-3.54 2.763-1.263 5.149-2.354 7.562-2.354 6.63 0 7.637 7.362 7.948 10.154l20.245 85.448 0.027 0.246c0.82 7.491-1.706 14.938-7.113 20.969-6.115 6.823-15.132 10.895-24.121 10.895z m-35.957-118.422c0.002 0.58 0.041 1.38 0.161 2.471l8.696 87.695c1.439 13.143 15.038 20.256 27.1 20.256 6.752 0 13.542-3.079 18.164-8.235 3.812-4.251 5.632-9.401 5.142-14.524l-20.242-85.435-0.027-0.246c-0.185-1.689-0.431-2.645-0.609-3.158-0.925 0.271-2.461 0.973-3.649 1.517-3.936 1.799-9.327 4.264-16.085 4.264-6.473 0-11.882-2.068-15.83-3.578-0.882-0.336-1.954-0.746-2.821-1.027z" fill="#280D0D" p-id="2056"></path><path d="M445.47 419.352c-6.27 0-11.616-4.787-12.192-11.152-0.058-0.638-5.744-64.607-3.301-136.474 3.347-98.462 19.777-164.513 48.833-196.319 13.704-15 30.179-22.606 48.966-22.606 53.078 0 96.988 58.689 130.513 174.438 23.981 82.805 34.103 166.719 34.201 167.557 0.798 6.722-4.004 12.817-10.726 13.615-6.73 0.798-12.817-4.003-13.616-10.725-0.098-0.821-10.021-82.988-33.479-163.881-13.601-46.9-28.977-84.094-45.703-110.546-19.275-30.487-39.863-45.945-61.19-45.945-11.779 0-21.876 4.785-30.868 14.627-17.196 18.823-38.517 65.438-42.432 180.617-2.392 70.36 3.159 132.809 3.215 133.431 0.61 6.742-4.36 12.702-11.102 13.312a12.42 12.42 0 0 1-1.119 0.051z" fill="#280D0D" p-id="2057"></path><path d="M439.378 436.726c6.449 0 6.449-10 0-10s-6.449 10 0 10z" fill="#FFFFFF" p-id="2058"></path><path d="M435.173 451.167a277.969 277.969 0 0 1 4.314 31.932c0.488 6.387 10.492 6.435 10 0a301.29 301.29 0 0 0-4.671-34.591c-1.232-6.326-10.869-3.64-9.643 2.659z" fill="#FFFFFF" p-id="2059"></path><path d="M179.688 493.167c5.471-0.68 10.812-1.148 16.268-0.054 1.889 0.379 2.694-2.513 0.798-2.893-5.729-1.149-11.308-0.769-17.065-0.054-1.895 0.236-1.918 3.239-0.001 3.001z m-8.268 5.28c6.695-1.096 13.235-0.61 19.869 0.667 1.89 0.364 2.696-2.527 0.798-2.893-7.18-1.382-14.215-1.853-21.464-0.667-1.906 0.312-1.095 3.202 0.797 2.893z m0.935 6.72c6.639 0.1 13.11 1.317 19.601 2.613 1.889 0.377 2.694-2.514 0.798-2.893-6.753-1.348-13.493-2.617-20.399-2.72-1.936-0.029-1.933 2.971 0 3z m2 11.333c6.655-0.616 13.322-0.665 20-0.667 1.935 0 1.935-3 0-3-6.678 0.001-13.345 0.051-20 0.667-1.91 0.177-1.927 3.178 0 3z m-1.602 12.613c5.835-1.234 11.981-1.962 17.869-0.667 1.885 0.415 2.687-2.477 0.798-2.893-6.434-1.416-13.081-0.684-19.464 0.667-1.892 0.401-1.09 3.292 0.797 2.893z m-3.065 5.387c5.668-0.083 11.427-1.199 16.935 0.613 1.843 0.606 2.626-2.291 0.798-2.893-5.787-1.904-11.776-0.807-17.732-0.72-1.934 0.028-1.936 3.028-0.001 3z m0 4c10.448 1.306 20.896 2.614 31.333 4 1.913 0.254 1.889-2.749 0-3-10.438-1.386-20.885-2.694-31.333-4-1.916-0.239-1.893 2.763 0 3z m3.732 11.947c3.843-0.593 7.722-0.612 11.601-0.613 1.935-0.001 1.935-3.001 0-3-4.159 0.001-8.281 0.085-12.399 0.72-1.907 0.294-1.094 3.184 0.798 2.893z m-0.399 6.72c11.716 0.685 23.368 1.947 34.935 3.946 1.892 0.327 2.701-2.564 0.798-2.893-11.829-2.045-23.749-3.353-35.732-4.054-1.934-0.112-1.923 2.888-0.001 3.001z m4.399 11.946c6.095-1.242 13.302-1.601 19.202 0.667 1.809 0.695 2.584-2.206 0.798-2.893-6.418-2.466-14.178-2.015-20.798-0.667-1.894 0.386-1.09 3.278 0.798 2.893z m-4.797 4.667c4.347 0.668 8.504 1.947 12.667 3.333 1.841 0.613 2.624-2.285 0.798-2.893-4.163-1.386-8.32-2.666-12.667-3.333-1.893-0.291-2.706 2.6-0.798 2.893z m-9.602 12.72h24c1.935 0 1.935-3 0-3h-24c-1.934 0-1.934 3 0 3z m12 8c4.36 0.002 8.727-0.01 12.935 1.28 1.855 0.568 2.642-2.328 0.798-2.893-4.457-1.366-9.111-1.385-13.732-1.387-1.935-0.001-1.935 2.999-0.001 3z m-3.732 4.613c3.892 0.558 8.315 0.894 11.642 3.182 1.599 1.1 3.097-1.502 1.514-2.59-3.567-2.453-8.187-2.887-12.358-3.485-1.892-0.271-2.706 2.62-0.798 2.893z m-1.601 13.387c5.842 0.09 11.55 1.31 17.333 2 1.918 0.229 1.896-2.774 0-3-5.789-0.691-11.485-1.91-17.333-2-1.936-0.03-1.933 2.97 0 3z m0.667 11.333c6.722 0.099 13.33 1.286 20 2 1.923 0.206 1.903-2.796 0-3-6.67-0.714-13.278-1.901-20-2-1.936-0.028-1.933 2.972 0 3z m-0.268 10.614c2.675-0.999 5.505-1.378 8.178-0.151 1.745 0.801 3.271-1.784 1.514-2.59-3.417-1.569-6.996-1.456-10.489-0.151-1.796 0.669-1.019 3.57 0.797 2.892z m-3.066 8.72c10.645 1.33 21.292 2.625 32 3.333 1.932 0.128 1.92-2.873 0-3-10.708-0.708-21.355-2.003-32-3.333-1.916-0.24-1.893 2.763 0 3z m3.334 8.666c5.392-0.024 14.519-1.559 18.939 2.227 1.461 1.251 3.593-0.861 2.121-2.121-5.312-4.55-14.622-3.135-21.061-3.106-1.933 0.009-1.934 3.009 0.001 3z m-7.334 6.667c9.836 0.737 19.446 2.624 28.935 5.28 1.867 0.523 2.658-2.372 0.798-2.893-9.745-2.728-19.636-4.63-29.732-5.387-1.931-0.145-1.917 2.857-0.001 3z m6.268 7.28c9.208 1.318 18.396 2.686 27.333 5.333 1.86 0.551 2.648-2.345 0.798-2.893-8.937-2.647-18.125-4.016-27.333-5.333-1.892-0.271-2.707 2.62-0.798 2.893z m-10.268 13.387c7.23 0.659 14.445 1.361 21.601 2.613 1.891 0.331 2.701-2.56 0.798-2.893-7.42-1.299-14.901-2.037-22.399-2.72-1.927-0.176-1.91 2.826 0 3z m12.935-4.054c6.873 1.215 13.813 2.009 20.667 3.333 1.89 0.365 2.696-2.526 0.798-2.893-6.854-1.324-13.794-2.119-20.667-3.333-1.892-0.334-2.701 2.557-0.798 2.893z m-0.935 22.72c8.21 0.633 16.437 0.666 24.667 0.667 1.935 0 1.935-3 0-3-8.23-0.001-16.457-0.034-24.667-0.667-1.93-0.148-1.916 2.853 0 3z m-0.666 11.334c8.935 0.083 17.773 1.273 26.667 2 1.929 0.158 1.914-2.844 0-3-8.893-0.727-17.731-1.917-26.667-2-1.936-0.018-1.934 2.982 0 3z m-4.667 9.333c18.231-0.475 35.86 4.478 53.601 7.946 1.89 0.369 2.695-2.522 0.798-2.893-18-3.519-35.902-8.536-54.399-8.054-1.931 0.051-1.936 3.052 0 3.001z m0 9.333c14.007-1.155 27.786 1.279 41.601 3.28 1.892 0.274 2.706-2.616 0.798-2.893-14.07-2.037-28.13-4.564-42.399-3.387-1.914 0.158-1.929 3.16 0 3z m4-37.333c9.444-0.458 18.637 1.872 28 2.667 1.929 0.164 1.913-2.838 0-3-9.369-0.795-18.547-3.125-28-2.667-1.925 0.093-1.935 3.094 0 3z m-1.333 48c8.227 0.046 16.439 0.62 24.667 0.667 1.935 0.011 1.934-2.989 0-3-8.227-0.046-16.439-0.62-24.667-0.667-1.935-0.011-1.934 2.989 0 3z m-2 10c12.796 0.674 25.578 1.431 38.268 3.28 1.892 0.276 2.706-2.615 0.798-2.893-12.958-1.887-25.998-2.698-39.065-3.387-1.935-0.102-1.926 2.899-0.001 3z m-3.066 3.947c17.015 3.154 34.447 3.433 51.333 7.333 1.883 0.435 2.682-2.458 0.798-2.893-16.891-3.901-34.317-4.179-51.333-7.333-1.891-0.351-2.698 2.54-0.798 2.893z m11.066 9.386c9.726 0.004 19.664-0.036 28.935 3.28 1.826 0.653 2.605-2.246 0.798-2.893-9.509-3.402-19.755-3.383-29.732-3.387-1.936 0-1.936 3-0.001 3z m-6 5.334c7.959 0.048 15.869 0.628 23.601 2.613 1.875 0.481 2.67-2.412 0.798-2.893-7.984-2.049-16.177-2.67-24.399-2.72-1.935-0.012-1.934 2.988 0 3z m5.333 26c11.396 1.45 22.451 4.622 33.601 7.28 1.881 0.448 2.679-2.444 0.798-2.893-11.422-2.722-22.726-5.902-34.399-7.387-1.915-0.244-1.892 2.759 0 3z m5.732-310.054c2.299-0.546 4.582-0.612 6.935-0.613 1.935-0.001 1.935-3.001 0-3-2.619 0.001-5.174 0.113-7.732 0.72-1.882 0.447-1.084 3.34 0.797 2.893z m-3.732-7.28h11.333c1.935 0 1.935-3 0-3h-11.333c-1.935 0-1.935 3 0 3z m2-10.666c4.65-0.615 9.317-0.665 14-0.667 1.935-0.001 1.935-3.001 0-3-4.683 0.001-9.35 0.052-14 0.667-1.889 0.249-1.914 3.253 0 3z m15.333-14.667h12.667c1.935 0 1.935-3 0-3h-12.667c-1.934 0-1.934 3 0 3z m-19.171 2.594h3c1.935 0 1.935-3 0-3h-3c-1.934 0-1.934 3 0 3z m5.561-10.939c1.014-0.959 2.102-1.059 3.439-1.061 1.935-0.002 1.935-3.002 0-3-2.147 0.002-3.959 0.425-5.56 1.939-1.409 1.332 0.716 3.45 2.121 2.122z m4.939-13.06c1.935 0 1.935-3 0-3s-1.935 3 0 3z m8.999-10.499c1.935 0 1.935-3 0-3s-1.934 3 0 3z m-22.498 370.481c12.026 0.001 24.04 0.082 35.998 1.5 1.919 0.227 1.897-2.775 0-3-11.958-1.417-23.972-1.499-35.998-1.5-1.935 0-1.935 3 0 3z m31.498 19.499c12.975 1.448 25.925 2.931 38.998 3 1.935 0.01 1.934-2.99 0-3-13.073-0.068-26.023-1.552-38.998-3-1.921-0.214-1.9 2.788 0 3z m25.499 10.5c26.28 1.616 52.314 6.089 77.597 13.446 1.862 0.542 2.651-2.353 0.798-2.893-25.535-7.431-51.855-11.921-78.395-13.553-1.933-0.119-1.922 2.882 0 3z m46.099 13.446c9.09 1.409 18.217 1.551 27.397 1.553 1.935 0.001 1.935-2.999 0-3-8.902-0.003-17.783-0.079-26.6-1.446-1.892-0.294-2.704 2.597-0.797 2.893z m-26.6-22.446c11.374 1.422 22.75 2.837 34.1 4.446 1.891 0.268 2.707-2.622 0.798-2.893-11.615-1.647-23.257-3.098-34.897-4.553-1.918-0.239-1.894 2.764-0.001 3z m-19.499-11.999c16.553 0.113 32.945 2.887 49.498 3 1.935 0.013 1.934-2.987 0-3-16.553-0.113-32.945-2.887-49.498-3-1.935-0.013-1.934 2.987 0 3z m-41.998-22.499c13.516 0.069 26.982 1.431 40.498 1.5 1.935 0.01 1.934-2.99 0-3-13.516-0.069-26.982-1.431-40.498-1.5-1.935-0.01-1.934 2.99 0 3z m35.998-9h14.999c1.935 0 1.935-3 0-3h-14.999c-1.935 0-1.935 3 0 3z m-1.5-14.999c8.483 0.1 16.758 1.542 25.1 2.946 1.892 0.318 2.702-2.572 0.798-2.893-8.609-1.449-17.143-2.951-25.897-3.053-1.936-0.023-1.934 2.977-0.001 3z m-22.897-9.053c4.092 1.303 8.131 1.551 12.398 1.554 1.935 0.001 1.935-2.999 0-3-4.004-0.002-7.758-0.223-11.601-1.446-1.849-0.589-2.634 2.307-0.797 2.892z m0.398-29.945c11.442 0.074 22.782 1.343 34.1 2.946 1.891 0.268 2.707-2.622 0.798-2.893-11.581-1.641-23.186-2.978-34.897-3.053-1.936-0.012-1.935 2.988-0.001 3z m-29.494 67.252c15.567 2.002 30.957 5.24 46.667 6 1.935 0.094 1.926-2.907 0-3-15.704-0.759-31.104-3.998-46.667-6-1.915-0.246-1.892 2.757 0 3z m54 7.334c1.935 0 1.935-3 0-3s-1.935 3 0 3z m-8.667 13.333c1.935 0 1.935-3 0-3s-1.935 3 0 3z m70.667 2c1.935 0 1.935-3 0-3s-1.935 3 0 3z m6 13.333c1.935 0 1.935-3 0-3s-1.935 3 0 3zM215.688 746.5c1.935 0 1.935-3 0-3s-1.935 3 0 3z m-10.667-52.667c1.935 0 1.935-3 0-3-1.934 0-1.934 3 0 3zM180.355 634.5c1.935 0 1.935-3 0-3s-1.935 3 0 3z m6 0.667c1.935 0 1.935-3 0-3s-1.935 3 0 3z" fill="#280D0D" p-id="2060"></path></svg>