<?xml version="1.0" standalone="no"?><!DOCTYPE svg PUBLIC "-//W3C//DTD SVG 1.1//EN" "http://www.w3.org/Graphics/SVG/1.1/DTD/svg11.dtd"><svg t="1528985990163" class="icon" style="" viewBox="0 0 1024 1024" version="1.1" xmlns="http://www.w3.org/2000/svg" p-id="2673" xmlns:xlink="http://www.w3.org/1999/xlink" width="80" height="80"><defs><style type="text/css"></style></defs><path d="M510.777 513.223m-418.146 0a418.146 418.146 0 1 0 836.292 0 418.146 418.146 0 1 0-836.292 0Z" fill="#FFD7D7" p-id="2674"></path><path d="M289.693 316.758h456.916L670.22 844.161s-35.847 42.685-142.115 43.464c-99.258 0.727-142.115-40.028-142.115-40.028l-96.297-530.839z" fill="#3BFFDE" p-id="2675"></path><path d="M525.483 892.572c-98.248 0-141.12-39.707-142.897-41.397a4.944 4.944 0 0 1-1.455-2.696L284.835 317.64a4.938 4.938 0 0 1 4.858-5.818h456.916a4.939 4.939 0 0 1 4.886 5.645l-76.389 527.402a4.944 4.944 0 0 1-1.105 2.467c-1.523 1.814-38.546 44.44-145.86 45.227-0.885 0.006-1.783 0.009-2.658 0.009z m-134.946-47.563c7.358 6.104 50.377 38.339 137.531 37.681 29.534-0.217 72.26-4.069 108.087-21.192 17.55-8.388 26.668-16.796 29.399-19.572l75.35-520.229H295.606l94.931 523.312z" fill="#280D0D" p-id="2676"></path><path d="M778.615 338.258c0 56.042-98.251 104.232-263.362 101.472-185.021-3.092-263.363-45.43-263.363-101.472s117.911-101.472 263.362-101.472 263.363 45.431 263.363 101.472z" fill="#FFF6EE" p-id="2677"></path><path d="M528.674 444.696c-4.447 0-8.99-0.038-13.502-0.113-88.855-1.485-157.109-12.003-202.865-31.26-29.775-12.531-65.269-35.727-65.269-75.065 0-29.252 28.498-56.342 80.245-76.28 50.286-19.374 117.042-30.045 187.97-30.045s137.684 10.671 187.97 30.045c51.747 19.938 80.245 47.028 80.245 76.28 0 29.509-24.511 56.388-69.019 75.686-46.403 20.118-110.643 30.752-185.775 30.752zM515.252 241.64c-69.765 0-135.281 10.439-184.48 29.396-47.046 18.127-74.029 42.629-74.029 67.223 0 27.306 19.961 49.551 59.328 66.119 44.609 18.774 111.651 29.036 199.262 30.501 4.458 0.074 8.947 0.112 13.34 0.112 73.815 0 136.72-10.357 181.915-29.952 40.738-17.663 63.173-41.38 63.173-66.78 0-24.594-26.982-49.096-74.029-67.223-49.199-18.957-114.715-29.396-184.48-29.396z" fill="#280D0D" p-id="2678"></path><path d="M289.693 316.758a228.458 79.972 0 1 0 456.916 0 228.458 79.972 0 1 0-456.916 0Z" fill="#FFC866" p-id="2679"></path><path d="M518.15 401.584c-61.555 0-119.495-8.416-163.147-23.696-45.246-15.838-70.164-37.548-70.164-61.129 0-23.582 24.917-45.292 70.164-61.13 43.652-15.28 101.592-23.696 163.147-23.696s119.496 8.416 163.147 23.696c45.246 15.838 70.164 37.548 70.164 61.13 0 23.581-24.918 45.291-70.164 61.129-43.651 15.28-101.591 23.696-163.147 23.696z m0-159.944c-60.491 0-117.292 8.222-159.94 23.15-40.459 14.163-63.664 33.104-63.664 51.969 0 18.863 23.205 37.805 63.664 51.968 42.648 14.929 99.449 23.15 159.94 23.15s117.292-8.222 159.941-23.15c40.459-14.163 63.664-33.104 63.664-51.968 0-18.864-23.205-37.806-63.664-51.969-42.648-14.929-99.449-23.15-159.941-23.15z" fill="#280D0D" p-id="2680"></path><path d="M298.522 332.562s-27.089-11.125-11.132-37.971c15.958-26.846 23.457-28.346 36.957-34.346 13.499-6 4.5-35.998 29.999-38.998s44.998 9 59.997 0c14.999-9 32.923-31.498 44.21-32.998s21.786-13.499 42.785-10.499c20.999 3 44.998-19.499 59.997-3s23.999 20.999 46.498 22.499 38.998 3 56.997 17.999 29.998 31.713 41.998 35.356c11.999 3.642 11.519 22.707 23.242 36.228 11.723 13.522 18.135 20.436 16.539 29.927s-2.219 23.386-23.982 35.699c-21.764 12.314-33.056 8.625-48.426 22.703-15.37 14.078-22.315 7.113-38.966 10.278s-43.029 7.59-61.846 8.933-52.552 12.633-75.05 0-39.093 0.813-63.422-3.117-46.355 4.572-62.713-12.971c-16.358-17.544-47.676-18.673-53.141-22.273s-20.541-23.449-20.541-23.449z" fill="#FF8888" p-id="2681"></path><path d="M525.091 405.297c-11.781 0-21.333-2.147-29.201-6.565-6.047-3.396-11.841-4.909-18.785-4.909-4.77 0-9.571 0.713-14.655 1.469-5.665 0.842-11.522 1.712-17.981 1.712a64.205 64.205 0 0 1-10.35-0.812c-6.614-1.067-13.131-1.157-18.721-1.157-1.084 0-2.162 0.004-3.231 0.008-16.611 0.07-31.313-0.147-43.62-13.348-10.503-11.266-28.328-15.195-40.123-17.797-5.864-1.293-9.738-2.147-12.111-3.71-5.443-3.586-17.23-18.67-21.02-23.614-3.547-1.765-13.105-7.364-16.624-17.898-2.724-8.153-1.236-17.116 4.424-26.638 15.498-26.073 24.145-29.818 36.113-35.001 1.003-0.435 2.038-0.883 3.111-1.359 3.354-1.491 4.759-6.677 6.384-12.681 2.805-10.36 6.646-24.548 25.061-26.714a79.33 79.33 0 0 1 9.233-0.529c8.203 0 15.763 1.191 22.432 2.241 5.436 0.856 10.57 1.665 15.073 1.665 4.621 0 8.202-0.857 11.271-2.698 5.879-3.528 12.524-9.534 18.951-15.344 10.24-9.256 19.084-17.25 27.173-18.324 3.207-0.427 6.663-2.06 10.664-3.949 6.669-3.151 14.97-7.073 26.197-7.073 2.377 0 4.831 0.179 7.291 0.529 1.065 0.152 2.195 0.229 3.359 0.229 6.469 0 13.628-2.36 20.551-4.643 7.072-2.331 14.384-4.742 21.31-4.742 7.121 0 13.099 2.604 17.77 7.742 14.325 15.757 21.983 19.464 43.13 20.873 21.516 1.435 40.097 2.674 59.865 19.147 6.814 5.678 12.816 11.623 18.111 16.867 8.455 8.375 15.757 15.607 22.138 17.545 9.063 2.751 12.595 11.542 16.011 20.044 2.456 6.112 4.996 12.433 9.557 17.693l1.372 1.58c11.377 13.104 18.244 21.013 16.32 32.452-0.111 0.663-0.218 1.349-0.328 2.055-1.521 9.775-3.819 24.548-26.123 37.167-9.955 5.633-17.777 8.061-24.679 10.202-8.375 2.599-14.989 4.651-22.833 11.836-10.749 9.846-18.555 10.661-26.259 10.661-0.757 0-1.525-0.008-2.309-0.017-3.687-0.037-7.713-0.116-12.841 0.858-8.997 1.71-40.086 7.414-62.424 9.009-4.494 0.32-10.154 1.285-16.147 2.307-9.987 1.702-21.306 3.631-32.507 3.631z m-47.986-21.475c8.635 0 16.16 1.967 23.681 6.19 6.333 3.556 14.284 5.284 24.305 5.284 10.355 0 21.23-1.854 30.826-3.488 6.24-1.063 12.135-2.068 17.115-2.424 21.797-1.557 52.406-7.174 61.269-8.858 4.869-0.926 8.958-1.05 12.317-1.05 0.851 0 1.681 0.008 2.494 0.017 0.748 0.008 1.482 0.016 2.205 0.016 6.483 0 11.343-0.56 19.505-8.036 9.496-8.696 17.815-11.278 26.624-14.012 6.734-2.09 13.698-4.251 22.718-9.354 18.091-10.236 19.796-21.195 21.166-30.001 0.116-0.747 0.229-1.474 0.348-2.176 1.098-6.527-3.232-11.825-14.01-24.237l-1.376-1.586c-5.659-6.527-8.645-13.959-11.28-20.516-3.2-7.964-5.377-12.911-9.637-14.204-8.753-2.656-16.871-10.697-26.271-20.009-5.152-5.103-10.992-10.887-17.476-16.29-16.438-13.698-31.278-15.327-54.128-16.851-23.622-1.575-33.875-6.535-49.865-24.125-2.81-3.091-6.008-4.469-10.37-4.469-5.32 0-11.566 2.06-18.179 4.239-7.673 2.53-15.608 5.146-23.683 5.146-1.635 0-3.241-0.11-4.773-0.329a41.707 41.707 0 0 0-5.877-0.43c-8.983 0-15.562 3.108-21.925 6.114-4.559 2.154-8.866 4.189-13.618 4.82-5.007 0.666-13.92 8.723-21.785 15.831-6.782 6.13-13.796 12.47-20.511 16.499-4.689 2.813-9.905 4.124-16.416 4.124-5.286 0-10.795-0.868-16.629-1.786-6.615-1.042-13.456-2.12-20.876-2.12a68.33 68.33 0 0 0-8.065 0.461c-11.132 1.31-13.552 8.223-16.576 19.396-2.101 7.759-4.273 15.782-11.976 19.206-1.104 0.49-2.167 0.95-3.199 1.397-11.004 4.765-17.646 7.642-31.491 30.934-4.091 6.884-5.288 13.04-3.556 18.298 2.769 8.405 12.213 12.462 12.308 12.502 0.808 0.34 1.533 0.895 2.063 1.593 6.047 7.96 16.036 20.141 19.31 22.297 1 0.584 5.305 1.533 8.764 2.296 12.215 2.694 32.658 7.202 45.284 20.742 8.807 9.446 19.286 10.177 33.127 10.177 1.039 0 2.085-0.004 3.14-0.009a883.51 883.51 0 0 1 3.27-0.008c5.978 0 12.971 0.1 20.316 1.286 2.852 0.46 5.716 0.685 8.755 0.684 5.72 0 11.206-0.815 16.511-1.604 5.221-0.775 10.618-1.577 16.127-1.577z" fill="#280D0D" p-id="2682"></path><path d="M316.232 248.793s-12 27.216 0 27.031c12-0.186 21-4.812 27 0.001s7 16.813 19 21.813 12.193 1.002 27.596-3.999 15.128-2.96 24.404 6.556c9.275 9.517 5.707 17.887 20.854 10.665 15.146-7.222 11.146 22.232 21.146 21.005s20 4.773 33-6.227 13.666 17.739 33.333 6.869c19.667-10.869 40.641 11.238 61.154-12.316s21.295 19.446 43.404 6.446 22.109-24 37.109-19 20-5.336 21-23.168-2.565-7.156 13.881-16.524 27.119-13.309 17.119-32.309-46-22-47-37-5-20.989-28-29.995-19 17.995-42 3.995 0.878-40.021-36.122-37.242-17.73-26.619-48.507-23.619-49.017 0.619-73.534 23.619-1.377 25.037-37.99 33.247-40.976 12.027-50.826 34.775c-9.85 22.75-42.471 18.83-36.021 45.377z" fill="#FFF6EE" p-id="2683"></path><path d="M514.274 339.862c-7.325 0-11.867-4.813-15.183-8.328-1.352-1.434-3.396-3.599-4.266-3.599-0.367 0-1.231 0.368-2.459 1.407-8.397 7.105-15.979 7.927-20.95 7.927-2.355 0-4.562-0.199-6.694-0.393-1.902-0.172-3.699-0.334-5.411-0.334-0.909 0-1.723 0.045-2.488 0.14a9.737 9.737 0 0 1-1.188 0.073c-7.454 0-10-7.914-11.859-13.692-1.022-3.176-2.732-8.491-4.361-8.491-0.312 0-1.019 0.087-2.24 0.669-4.639 2.211-7.954 3.197-10.749 3.197-6.008 0-8.551-4.342-10.594-7.831-1.25-2.135-2.667-4.554-5.075-7.024-0.934-0.959-1.773-1.843-2.542-2.653-4.283-4.513-5.052-5.082-6.863-5.082-1.853 0-4.757 0.697-10.023 2.407-4.11 1.334-7.129 2.612-9.555 3.64-3.819 1.617-6.835 2.895-10.661 2.895-3.038 0-6.251-0.799-10.746-2.672-9.059-3.774-12.847-10.684-15.891-16.236-1.49-2.718-2.777-5.065-4.279-6.27-0.687-0.552-1.713-1.114-4.121-1.114-2.067 0-4.555 0.4-7.435 0.864-3.621 0.583-7.726 1.244-12.333 1.315l-0.197 0.002c-3.489-0.001-6.383-1.492-8.148-4.2-4.688-7.19 0.593-21.926 3.195-28.163-3.479-17.478 8.079-24.142 18.312-30.042 7.249-4.18 14.745-8.501 18.332-16.784 10.825-25 16.906-29.215 54.218-37.581 18.822-4.221 19.387-5.896 20.895-10.376 1.521-4.516 3.818-11.34 14.836-21.676 22.061-20.696 39.372-22.007 63.333-23.821 4.156-0.314 8.454-0.64 13.051-1.088a47.947 47.947 0 0 1 4.62-0.238c14.118 0 18.243 7.547 21.557 13.61 3.303 6.043 5.689 10.409 18.114 10.408 1.35 0 2.804-0.058 4.323-0.172a73.483 73.483 0 0 1 5.472-0.219c20.454 0 22.196 11.207 23.596 20.213 1.05 6.754 2.041 13.134 9.941 17.942 3.709 2.258 6.752 3.402 9.043 3.402 2.421-0.001 4.129-1.306 6.939-3.613 3.459-2.839 7.764-6.373 14.847-6.373 3.201 0 6.608 0.725 10.417 2.216 23.486 9.195 29.875 16.226 31.073 34.19 0.315 4.723 9.088 8.951 17.573 13.039 10.857 5.232 23.164 11.163 28.879 22.023 11.441 21.738-0.993 28.694-15.391 36.748a581.654 581.654 0 0 0-3.621 2.038c-5.395 3.073-8.952 4.218-11.183 4.796l-0.012 0.668a165.056 165.056 0 0 1-0.243 7.114c-0.402 7.175-1.627 29.009-19.018 29.009-2.547 0-5.361-0.508-8.363-1.508-1.983-0.661-3.604-0.983-4.954-0.983-3.049 0-5.109 1.72-9.886 5.957-4.039 3.581-9.569 8.486-18.274 13.605-3.583 2.106-7.089 3.175-10.423 3.175-7.942 0-13.025-5.74-17.11-10.353-2.519-2.845-5.124-5.786-7.115-5.786-0.826 0-3.217 0.538-7.557 5.521-7.756 8.905-16.513 13.054-27.559 13.054-4.367 0-8.609-0.614-12.712-1.207-3.87-0.561-7.525-1.089-11.066-1.089-4.359 0-7.896 0.832-11.128 2.619-3.785 2.093-7.265 3.108-10.64 3.108z m-19.448-21.633c5.058 0 8.388 3.53 11.326 6.645 3.102 3.287 5.196 5.283 8.123 5.283 1.667 0 3.667-0.638 5.943-1.896 4.663-2.577 9.839-3.83 15.824-3.83 4.24 0 8.417 0.604 12.456 1.189 3.936 0.569 7.653 1.107 11.322 1.107 5.821 0 12.778-1.155 20.24-9.723 5.26-6.04 9.987-8.854 14.876-8.854 6.36 0 10.622 4.812 14.382 9.059 3.224 3.642 6.27 7.08 9.843 7.08 1.58 0 3.432-0.617 5.503-1.835 7.891-4.64 12.805-8.998 16.753-12.5 5.292-4.694 9.472-8.401 16.327-8.401 2.41 0 5.035 0.484 8.023 1.48 2.01 0.671 3.792 1.011 5.293 1.011 2.458 0 8.213 0 9.326-19.846 0.167-2.975 0.203-5.146 0.229-6.731 0.076-4.59 0.136-8.216 6.281-9.66 1.693-0.398 4.526-1.064 9.814-4.077 1.265-0.721 2.496-1.409 3.687-2.075 14.64-8.189 18.575-10.391 11.541-23.756-4.225-8.028-14.999-13.22-24.504-17.801-11.495-5.539-22.353-10.771-23.043-21.137-0.83-12.445-2.946-17.192-24.927-25.798-2.624-1.027-4.938-1.549-6.878-1.549-3.435 0-5.539 1.585-8.688 4.17-3.156 2.591-7.084 5.815-13.096 5.816h-0.003c-4.154 0-8.763-1.575-14.088-4.817-11.752-7.153-13.332-17.319-14.486-24.743-1.319-8.485-1.865-11.997-14.004-11.997-1.45 0-3.046 0.064-4.745 0.192a67.911 67.911 0 0 1-5.049 0.199c-18.181 0-23.065-8.936-26.631-15.46-2.917-5.338-4.678-8.56-13.04-8.56a38.47 38.47 0 0 0-3.679 0.192c-4.702 0.459-9.053 0.788-13.26 1.106-22.798 1.727-37.859 2.866-57.424 21.221-9.238 8.667-10.924 13.673-12.278 17.695-3.003 8.918-6.823 12.008-27.97 16.749-35.827 8.034-38.364 11.019-47.435 31.968-4.863 11.229-14.175 16.599-22.39 21.336-10.937 6.306-16.074 9.831-13.369 20.965a4.857 4.857 0 0 1-0.275 3.104c-3.595 8.174-5.797 17.758-4.693 20.218 0.038 0.002 0.082 0.003 0.131 0.003 3.952-0.061 7.527-0.637 10.986-1.193 3.154-0.508 6.134-0.988 8.978-0.988 4.134 0 7.469 1.063 10.195 3.25 3.01 2.414 4.894 5.851 6.716 9.175 2.672 4.874 5.196 9.478 11.113 11.943 3.195 1.331 5.357 1.925 7.012 1.925 1.78 0 3.395-0.652 6.876-2.126 2.599-1.101 5.833-2.47 10.343-3.935 5.479-1.779 9.569-2.882 13.021-2.882 6.209 0 9.437 3.4 13.904 8.107 0.742 0.781 1.551 1.635 2.453 2.56 3.234 3.318 5.122 6.541 6.5 8.895 0.672 1.147 1.59 2.715 2.034 3.025 0.008 0.001 0.073 0.005 0.185 0.005 0.689 0 2.46-0.293 6.571-2.253 2.246-1.071 4.406-1.614 6.418-1.614 8.703 0 11.534 8.8 13.601 15.226 0.723 2.248 1.906 5.926 2.851 6.931a30.107 30.107 0 0 1 3.444-0.186c2.15 0 4.252 0.19 6.285 0.375 2.007 0.181 3.902 0.353 5.82 0.353 3.969 0 8.817-0.669 14.681-5.631 2.942-2.493 5.797-3.704 8.725-3.704z" fill="#280D0D" p-id="2684"></path><path d="M528.141 892.563c-0.885 0.006-1.783 0.009-2.658 0.009-98.248 0-141.12-39.707-142.897-41.397a4.944 4.944 0 0 1-1.455-2.696l-79.855-440.208c-26.844-13.356-54.238-35.454-54.238-70.013 0-21.604 15.561-42.025 44.535-59.26 5.608-7.725 10.344-12.271 14.984-15.449 0.957-5.87 3.178-11.822 4.601-15.233-3.479-17.478 8.079-24.142 18.312-30.042 4.695-2.707 9.487-5.481 13.26-9.344l-9.54-20.445s-21.303 13.182-36.302 32.178c-14.999 18.995-21.722 31.684-28.86 40.339-7.138 8.655-58.796 39.194-56.986 80.51 1.153 26.327 28.45 60.583 58.648 79.11l74.918 417.85s1.709 16.217 28.776 38.656c25.911 21.48 208.676 63.428 273.448-9.879-22.333 11.939-60 24.884-118.691 25.314z" fill="#280D0D" p-id="2685"></path><path d="M417.256 305.478L351.193 162.8c-4.728-10.212-16.457-15.14-27.06-11.372l-161.285 57.329s4.835 1.095 9 13.464c3.874 11.505 1.804 18.62 1.804 18.62l142.078-57.327c7.337-2.96 15.705 0.379 18.988 7.577l57.241 125.506c3.095 7.431 11.86 10.655 19.032 7 6.619-3.373 9.387-11.377 6.265-18.119z" fill="#3BFFDE" p-id="2686"></path><path d="M404.729 330.045a18.716 18.716 0 0 1-17.294-11.468l-57.21-125.437a9.878 9.878 0 0 0-8.966-5.767c-1.26 0-2.499 0.242-3.681 0.719L175.499 245.42a4.94 4.94 0 0 1-5.159-0.916 4.94 4.94 0 0 1-1.429-5.041c-0.001 0.001 1.511-6.006-1.742-15.666-2.735-8.122-5.487-10.101-5.914-10.366a4.938 4.938 0 0 1-0.061-9.326l161.285-57.329a26.66 26.66 0 0 1 8.945-1.547c10.372 0 19.89 6.083 24.249 15.497l66.063 142.679a18.697 18.697 0 0 1-8.503 24.592 18.83 18.83 0 0 1-8.504 2.048zM321.259 177.5a19.774 19.774 0 0 1 17.951 11.544l57.241 125.505 0.066 0.15a8.87 8.87 0 0 0 8.212 5.472 8.771 8.771 0 0 0 4.02-0.973 8.854 8.854 0 0 0 4.027-11.645l-66.063-142.68c-2.749-5.936-8.75-9.771-15.289-9.771-1.917 0-3.814 0.329-5.638 0.978l-153.848 54.686c1.553 2.38 3.14 5.58 4.588 9.881 1.681 4.99 2.363 9.271 2.559 12.679l134.798-54.389a19.602 19.602 0 0 1 7.376-1.437z" fill="#280D0D" p-id="2687"></path><path d="M182.032354 219.220325a17.559 12.789 67.009 1 0-23.546243 9.990422 17.559 12.789 67.009 1 0 23.546243-9.990422Z" fill="#FFF6EE" p-id="2688"></path><path d="M173.347 246.012c-7.774 0-15.536-5.981-19.314-14.884-4.909-11.568-1.621-23.658 7.487-27.523a14.457 14.457 0 0 1 5.682-1.145c7.775 0 15.537 5.981 19.314 14.885 2.23 5.255 2.82 10.897 1.661 15.886-1.27 5.468-4.604 9.709-9.148 11.637a14.474 14.474 0 0 1-5.682 1.144z m-6.145-33.845c-0.67 0-1.307 0.125-1.891 0.373-3.892 1.651-4.987 8.566-2.343 14.797 2.499 5.888 7.112 8.969 10.378 8.969 0.67 0 1.307-0.126 1.891-0.374 2.266-0.961 3.156-3.48 3.485-4.896 0.688-2.961 0.271-6.568-1.142-9.899-2.498-5.89-7.112-8.97-10.378-8.97zM402.41 335.854c-16.167 0-28.177-10.343-28.742-10.837a4.854 4.854 0 0 1 6.385-7.311c0.124 0.105 12.459 10.609 27.128 8.026 10.911-1.916 20.712-10.522 29.13-25.581a4.854 4.854 0 0 1 8.472 4.736c-9.94 17.779-22.065 28.016-36.038 30.425a37.111 37.111 0 0 1-6.335 0.542z" fill="#280D0D" p-id="2689"></path><path d="M814.805 214.172s-49.423-43.921-103.403-31.7c-53.98 12.222-79.044 59.026-79.044 59.026s20.476 18.637 87.709 19.497c49.252 0.63 64.37-46.859 94.738-46.823z" fill="#3BFFDE" p-id="2690"></path><path d="M721.045 265.938c-0.369-0.025-0.694-0.002-1.041-0.007-68.322-0.873-90.077-19.97-90.97-20.782a4.937 4.937 0 0 1-1.029-5.982c1.067-1.992 26.767-48.936 82.307-61.511 6.652-1.506 13.578-2.27 20.583-2.27 45.567 0 82.982 31.436 86.902 34.843a4.937 4.937 0 0 1-2.973 8.88H814.798c-11.458 0-20.99 8.367-32.027 18.057-14.601 12.819-32.774 28.772-61.726 28.772z m-82.054-25.863c7.971 4.72 31.366 15.347 81.14 15.983 0.301 0.004 0.608 0.006 0.907 0.006h0.008c25.236 0.001 40.474-13.379 55.213-26.318 8.707-7.645 17.063-14.98 26.77-18.441-13.402-9.521-41.13-26.044-72.132-26.044-6.273 0-12.465 0.682-18.403 2.026-42.38 9.595-66.366 41.749-73.503 52.788z" fill="#280D0D" p-id="2691"></path><path d="M693.906 238.866c-3.912 0.008-7.761 0.252-11.379 0.607-10.224 1.002-21.975 1.742-31.329 7.085-15.638 8.934-19.004 32.388-18.835 48.609 0.189 18.198 8.692 36.05 26.813 42.06 18.654 6.187 43.724 6.445 60.814-4.381 21.904-13.875 23.167-48.275 14.693-70.306-6.909-17.97-22.466-23.711-40.777-23.674z" fill="#F240AE" p-id="2692"></path><path d="M686.188 346.512c-0.001 0 0 0 0 0-9.75-0.001-19.633-1.569-28.584-4.538-18.416-6.108-30.003-24.023-30.239-46.755-0.127-12.195 1.7-41.774 21.354-53.002 9.562-5.462 20.912-6.539 30.925-7.489l2.396-0.23c4.259-0.417 8.137-0.623 11.856-0.631h0.186c23.179 0 38.41 9.043 45.27 26.879 4.794 12.465 6.369 27.321 4.321 40.76-2.457 16.117-9.72 28.416-21.005 35.564-9.751 6.176-22.366 9.442-36.48 9.442z m7.894-102.646h-0.166c-3.397 0.007-6.963 0.197-10.901 0.584l-2.427 0.232c-9.448 0.896-19.218 1.823-26.91 6.218-15.051 8.598-16.423 33.785-16.315 44.215 0.15 14.363 6.372 31.723 23.388 37.366 7.948 2.637 16.744 4.029 25.436 4.03 12.217 0 22.981-2.729 31.129-7.89 18.589-11.775 21.067-42.538 12.702-64.287-5.371-13.964-16.79-20.468-35.936-20.468zM628.103 159.051c-12.085 0-19.693-2.443-20.324-2.653a4.854 4.854 0 0 1 3.055-9.214c0.28 0.093 28.435 8.916 63.203-10.498a4.854 4.854 0 0 1 4.733 8.475c-19.935 11.13-37.827 13.89-50.667 13.89z" fill="#280D0D" p-id="2693"></path><path d="M589.626 224.348c-30.959 8.57-58.102 40.156-50.755 73.099a50.989 50.989 0 0 0 2.083 6.939c8.629 22.808 27.484 49.018 53.952 52.014 26.314 2.979 62.768-19.843 72.97-43.909 18.878-44.53-20.693-94.524-67.365-90.164a62.871 62.871 0 0 0-10.885 2.021z" fill="#F240AE" p-id="2694"></path><path d="M599.699 361.663h-0.003c-1.825 0-3.626-0.099-5.353-0.295-28.637-3.241-48.772-30.646-58.066-55.212a56.13 56.13 0 0 1-2.287-7.621c-8.037-36.042 21.589-69.949 54.302-79.005a67.826 67.826 0 0 1 11.753-2.181 67.019 67.019 0 0 1 6.172-0.288c23.157 0 45.947 12.691 59.476 33.12 13.185 19.912 15.659 43.334 6.787 64.262-10.478 24.714-45.168 47.22-72.781 47.22z m6.518-134.601c-1.74 0-3.504 0.083-5.241 0.245a57.973 57.973 0 0 0-10.016 1.86c-35.04 9.7-52.7 42.574-47.209 67.192a46.126 46.126 0 0 0 1.879 6.259c4.561 12.055 11.404 23.348 19.27 31.798 9.358 10.055 19.643 15.779 30.568 17.016 1.354 0.154 2.777 0.231 4.228 0.231 23.717 0.002 54.614-19.983 63.576-41.122 7.54-17.785 5.383-37.772-5.917-54.838-11.699-17.667-31.294-28.641-51.138-28.641z" fill="#280D0D" p-id="2695"></path><path d="M705.724 261.226a4.854 4.854 0 0 1-4.85-5.112c2.94-55.108-48.637-97.759-49.158-98.184a4.852 4.852 0 0 1-0.7-6.827 4.852 4.852 0 0 1 6.828-0.7c2.285 1.859 55.923 46.243 52.723 106.229a4.856 4.856 0 0 1-4.843 4.594zM624.529 252.559a4.853 4.853 0 0 1-3.004-8.668c37.817-29.743 19.497-83.847 19.307-84.39a4.854 4.854 0 0 1 9.164-3.198c0.216 0.62 5.297 15.401 5.193 34.44-0.139 25.635-9.705 46.65-27.664 60.775a4.822 4.822 0 0 1-2.996 1.041z" fill="#280D0D" p-id="2696"></path><path d="M640.232 271.851c6.449 0 6.449-10 0-10s-6.449 10 0 10z" fill="#FFFFFF" p-id="2697"></path><path d="M633.588 284.005c-1.286 7.391-3.198 14.521-7.199 20.934-4.304 6.898-11.454 11.307-18.938 14.035-6.008 2.19-3.415 11.857 2.658 9.643 9.495-3.461 17.395-8.593 23.555-16.663 5.508-7.214 8.035-16.498 9.565-25.291 1.099-6.305-8.537-9.002-9.641-2.658z" fill="#FFFFFF" p-id="2698"></path><path d="M491.726 142.207s-23.085 3.652-25.645 11.292M466.082 158.441a4.94 4.94 0 0 1-4.682-6.511c3.169-9.458 21.724-13.36 29.555-14.6 2.693-0.437 5.222 1.412 5.648 4.104s-1.411 5.221-4.103 5.647c-10.18 1.62-20.745 5.504-21.74 7.991a4.934 4.934 0 0 1-4.678 3.369z" fill="#3BFFDE" p-id="2699"></path><path d="M514.603 158.248s22.335-13.913 23.054 0" fill="#FFF6EE" p-id="2700"></path><path d="M514.608 163.102a4.854 4.854 0 0 1-2.571-8.973c15.14-9.432 22.945-6.705 24.976-5.646 1.919 1.002 5.184 3.569 5.491 9.515a4.853 4.853 0 0 1-4.596 5.097c-2.696 0.172-4.959-1.92-5.097-4.597-0.057-1.091-0.299-1.423-0.301-1.426-1.481-0.977-8.865 1.262-15.34 5.295a4.838 4.838 0 0 1-2.562 0.735z" fill="#FFD96E" p-id="2701"></path><path d="M486.164 181.465s-13.147 18.935-4.06 25.967" fill="#FFF6EE" p-id="2702"></path><path d="M482.101 212.285a4.827 4.827 0 0 1-2.967-1.016c-3.892-3.012-7.562-9.133-2.939-21.194 2.334-6.092 5.835-11.165 5.983-11.378a4.852 4.852 0 0 1 7.974 5.533c-3.657 5.294-8.9 16.405-5.078 19.363a4.853 4.853 0 0 1-2.973 8.692z" fill="#FFD96E" p-id="2703"></path><path d="M545.372 181.222s14.634 16.028 5.224 24.912" fill="#FFF6EE" p-id="2704"></path><path d="M550.597 210.987a4.854 4.854 0 0 1-3.333-8.382c5.684-5.366-5.362-17.985-5.476-18.11a4.853 4.853 0 0 1 7.168-6.544c6.631 7.263 15.139 22.114 4.971 31.714a4.842 4.842 0 0 1-3.33 1.322z" fill="#3BFFDE" p-id="2705"></path><path d="M428.881 180.324s-21.605-1.038-25.802 10.399" fill="#FFF6EE" p-id="2706"></path><path d="M403.079 195.577a4.852 4.852 0 0 1-4.555-6.527c1.625-4.429 6.083-10.206 18.091-12.577 6.432-1.271 12.256-1.01 12.5-0.997a4.854 4.854 0 0 1 4.615 5.081c-0.128 2.675-2.401 4.752-5.074 4.614-4.69-0.216-18.611 0.659-21.02 7.223a4.855 4.855 0 0 1-4.557 3.183z" fill="#FFD96E" p-id="2707"></path><path d="M595.117 190.723s16.755-3.13 21.255 4.904" fill="#FFF6EE" p-id="2708"></path><path d="M616.376 200.481c-1.7 0-3.349-0.895-4.239-2.482-1.81-3.234-10.537-3.532-16.137-2.504a4.859 4.859 0 0 1-5.651-3.89 4.85 4.85 0 0 1 3.877-5.653c2.065-0.388 20.354-3.457 26.38 7.303a4.853 4.853 0 0 1-4.23 7.226z" fill="#F240AE" p-id="2709"></path><path d="M432.154 223.403s-22.521 1.947-19.571 12.323" fill="#FFF6EE" p-id="2710"></path><path d="M412.581 240.581a4.857 4.857 0 0 1-4.666-3.527c-0.932-3.274-0.426-6.452 1.46-9.188 5.142-7.455 19.528-9.054 22.36-9.298a4.85 4.85 0 0 1 5.253 4.417 4.853 4.853 0 0 1-4.412 5.253c-5.211 0.461-13.397 2.504-15.211 5.141-0.178 0.258-0.274 0.455-0.114 1.021a4.852 4.852 0 0 1-4.67 6.181z" fill="#F240AE" p-id="2711"></path><path d="M387.714 839.041a120.165 120.165 0 0 0 37.319 4.053c1.926-0.093 1.935-3.093 0-3a117.495 117.495 0 0 1-36.522-3.946c-1.869-0.505-2.662 2.389-0.797 2.893z m-0.106-14.616c6.997 2.101 14.114 3.471 21.384 4.166 1.926 0.184 1.908-2.818 0-3-7.008-0.67-13.847-2.035-20.587-4.059-1.857-0.558-2.645 2.338-0.797 2.893z m-6.947 7.699l17.935 3.35c1.891 0.353 2.698-2.538 0.798-2.893l-17.935-3.35c-1.891-0.353-2.698 2.538-0.798 2.893z m35.361 5.168l8.015 0.864c1.922 0.207 1.902-2.795 0-3l-8.015-0.864c-1.922-0.207-1.902 2.795 0 3z m-33.066-35.342l37.039 3.604c1.926 0.187 1.907-2.814 0-3l-37.039-3.604c-1.925-0.188-1.907 2.814 0 3z m0.683 13.232l22.961 3.273c1.891 0.27 2.706-2.621 0.798-2.893l-22.961-3.273c-1.892-0.27-2.707 2.621-0.798 2.893z m36.023 2.904l18.97 3.178c1.892 0.317 2.702-2.574 0.798-2.893l-18.97-3.178c-1.893-0.316-2.703 2.574-0.798 2.893z m-25.08 31.431a1108.933 1108.933 0 0 0 63.017 14.939c1.888 0.39 2.692-2.502 0.798-2.893a1108.933 1108.933 0 0 1-63.017-14.939c-1.871-0.501-2.665 2.393-0.798 2.893z m-17.553-67.924l44.953 3.164c1.932 0.136 1.918-2.865 0-3l-44.953-3.164c-1.932-0.136-1.919 2.865 0 3z m-2.017-22.301a370.722 370.722 0 0 0 57.527-1.424c1.905-0.196 1.924-3.198 0-3a370.725 370.725 0 0 1-57.527 1.424c-1.935-0.102-1.925 2.898 0 3z m3.49 7.628a812.27 812.27 0 0 1 40.496 2.107c1.93 0.149 1.916-2.852 0-3a811.07 811.07 0 0 0-40.496-2.107c-1.936-0.052-1.931 2.948 0 3z m51.12 38.882a279.58 279.58 0 0 0 25.887 2.485c1.935 0.094 1.925-2.906 0-3a271.091 271.091 0 0 1-25.09-2.378c-1.89-0.269-2.706 2.621-0.797 2.893z m2.381-22.756a90.059 90.059 0 0 1 13.513 0.308c1.925 0.189 1.907-2.813 0-3a90.056 90.056 0 0 0-13.513-0.308c-1.925 0.1-1.935 3.101 0 3z m-62.384-50.226a441.594 441.594 0 0 0 30.885 3.113c1.933 0.125 1.92-2.875 0-3a430.322 430.322 0 0 1-30.088-3.006c-1.891-0.257-2.707 2.634-0.797 2.893z m3.881 13.166l20.997 0.6c1.936 0.055 1.93-2.945 0-3l-20.997-0.6c-1.935-0.055-1.93 2.945 0 3z m37.012 0.392l15.002 1.484c1.925 0.19 1.907-2.811 0-3l-15.002-1.484c-1.925-0.191-1.907 2.811 0 3zM363 706.5h38.5c1.935 0 1.935-3 0-3H363c-1.935 0-1.935 3 0 3z m1.498 11.693l34.001 0.437c1.935 0.025 1.933-2.975 0-3l-34.001-0.437c-1.936-0.025-1.934 2.975 0 3zM407 717.5h13.5c1.935 0 1.935-3 0-3H407c-1.935 0-1.935 3 0 3z m-47.499-30.52c6.036 0.21 12.026-0.082 18.013-0.878 1.889-0.251 1.913-3.254 0-3a107.828 107.828 0 0 1-18.013 0.878c-1.936-0.068-1.929 2.933 0 3z m26.999-1.48h29c1.935 0 1.935-3 0-3h-29c-1.935 0-1.935 3 0 3z m0.5 11c1.935 0 1.935-3 0-3s-1.935 3 0 3z m13 97.5c1.935 0 1.935-3 0-3s-1.935 3 0 3z m16.5 32.5c1.935 0 1.935-3 0-3s-1.935 3 0 3z m32.5 24c1.935 0 1.935-3 0-3s-1.935 3 0 3zM356.5 654H385c1.935 0 1.935-3 0-3h-28.5c-1.935 0-1.935 3 0 3z m4 14h19c1.935 0 1.935-3 0-3h-19c-1.935 0-1.935 3 0 3z m33.5-0.5h5c1.935 0 1.935-3 0-3h-5c-1.935 0-1.935 3 0 3z m-45.499-47.488c7.76-0.274 15.426 0.216 23.083 1.531 1.892 0.325 2.701-2.566 0.798-2.893-7.916-1.36-15.851-1.922-23.881-1.638-1.929 0.068-1.936 3.068 0 3z m3.089 14.489a53.436 53.436 0 0 0 12.41 0.992c1.928-0.074 1.935-3.074 0-3-3.914 0.15-7.766-0.128-11.612-0.885-1.89-0.372-2.695 2.52-0.798 2.893zM385 636.5h9c1.935 0 1.935-3 0-3h-9c-1.935 0-1.935 3 0 3z m-39.01-45.19a336.917 336.917 0 0 1 25.008-0.262c1.936 0.052 1.931-2.948 0-3a336.917 336.917 0 0 0-25.008 0.262c-1.925 0.092-1.934 3.092 0 3z m3.012 15.216c3.05-0.198 6.086-0.104 9.11 0.355 1.892 0.288 2.705-2.603 0.798-2.893-3.296-0.501-6.578-0.679-9.907-0.462-1.921 0.125-1.934 3.126-0.001 3zM377.5 607h4.5c1.935 0 1.935-3 0-3h-4.5c-1.935 0-1.935 3 0 3z m-36.494-39.547l8.981 1.152c1.915 0.246 1.891-2.757 0-3l-8.981-1.152c-1.915-0.245-1.891 2.758 0 3zM342.5 580h8.5c1.935 0 1.935-3 0-3h-8.5c-1.935 0-1.935 3 0 3z m-10-47.5H347c1.935 0 1.935-3 0-3h-14.5c-1.935 0-1.935 3 0 3z m5.502 16.518c2.229-0.182 4.417-0.065 6.604 0.408 1.886 0.408 2.688-2.484 0.798-2.893-2.443-0.529-4.909-0.719-7.402-0.515-1.915 0.156-1.93 3.157 0 3zM356 551c1.935 0 1.935-3 0-3s-1.935 3 0 3z m-28.491-37.64l7.003 0.462c1.932 0.127 1.92-2.873 0-3l-7.003-0.462c-1.932-0.128-1.92 2.873 0 3zM336 497c1.935 0 1.935-3 0-3s-1.935 3 0 3z m8.5 18.5c1.935 0 1.935-3 0-3s-1.935 3 0 3z m28 123.5c1.935 0 1.935-3 0-3s-1.935 3 0 3z" fill="#280D0D" p-id="2712"></path><path d="M324.333 155.156s15.333 11.373 0 27.608" fill="#3BFFDE" p-id="2713"></path><path d="M324.333 187.702a4.937 4.937 0 0 1-3.588-8.328c3.928-4.159 5.755-8.142 5.43-11.837-0.439-4.986-4.738-8.385-4.782-8.417a4.937 4.937 0 1 1 5.883-7.929c0.322 0.238 7.896 5.959 8.735 15.48 0.584 6.628-2.137 13.183-8.087 19.482a4.921 4.921 0 0 1-3.591 1.549z" fill="#280D0D" p-id="2714"></path><path d="M343.36 153.728s23.39 18.497-6.61 36.995" fill="#3BFFDE" p-id="2715"></path><path d="M336.755 195.66a4.937 4.937 0 0 1-2.597-9.14c8.241-5.081 12.59-10.363 12.926-15.7 0.459-7.291-6.731-13.175-6.804-13.233-2.116-1.705-2.465-4.808-0.77-6.932a4.926 4.926 0 0 1 6.912-0.799c0.459 0.363 11.249 9.045 10.522 21.49-0.511 8.759-6.434 16.691-17.604 23.578a4.896 4.896 0 0 1-2.585 0.736z" fill="#280D0D" p-id="2716"></path></svg>