<?xml version="1.0" standalone="no"?><!DOCTYPE svg PUBLIC "-//W3C//DTD SVG 1.1//EN" "http://www.w3.org/Graphics/SVG/1.1/DTD/svg11.dtd"><svg t="1528986172777" class="icon" style="" viewBox="0 0 1024 1024" version="1.1" xmlns="http://www.w3.org/2000/svg" p-id="1376" xmlns:xlink="http://www.w3.org/1999/xlink" width="80" height="80"><defs><style type="text/css"></style></defs><path d="M510.777 513.223m-418.146 0a418.146 418.146 0 1 0 836.292 0 418.146 418.146 0 1 0-836.292 0Z" fill="#FFD7D7" p-id="1377"></path><path d="M796.385 556.631c-23.271-13.031-172.882-44.56-216.162-65.638l-53.343 14.039-67.747-7.192s-52.671 18.043-78.226 26.582c-25.555 8.539-106.289 31.186-119.891 55.176-8.99 15.856-27.199 137.178-41.644 233.501 75.309 73.194 178.091 118.27 291.405 118.27 132.138 0 249.956-61.295 326.584-157-12.426-101.141-28.597-210.806-40.976-217.738z" fill="#3A4ABA" p-id="1378"></path><path d="M577.194 496.654c-18.032 13.398-37.526 20.356-56.883 19.198-18.89-1.13-36.291-8.352-52.193-20.536-0.719 5.152-2.883 10.734-7.378 16.462-16.525 21.059 47.626 53.327 47.626 53.327l51.852 8.432 39.357-28.072s-21.869-21.452-22.381-48.811z" fill="#EDB188" p-id="1379"></path><path d="M560.218 578.537c-0.268 0-0.535-0.021-0.803-0.064l-51.852-8.432a5.008 5.008 0 0 1-1.444-0.469c-4.882-2.456-47.833-24.611-52.636-46.118-1.197-5.362-0.048-10.467 3.323-14.763 3.548-4.522 5.688-9.255 6.359-14.066a5 5 0 0 1 7.993-3.278c15.553 11.916 32.191 18.481 49.451 19.514 17.569 1.058 36.188-5.28 53.602-18.219a5 5 0 0 1 7.982 3.919c0.469 25.025 20.68 45.135 20.884 45.335a4.998 4.998 0 0 1-0.598 7.64l-39.357 28.072a5.005 5.005 0 0 1-2.904 0.929z m-50.269-18.24l49.041 7.975 33.11-23.616c-5.773-6.871-16.07-21.217-19.072-39.056-17.265 11.018-35.502 16.297-53.016 15.243-17.045-1.02-33.462-6.803-48.897-17.212-1.459 3.872-3.612 7.629-6.44 11.233-1.541 1.963-1.981 3.939-1.431 6.409 1.502 6.733 10.211 15.864 24.522 25.709 9.926 6.83 19.604 11.976 22.183 13.315z" fill="#280D0D" p-id="1380"></path><path d="M448.179 508.533l-18.98 32.646 50.948 179.153 41.535 126.135 48.249-142.597 32.573-191.362-73.544 63.984z" fill="#FFF9F5" p-id="1381"></path><path d="M521.682 851.467h-0.021a5.001 5.001 0 0 1-4.729-3.437l-41.535-126.135a6.305 6.305 0 0 1-0.061-0.195L424.39 542.547a5 5 0 0 1 0.486-3.881l18.98-32.646a5.002 5.002 0 0 1 7.542-1.313l77.507 65.205 70.316-61.176a4.996 4.996 0 0 1 5.73-0.587 4.997 4.997 0 0 1 2.48 5.198l-32.573 191.362c-0.044 0.26-0.108 0.515-0.192 0.764L526.417 848.07a5 5 0 0 1-4.735 3.397z m-36.754-132.601l36.818 111.81 43.321-128.034 30.159-177.175-62.984 54.798a5 5 0 0 1-6.501 0.054l-76.229-64.13-14.922 25.666 50.338 177.011z" fill="#280D0D" p-id="1382"></path><path d="M471.503 490.994s-4.021 5.354 0 17.634c8.375 25.574 51.701 41.514 51.701 41.514s-31.303 22.508-43.555 32.575c-12.621 10.372-58.338-75.561-8.146-91.723z" fill="#FFF9F5" p-id="1383"></path><path d="M477.21 588.583c-12.995 0-29.176-29.415-32.817-52.602-3.943-25.111 5.379-43.243 25.577-49.747 2.154-0.695 4.647-0.029 5.876 1.871 1.207 1.867 1.173 4.133-0.269 5.804-0.33 0.651-2.084 4.729 0.677 13.162 3.036 9.271 12.263 18.793 26.683 27.538 11.344 6.88 21.889 10.802 21.995 10.841a5.002 5.002 0 0 1 1.191 8.751c-0.312 0.224-31.313 22.53-43.3 32.379a8.74 8.74 0 0 1-5.613 2.003z m-12.459-88.829c-8.778 6.093-12.453 16.537-10.937 31.17 2.541 24.524 18.073 46.109 23.079 47.588 8.855-7.228 26.318-20.042 36.19-27.218-13.631-6.275-39.617-20.606-46.332-41.11-1.325-4.048-1.888-7.517-2-10.43z" fill="#280D0D" p-id="1384"></path><path d="M580.224 490.994s5.54 5.694-5.439 21.607c-7.338 10.636-51.58 37.542-51.58 37.542s42.728 14.462 51.151 28.459c6.989 11.616 56.06-71.446 5.868-87.608z" fill="#FFF9F5" p-id="1385"></path><path d="M576.211 584.711c-0.001 0 0 0 0 0-2.552 0-4.789-1.287-6.14-3.531-5.447-9.053-32.621-20.937-48.47-26.301a5 5 0 0 1-0.994-9.009c16.754-10.189 45.16-29.003 50.062-36.109 6.468-9.375 6.312-14.374 5.677-15.61a5 5 0 0 1 5.409-7.916c19.872 6.398 28.739 23.139 24.971 47.138-3.446 21.94-19.164 51.338-30.515 51.338z m-41.667-35.732c12.868 5.021 34.36 14.544 42.585 24.885 6.393-5.304 20.862-30.197 20.426-51.672-0.216-10.593-3.904-18.151-11.228-22.898-0.727 4.142-2.817 9.467-7.427 16.147-5.849 8.479-30.664 24.87-44.356 33.538z" fill="#280D0D" p-id="1386"></path><path d="M438.716 504.819s-55.546 30.107-59.031 34.774c-1.162 2.344 38.351 28.911 38.351 28.911l-41.634 19.603s146.024 203.455 151.489 299.482c0 0.001-62.674-316.016-89.175-382.77z" fill="#7A9AF4" p-id="1387"></path><path d="M527.89 892.589a5.017 5.017 0 0 1-4.906-4.041c-0.132-0.662-3.27-16.463-8.276-40.986-31.44-101.309-141.261-254.997-142.367-256.539a4.995 4.995 0 0 1-0.777-4.172 4.997 4.997 0 0 1 2.709-3.267l33.716-15.876A914.57 914.57 0 0 1 395.524 559c-5.724-4.078-10.249-7.439-13.451-9.989-4.659-3.711-9.059-7.216-6.867-11.639 0.134-0.271 0.293-0.528 0.474-0.771 3.604-4.827 39.549-24.739 60.654-36.179a4.998 4.998 0 0 1 7.029 2.551c20.765 52.304 63.555 256.472 81.043 342.104 4.879 15.817 7.72 29.863 8.449 41.764a5 5 0 0 1-4.934 5.747l-0.031 0.001zM383.925 590.092c15.601 22.258 80.157 116.176 118.946 200.269-19.696-93.937-49.651-230.548-66.812-278.403-20.109 10.986-40.747 22.771-49.024 28.235 6.287 5.144 20.644 15.323 33.791 24.162a4.998 4.998 0 0 1-0.659 8.673l-36.242 17.064z" fill="#280D0D" p-id="1388"></path><path d="M591.808 497.022s65.151 20.401 71.605 27.371c-1.678 0-42.721 28.653-42.721 28.653l48.142 19.33S546.981 777.624 527.892 887.59c-0.001 0 82.086-297.273 63.916-390.568z" fill="#7A9AF4" p-id="1389"></path><path d="M527.892 892.59a5.001 5.001 0 0 1-3.978-1.97 5.037 5.037 0 0 1-0.947-3.885l-0.002-0.001c2.497-14.38 6.875-31.147 13.016-49.839 19.874-78.806 64.505-269.163 50.919-338.917a5.006 5.006 0 0 1 1.574-4.683 4.994 4.994 0 0 1 4.828-1.045c15.582 4.879 66.952 21.372 73.78 28.745a5 5 0 0 1-2.114 8.149c-2.887 1.507-18.267 11.938-33.813 22.714l39.543 15.878a4.998 4.998 0 0 1 2.436 7.192c-0.907 1.527-91.075 153.979-127.544 264.755-7.23 28.659-12.303 47.147-12.87 49.206a5.002 5.002 0 0 1-4.828 3.701z m70.11-388.357c4.002 32.116-0.469 84.916-13.325 157.201-6.385 35.899-14.104 72.488-21.655 105.671 16.743-38.542 35.695-76.562 51.244-106.316 21.46-41.067 40.278-73.838 47.321-85.935l-42.758-17.168a4.997 4.997 0 0 1-3.104-4.071 5.002 5.002 0 0 1 2.105-4.668c18.911-13.202 29.633-20.507 35.882-24.549-10.738-4.928-33.391-12.992-55.71-20.165z" fill="#280D0D" p-id="1390"></path><path d="M519.373 593.122l-30.193 65.117 40.752 218.974 35.484-220.783-19.326-66.113z" fill="#3BFFDE" p-id="1391"></path><path d="M529.931 882.15a4.937 4.937 0 0 1-4.853-4.034l-40.752-218.974a4.93 4.93 0 0 1 0.375-2.98l30.192-65.117a4.94 4.94 0 0 1 3.964-2.833l26.717-2.805a4.94 4.94 0 0 1 5.255 3.524l19.326 66.112c0.205 0.704 0.252 1.445 0.136 2.169l-35.484 220.783a4.937 4.937 0 0 1-4.814 4.153l-0.062 0.002z m-35.609-223.264l35.253 189.43 30.789-191.569-17.857-61.089-19.833 2.083-28.352 61.145zM418.981 100.551c-6.96 0.718-13.679 2.716-20.342 8.366a67.29 67.29 0 0 1-6.162 4.674c10.845-5.307 17.74-6.795 26.504-13.04zM370.729 312.349c4.168 1.057 6.651 4.316 6.651 4.316 0 5.657 5.906 6.581 11.377 23.937-3.286-13.828-6.079-20.462-7.418-30.592a3.853 3.853 0 0 1-0.851 0.111c-1.547 0-5.63 1.708-9.759 2.228z" fill="#280D0D" p-id="1392"></path><path d="M445.853 749.984H320c-1.1 0-2-0.9-2-2v-54.269c0-1.1 0.9-2 2-2h125.853c1.1 0 2 0.9 2 2v54.269c0 1.1-0.9 2-2 2z" fill="#3145A8" p-id="1393"></path><path d="M445.853 733.553H332.167c-1.1 0-2-0.9-2-2v-48.13c0-1.1 0.9-2 2-2h113.686c1.1 0 2 0.9 2 2v48.13c0 1.1-0.9 2-2 2z" fill="#FF76C4" p-id="1394"></path><path d="M445.853 738.553H332.167c-3.86 0-7-3.141-7-7v-48.13c0-3.859 3.14-7 7-7h113.686c3.86 0 7 3.141 7 7v48.13c0 3.859-3.14 7-7 7z m-110.686-10h107.686v-42.13H335.167v42.13z" fill="#280D0D" p-id="1395"></path><path d="M371.123 722.105h-28.018c-1.1 0-2-0.9-2-2v-28.303c0-1.1 0.9-2 2-2h28.018c1.1 0 2 0.9 2 2v28.303c0 1.1-0.9 2-2 2z" fill="#3BFFDE" p-id="1396"></path><path d="M425.724 704.381h-39.738c-1.1 0-2-0.9-2-2v-6.513c0-1.1 0.9-2 2-2h39.738c1.1 0 2 0.9 2 2v6.513c0 1.1-0.9 2-2 2zM430.066 720.104h-44.705a1.38 1.38 0 0 1-1.375-1.375v-0.395a1.38 1.38 0 0 1 1.375-1.375h44.705a1.38 1.38 0 0 1 1.375 1.375v0.395a1.38 1.38 0 0 1-1.375 1.375zM322.005 881.331l39.994 1.201c1.936 0.058 1.93-2.942 0-3l-39.994-1.201c-1.936-0.058-1.93 2.942 0 3zM326 888.5h19c1.935 0 1.935-3 0-3h-19c-1.935 0-1.935 3 0 3zM359.02 890.332l9.981 1.166c1.919 0.224 1.898-2.778 0-3l-9.981-1.166c-1.92-0.225-1.898 2.778 0 3zM318 866.5h51c1.935 0 1.935-3 0-3h-51c-1.935 0-1.935 3 0 3zM324.984 874.97a196.744 196.744 0 0 1 31 1.646c1.913 0.254 1.889-2.75 0-3a196.87 196.87 0 0 0-31-1.646c-1.931 0.05-1.936 3.05 0 3zM322.001 845.429l32.998 0.602c1.936 0.035 1.932-2.965 0-3l-32.998-0.602c-1.935-0.035-1.932 2.965 0 3zM320.5 855.976c10.699-0.129 21.36 0.397 31.994 1.58 1.921 0.214 1.901-2.789 0-3a260.626 260.626 0 0 0-31.994-1.58c-1.934 0.023-1.936 3.023 0 3zM361 857.991a77.54 77.54 0 0 1 14.586 1.041c1.892 0.319 2.702-2.572 0.798-2.893-5.099-0.859-10.212-1.257-15.384-1.148-1.932 0.041-1.936 3.041 0 3zM325.005 825.068a212.08 212.08 0 0 1 35.511 0.793c1.923 0.205 1.903-2.798 0-3a212.186 212.186 0 0 0-35.511-0.793c-1.922 0.118-1.934 3.119 0 3zM324 837h21.5c1.935 0 1.935-3 0-3H324c-1.935 0-1.935 3 0 3zM364 837.5h16c1.935 0 1.935-3 0-3h-16c-1.935 0-1.935 3 0 3zM323.5 807.5H340c1.935 0 1.935-3 0-3h-16.5c-1.935 0-1.935 3 0 3zM324.5 816.5h15c1.935 0 1.935-3 0-3h-15c-1.935 0-1.935 3 0 3zM349.5 816.5h6c1.935 0 1.935-3 0-3h-6c-1.935 0-1.935 3 0 3zM320.006 788.431a248.79 248.79 0 0 0 39.989 0.003c1.915-0.154 1.93-3.155 0-3a248.79 248.79 0 0 1-39.989-0.003c-1.93-0.156-1.915 2.846 0 3zM325.5 799.467c8.203 0.013 16.362 0.507 24.506 1.483 1.918 0.23 1.896-2.773 0-3a208.437 208.437 0 0 0-24.506-1.483c-1.935-0.003-1.935 2.997 0 3zM376.5 910.001c9.686-0.153 19.347 0.187 28.998 1.02 1.928 0.167 1.912-2.835 0-3a284.632 284.632 0 0 0-28.998-1.02c-1.933 0.031-1.936 3.031 0 3zM361.5 847c1.935 0 1.935-3 0-3s-1.935 3 0 3zM360 799c1.935 0 1.935-3 0-3s-1.935 3 0 3zM342.651 896.191a562.917 562.917 0 0 0 62.36 6.028c1.935 0.078 1.928-2.922 0-3a557.732 557.732 0 0 1-72.671-7.734 413.568 413.568 0 0 0 10.311 4.706z" fill="#280D0D" p-id="1397"></path><path d="M324.698 887.785l-0.598-95.316a5 5 0 0 0-5-4.969h-0.032a5 5 0 0 0-4.969 5.031l0.565 90.084a418.089 418.089 0 0 0 10.034 5.17zM219.372 813.099c14.445-96.323 32.654-217.645 41.644-233.501 13.602-23.99 94.336-46.637 119.891-55.176 25.555-8.539 78.226-26.582 78.226-26.582l14.638 1.554c-28.024-18.972-51.596-53.095-70.654-96.652-52.331-16.995-51.041-80.162-45.751-85.387 3.163-3.124 6.072-4.605 8.638-5.115-2.378-0.539-4.388-1.997-5.407-5.097-8.927-27.146-6.46-92.612-2.197-102.182 5.827-13.081 6.798-26.647 9.712-39.729 2.914-13.081-10.663-30.433 11.189-44.242 1.187-0.75 2.326-1.445 3.434-2.107-7.441 3.327-15.494 5.929-28.434 14.106-21.852 13.808-8.276 31.16-11.189 44.241-2.914 13.082-3.885 26.647-9.712 39.729-4.263 9.57-6.731 75.036 2.196 102.182 0.193 0.587 0.432 1.098 0.692 1.572-1.256 3.708-2.565 7.302-3.921 8.641-5.29 5.224-6.58 68.392 45.751 85.387 0.003 0.011-0.001 0.001-0.012-0.027 12.853 29.381 27.763 54.461 44.704 73.506-14.847 5.095-48.403 16.589-67.887 23.099-25.555 8.539-97.654 21.291-111.256 45.281-8.361 14.746-27.586 133.932-43.679 236.363a421.432 421.432 0 0 0 19.384 20.136zM740.909 862.395V792.5c0-2.762-2.238-5-5-5s-5 2.238-5 5v76.295c3.365-2.088 6.7-4.22 10-6.4z" fill="#280D0D" p-id="1398"></path><path d="M510.777 931.369c134.668 0 254.462-63.666 330.939-162.536-25.593-206.88-37.696-213.658-42.888-216.565-11.211-6.278-47.865-15.992-90.307-27.24-48.322-12.806-103.093-27.321-126.109-38.53a4.996 4.996 0 0 0-3.462-0.34l-52.455 13.806-66.834-7.096a5.018 5.018 0 0 0-2.148 0.242c-0.527 0.18-52.946 18.134-78.19 26.57-3.286 1.098-7.52 2.439-12.423 3.994-47.14 14.94-98.421 32.625-110.233 53.458-8.686 15.319-23.383 109.556-41.699 231.627 75.679 75.75 180.272 122.61 295.809 122.61zM265.366 582.063c10.866-19.163 74.145-39.219 104.556-48.857 4.943-1.566 9.211-2.919 12.57-4.042 23.294-7.783 69.661-23.649 77.214-26.235l66.646 7.076a4.966 4.966 0 0 0 1.801-0.137l51.574-13.574c24.732 11.501 78.589 25.774 126.233 38.401 39.939 10.584 77.67 20.583 87.899 26.252 1.682 1.407 7.805 10.76 18.39 71.92 6.078 35.123 12.769 82.219 19.891 140.014-37.688 46.577-85.868 85.065-139.459 111.39-56.868 27.935-118.07 42.099-181.904 42.099-107.284 0-208.771-40.844-286.078-115.076 12.94-86.286 32.197-214.292 40.667-229.231z" fill="#280D0D" p-id="1399"></path><path d="M536.952 930.559V776.597a5 5 0 0 0-7.817-4.131l-4.259 2.904a5.001 5.001 0 0 0-2.182 4.035L519.8 931.034c-0.002 0.078 0.017 0.154 0.019 0.232 5.74-0.122 11.452-0.356 17.133-0.707z" fill="#280D0D" p-id="1400"></path><path d="M519.373 593.122l-30.193 65.117 40.752 218.974 35.484-220.783-19.326-66.113zM538.403 588.15h-19.211c-6.6 0-12-5.4-12-12v-7.547c0-6.6 5.4-12 12-12h19.211c6.6 0 12 5.4 12 12v7.547c0 6.6-5.4 12-12 12z" fill="#3BFFDE" p-id="1401"></path><path d="M538.403 593.088h-19.211c-9.339 0-16.938-7.599-16.938-16.938v-7.547c0-9.339 7.598-16.938 16.938-16.938h19.211c9.339 0 16.938 7.599 16.938 16.938v7.547c0 9.339-7.599 16.938-16.938 16.938z m-19.211-31.547c-3.895 0-7.063 3.168-7.063 7.062v7.547c0 3.895 3.169 7.062 7.063 7.062h19.211a7.07 7.07 0 0 0 7.062-7.062v-7.547a7.07 7.07 0 0 0-7.062-7.062h-19.211z" fill="#280D0D" p-id="1402"></path><path d="M519.373 593.122l-12.181 60.863 16.62 79.885h12.239l16.621-82.474-14.714-58.274z" fill="#3BFFDE" p-id="1403"></path><path d="M536.051 738.808h-12.238a4.939 4.939 0 0 1-4.834-3.932l-16.62-79.885a4.938 4.938 0 0 1-0.008-1.975l12.182-60.863a4.937 4.937 0 0 1 4.841-3.969h18.585a4.938 4.938 0 0 1 4.787 3.729l14.714 58.274c0.181 0.715 0.198 1.462 0.053 2.185l-16.621 82.474a4.942 4.942 0 0 1-4.841 3.962z m-8.223-9.875h4.182l15.601-77.413-13.498-53.46H523.42l-11.189 55.906 15.597 74.967z" fill="#280D0D" p-id="1404"></path><path d="M674.573 312.019c-4.87-5.298-13.357-0.562-18.047 2.787a252.456 252.456 0 0 0-0.697-16.072c-7.338-96.633-46.292-133.502-135.518-133.502-89.227 0-139.128 31.886-139.817 128.705-0.155 21.802 3.548 26.825 8.263 46.665-5.471-17.356-11.377-18.28-11.377-23.937 0 0-8.277-10.901-20.014 0.69-5.29 5.225-6.58 68.392 45.751 85.387 0.003 0.011-0.001 0.001-0.012-0.027 28.817 65.874 67.954 110.19 117.206 113.137 48.477 2.9 97.824-45.058 122.873-117.771 46.65-43.264 38.129-78.729 31.389-86.062z" fill="#FFDBC2" p-id="1405"></path><path d="M524.496 520.977h-0.007c-1.491 0-2.998-0.045-4.478-0.134-24.914-1.49-48.299-13.074-69.506-34.429-18.885-19.017-36.064-45.805-51.079-79.647-32.219-11.491-43.262-39.22-46.988-54.946-3.382-14.274-3.803-32.87 1.414-38.022 4.556-4.499 9.361-6.779 14.284-6.779 3.248 0 5.96 0.988 8.068 2.204-0.493-4.27-0.753-9.176-0.71-15.321 0.346-48.655 12.932-82.818 38.476-104.44 23.235-19.668 58.02-29.229 106.34-29.229 47.249 0 79.647 10.148 101.961 31.937 22.46 21.932 34.707 55.674 38.543 106.187 0.199 2.625 0.358 5.294 0.478 7.992 6.923-2.887 13.005-2.018 16.962 2.288 4.931 5.364 8.561 17.916 5.56 33.865-2.541 13.5-10.914 34.524-36.312 58.39-12.196 34.923-30.021 64.697-51.593 86.168-22.293 22.186-46.988 33.916-71.413 33.916zM407.679 400.695l0.019 0.043c21.187 48.424 57.974 106.836 112.912 110.123 1.281 0.077 2.588 0.116 3.881 0.116 44.567 0.004 90.367-46.02 113.966-114.523a5.028 5.028 0 0 1 1.327-2.038c24.115-22.365 31.91-41.581 34.202-53.764 2.79-14.827-1.404-23.411-3.094-25.249-0.42-0.457-0.909-0.761-1.932-0.761-2.287 0-5.76 1.543-9.527 4.234a5.001 5.001 0 0 1-7.906-4.008 247.999 247.999 0 0 0-0.683-15.754c-3.642-47.946-14.94-79.655-35.559-99.79-20.325-19.847-50.504-29.091-94.975-29.091-45.855 0-78.526 8.787-99.879 26.862-23.185 19.625-34.613 51.315-34.937 96.879-0.109 15.247 1.747 21.872 4.556 31.901 1.07 3.821 2.284 8.152 3.571 13.573a5 5 0 0 1-9.633 2.659c-2.862-9.08-5.757-13.155-7.871-16.13-1.548-2.18-3.027-4.262-3.544-7.104-0.907-0.786-2.496-1.853-4.438-1.853-2.125 0-4.477 1.224-6.995 3.64-1.523 3.281-2.993 20.903 4.459 39.85 5.067 12.882 15.873 29.772 38.608 37.33a4.986 4.986 0 0 1 3.472 2.855z" fill="#280D0D" p-id="1406"></path><path d="M585.515 188.3s0.172 6.218-12.118 11.483c-13.419 5.749-40.015 10.705-55.983 13.74-30.593 5.814-71.363 36.278-86.659 36.278s-38.62 60.32-50.267 60.32c-3.126 0-16.615 6.983-19.891-2.978-8.927-27.146-6.46-92.612-2.197-102.182 5.827-13.081 6.798-26.647 9.712-39.729 2.914-13.081-10.663-30.433 11.189-44.242 21.852-13.808 29.769-11.718 44.337-24.072s29.4-7.267 46.45-9.448 16.753 5.087 40.791 6.541c24.037 1.453 31.418 9.835 39.698 10.538 6.034 0.512 22.58 16.352 34.963 23.619 12.383 7.267 17.846 13.445 23.673 27.253s11.993 3.083-23.698 32.879z" fill="#442C1E" p-id="1407"></path><path d="M368.514 316.5c-5.836 0-9.998-2.879-11.717-8.107-8.985-27.321-7.056-93.822-2.051-105.059 3.932-8.828 5.598-18.208 7.209-27.28 0.681-3.834 1.385-7.799 2.252-11.691 0.746-3.347 0.111-7.442-0.561-11.778-1.663-10.726-3.731-24.076 13.518-34.975 10.408-6.577 17.65-9.607 24.04-12.281 6.984-2.923 12.501-5.231 19.847-11.461 11.4-9.668 23.151-9.7 34.516-9.73 4.547-0.012 9.249-0.025 14.014-0.634 2.301-0.294 4.369-0.438 6.322-0.438 5.873 0 9.772 1.335 13.901 2.749 4.849 1.66 10.345 3.542 21.317 4.205 16.044 0.97 25.028 4.903 31.586 7.776 3.279 1.436 5.87 2.57 8.208 2.769 4.421 0.375 10.226 4.705 20.104 12.326 5.646 4.356 11.486 8.86 16.545 11.83 13.276 7.791 19.195 14.601 25.334 29.147 0.984 2.334 1.977 3.862 2.773 5.091 4.471 6.893 1.472 9.237-8.466 17.004-4.237 3.312-9.972 7.794-18.025 14.491-0.853 3.067-3.844 8.568-14.208 13.008-13.432 5.755-38.689 10.551-55.403 13.725l-1.408 0.268c-15.642 2.973-34.34 12.786-50.838 21.444-15.867 8.327-28.399 14.904-36.568 14.904-5.919 0-17.374 18.842-24.954 31.311-11.221 18.457-17.941 28.93-25.23 29.009-0.403 0.053-1.545 0.38-2.385 0.621-2.594 0.739-6.146 1.756-9.672 1.756zM475.902 91.065c-1.61 0-3.346 0.122-5.307 0.373-5.259 0.672-10.214 0.686-15.007 0.699-10.835 0.029-20.192 0.055-29.363 7.832-8.29 7.03-14.612 9.676-21.933 12.739-6.1 2.552-13.013 5.445-22.854 11.664-12.813 8.097-11.457 16.851-9.886 26.987 0.756 4.878 1.538 9.923 0.464 14.743-0.829 3.723-1.518 7.601-2.184 11.351-1.695 9.545-3.449 19.416-7.779 29.136-3.405 7.646-6.631 72.016 2.343 99.305 0.543 1.651 1.391 2.606 4.117 2.606 2.404 0 5.213-0.804 7.47-1.45 1.885-0.54 3.247-0.929 4.504-0.929 3.533-0.584 12.888-15.972 18.477-25.165 12.91-21.236 22.098-35.155 31.79-35.155 6.197 0 19.144-6.794 32.851-13.988 16.991-8.917 36.25-19.024 53.061-22.219l1.41-0.268c15.377-2.92 41.114-7.808 53.745-13.219 8.753-3.75 9.695-7.661 9.694-7.695l-0.055-1.939 1.489-1.243c8.735-7.292 14.857-12.078 19.328-15.572 3.229-2.524 5.903-4.614 7.059-5.76a67.483 67.483 0 0 0-0.378-0.587c-0.865-1.334-2.173-3.35-3.433-6.334-5.478-12.981-10.209-18.432-22.012-25.358-5.495-3.225-11.539-7.887-17.383-12.395-5.396-4.162-13.55-10.452-15.896-10.689-3.656-0.31-6.938-1.748-10.739-3.412-6.343-2.778-14.237-6.235-28.86-7.119-12.054-0.729-18.359-2.888-23.425-4.622-3.927-1.345-6.767-2.317-11.308-2.317z" fill="#280D0D" p-id="1408"></path><path d="M610.912 153.605c-3.642-10.901 26.222 11.628 26.222 11.628s18.231 17.959 27.679 45.38c3.96 11.493 6.313 0 4.856 33.109-1.278 29.042 2.914 25.702-2.914 45.324s-10.014 26.891-10.134 34.884c0 0-16.089-19.622-14.632-30.523s-4.37-6.541-10.926-21.076-22.58-42.151-33.506-45.058c-10.926-2.907-16.702-14.098-25.873-19.641s42.87-43.126 39.228-54.027z" fill="#442C1E" p-id="1409"></path><path d="M656.622 328.931a4.998 4.998 0 0 1-3.867-1.83c-0.174-0.211-4.286-5.246-8.26-11.732-5.792-9.455-8.232-16.855-7.462-22.624 0.47-3.516 0.35-3.633-1.663-5.59-2.203-2.142-5.532-5.379-8.865-12.768-8.283-18.366-22.973-40.351-30.233-42.282-7.831-2.083-13.312-7.572-18.147-12.414-3.013-3.016-5.857-5.865-9.026-7.78-1.947-1.177-3.17-3.053-3.442-5.282-0.774-6.322 6.373-13.826 20.139-27.643 6.961-6.987 19.853-19.926 20.291-24.059-0.826-2.655-0.589-4.913 0.708-6.713 0.695-0.966 2.314-2.587 5.337-2.587 6.364 0 20.284 9.783 28.015 15.615 0.176 0.132 0.342 0.276 0.498 0.43 0.778 0.767 19.18 19.107 28.897 47.313 0.917 2.663 1.599 3.584 2.32 4.56 3.034 4.102 3.862 6.354 2.804 30.398-0.487 11.07-0.16 17.379 0.079 21.985 0.405 7.814 0.608 11.737-3.195 24.542-2.259 7.606-4.275 13.384-5.896 18.027-2.476 7.094-3.97 11.376-4.032 15.508a5 5 0 0 1-5 4.926z m-80.474-124.353c3.375 2.363 6.253 5.245 9.051 8.047 4.327 4.333 8.414 8.425 13.643 9.816 16.808 4.472 36.584 47.402 36.778 47.834 2.552 5.655 4.863 7.903 6.721 9.709 3.361 3.268 5.659 6.191 4.604 14.085-0.532 3.981 2.896 11.115 7.048 17.648 0.637-1.986 1.384-4.126 2.218-6.516 1.585-4.544 3.559-10.2 5.751-17.581 3.313-11.157 3.162-14.09 2.794-21.177-0.249-4.809-0.591-11.395-0.082-22.943 0.949-21.575 0.193-22.597-0.853-24.012-0.923-1.248-2.317-3.133-3.736-7.249-8.422-24.447-24.233-41.168-26.248-43.232-6.074-4.56-13.407-9.429-18.025-11.849-1.643 7.17-10.295 16.198-22.933 28.883-5.873 5.898-14.409 14.465-16.731 18.537z" fill="#280D0D" p-id="1410"></path><path d="M487.826 452.715s21.103 16.361 35.554 16.392c19.676 0.043 33.656-15.955 34.174-19.108-21.056-4.706-44.356-5.223-69.728 2.716z" fill="#D88971" p-id="1411"></path><path d="M456.667 122.667c6.449 0 6.449-10 0-10s-6.449 10 0 10z" fill="#FFFFFF" p-id="1412"></path><path d="M441.019 121.412c-11.843 5.16-23.405 15.648-29.489 27.064-3.031 5.688 5.601 10.74 8.635 5.047 5.373-10.082 15.466-18.93 25.901-23.476 5.899-2.57 0.803-11.183-5.047-8.635z" fill="#FFFFFF" p-id="1413"></path></svg>