<?xml version="1.0" standalone="no"?><!DOCTYPE svg PUBLIC "-//W3C//DTD SVG 1.1//EN" "http://www.w3.org/Graphics/SVG/1.1/DTD/svg11.dtd"><svg t="1528985998430" class="icon" style="" viewBox="0 0 1024 1024" version="1.1" xmlns="http://www.w3.org/2000/svg" p-id="2844" xmlns:xlink="http://www.w3.org/1999/xlink" width="80" height="80"><defs><style type="text/css"></style></defs><path d="M510.777 513.223m-418.146 0a418.146 418.146 0 1 0 836.292 0 418.146 418.146 0 1 0-836.292 0Z" fill="#FFD7D7" p-id="2845"></path><path d="M455.453 871.942c-0.048 0.036-0.102 0.062-0.151 0.096-0.074 0.052-0.143 0.11-0.221 0.158-0.056 0.035-0.117 0.06-0.174 0.092a5.552 5.552 0 0 1-0.295 0.157 5.384 5.384 0 0 1-0.415 0.177c-0.095 0.036-0.188 0.073-0.284 0.103-0.161 0.05-0.324 0.087-0.489 0.12-0.081 0.016-0.16 0.039-0.242 0.051-0.248 0.038-0.497 0.06-0.747 0.06h-0.001c-0.042 0-0.083-0.006-0.124-0.007-0.146-0.004-0.293-0.008-0.438-0.025-0.129-0.015-0.256-0.041-0.384-0.066-0.058-0.011-0.116-0.017-0.174-0.03-0.14-0.032-0.279-0.077-0.417-0.121-0.043-0.014-0.088-0.023-0.131-0.039a5.02 5.02 0 0 1-0.416-0.175c-0.037-0.017-0.075-0.029-0.111-0.047l-0.01-0.005-0.019-0.008-0.012-0.007-302.995-148.27a4.999 4.999 0 0 1-2.803-4.491v-59.83l-22.219-12.786a48.006 48.006 0 0 1-24.068-42.844l7.599-304.326c-0.778-2.05-0.682-4.533-0.417-6.854 0.386-3.388 1.543-8.49 3.539-13.769-5.494 6.548-27.001 35.516-29.228 90.051-2.555 62.578-8.772 207.655-8.772 207.655s-0.332 33.962 8.29 58.441c8.622 24.48 40.414 40.27 40.414 40.27s-1.68 42.208 6.711 61.903c8.39 19.694 316.084 164.743 326.187 163.734 10.103-1.009 397.024-314.53 397.024-314.53s8.043-8.681 11.118-21.605L455.453 871.942z" fill="#280D0D" p-id="2846"></path><path d="M580.162 363.395s-12.566-4.76-31.288 13.41-310.283 186.067-327.207 204.064-72.605 72.185-72.266 76.075c0.339 3.89 296.95 146.115 303.035 141.779 14.642-10.434 340.167-237.189 358.943-257.711 20.656-22.576 55.967-58.086 55.967-58.086s-20.497-14.519-20.835-13.233-266.349-106.298-266.349-106.298z" fill="#FF76C4" p-id="2847"></path><path d="M451.966 803.819c-1.987 0-6.123 0-55.372-22.065-26.871-12.04-63.574-29.058-103.349-47.917-36.439-17.278-73.135-35.002-100.679-48.627-47.782-23.636-47.831-24.194-48.148-27.832-0.341-3.931 1.521-6.927 48.778-54.598 10.018-10.105 19.479-19.649 24.827-25.336 8.557-9.099 73.315-48.32 171.135-107.118 72.551-43.61 147.572-88.704 156.232-97.109 13.103-12.716 23.859-15.385 30.576-15.385 3.362 0 5.416 0.679 5.966 0.887 0.035 0.013 0.069 0.026 0.104 0.041C682.59 399.426 833.627 460.177 846.84 464.613c1.612 0.019 4.046 0.527 23.395 14.233a5 5 0 0 1 0.655 7.605c-0.353 0.354-35.476 35.696-55.824 57.936-11.17 12.209-121.79 91.792-338.182 243.296-11.79 8.255-19.579 13.709-21.549 15.112-0.953 0.68-2.087 1.024-3.369 1.024zM156.331 655.498c14.758 8.211 71.601 36.335 144.036 70.648 92.193 43.672 141.195 64.963 150.658 67.448 3.247-2.287 10.299-7.225 20.124-14.104 212.789-148.98 326.017-230.352 336.539-241.853 16.294-17.809 41.935-43.897 51.93-54.014-5.839-4.034-11.62-7.854-13.763-8.975-2.635-0.491-15.955-5.351-135.692-53.46a70975.041 70975.041 0 0 1-131.707-53.091c-0.225-0.061-1.088-0.266-2.489-0.266-3.984 0-12.351 1.632-23.611 12.561-9.486 9.207-78.33 50.589-158.046 98.504-75.35 45.292-160.752 96.626-169.001 105.398-5.438 5.782-14.945 15.372-25.01 25.525-15.063 15.195-36.761 37.082-43.968 45.679z m694.995-184.467z" fill="#280D0D" p-id="2848"></path><path d="M428.621 756.116l-206.84-92.458c-6.782-2.707-8.69-8.719-4.261-13.429l357.542-253.143c4.429-4.71 13.517-6.333 20.3-3.626l214.551 82.751c6.782 2.707 8.69 8.719 4.261 13.429L448.921 752.49c-4.429 4.71-13.517 6.333-20.3 3.626z" fill="#7A9AF4" p-id="2849"></path><path d="M435.793 762.426c-3.174 0-6.295-0.576-9.025-1.666a4.971 4.971 0 0 1-0.187-0.079l-206.755-92.42c-5.02-2.032-8.45-5.697-9.419-10.067-0.878-3.959 0.387-8.11 3.47-11.389 0.229-0.243 0.481-0.462 0.753-0.655L571.8 393.27c3.861-3.841 9.938-6.119 16.39-6.119 3.174 0 6.295 0.576 9.025 1.666l214.496 82.729c5.13 2.047 8.6 5.731 9.575 10.131 0.878 3.959-0.387 8.109-3.47 11.388a5.06 5.06 0 0 1-0.722 0.634L452.197 756.293c-3.86 3.849-9.945 6.133-16.404 6.133z m-5.231-10.919c1.544 0.602 3.351 0.919 5.231 0.919 3.842 0 7.565-1.319 9.485-3.361 0.22-0.233 0.462-0.445 0.722-0.633l364.803-262.526c0.469-0.574 0.885-1.323 0.721-2.063-0.188-0.851-1.198-2.082-3.465-2.987l-214.496-82.729c-1.617-0.646-3.457-0.975-5.373-0.975-3.842 0-7.565 1.319-9.485 3.361a5.012 5.012 0 0 1-0.754 0.656l-357.07 252.81c-0.465 0.572-0.873 1.316-0.71 2.051 0.188 0.851 1.198 2.082 3.464 2.985 0.063 0.025 0.126 0.052 0.188 0.08l206.739 92.412z" fill="#280D0D" p-id="2850"></path><path d="M452.435 798.723v69.233l-303.037-148.29v-62.722z" fill="#F240AE" p-id="2851"></path><path d="M452.435 872.956c-0.75 0-1.502-0.169-2.197-0.509l-303.036-148.29a4.999 4.999 0 0 1-2.803-4.491v-62.722a5.002 5.002 0 0 1 7.119-4.53l303.036 141.778a5.002 5.002 0 0 1 2.881 4.529v69.233c0 1.726-0.89 3.329-2.354 4.242a4.987 4.987 0 0 1-2.646 0.76z m-298.037-156.41l293.036 143.396v-58.039l-293.036-137.1v51.743z" fill="#280D0D" p-id="2852"></path><path d="M452.435 798.723l414.91-315.798-2.628 72.845-412.282 312.186z" fill="#FF76C4" p-id="2853"></path><path d="M452.434 872.956a5 5 0 0 1-4.999-5v-69.233c0-1.562 0.729-3.033 1.972-3.979l414.91-315.797a5.002 5.002 0 0 1 8.025 4.159l-2.628 72.845a5.005 5.005 0 0 1-1.979 3.806L455.453 871.942a5.003 5.003 0 0 1-3.019 1.014z m5.001-71.756v56.698l402.371-304.681 2.161-59.915L457.435 801.2z" fill="#280D0D" p-id="2854"></path><path d="M149.398 656.944V300.363s148.447-79.266 197.929-102.839c55.811-26.587 223.243-97.8 223.243-97.8v263.107L149.398 656.944z" fill="#7A9AF4" p-id="2855"></path><path d="M149.398 661.944a5 5 0 0 1-5-5V300.363a4.999 4.999 0 0 1 2.645-4.41c1.485-0.794 149.115-79.59 198.134-102.942 55.267-26.328 221.761-97.175 223.436-97.888a5.002 5.002 0 0 1 6.957 4.602v263.107a5 5 0 0 1-2.138 4.1L152.261 661.044c-0.855 0.597-1.857 0.9-2.863 0.9z m5-358.581v343.991l411.171-287.129V107.29c-32.256 13.76-167.486 71.594-216.092 94.748-45.188 21.527-174.883 90.561-195.079 101.325z" fill="#280D0D" p-id="2856"></path><path d="M567.377 93.583s-23.369-13.399-73.869 6.142c-44.186 17.098-146.388 57.948-170.504 68.707-53.463 23.852-196.756 95.408-196.756 95.408-12.181 5.748-18.192 32.692-15.505 34.81l36.435-0.037a4.55 4.55 0 0 0 4.773 0.535s138.927-74.327 190.935-99.103c50.028-23.832 225.09-98.012 225.09-98.012 3.735-1.78 3.349-7.216-0.599-8.45z" fill="#7A9AF4" p-id="2857"></path><path d="M149.995 304.59a9.59 9.59 0 0 1-4.201-0.977l-35.046 0.036h-0.005a5 5 0 0 1-3.095-1.073c-2.782-2.192-2.752-6.058-2.354-9.549 0.973-8.547 6.838-28.004 18.766-33.684 3.212-1.604 144.296-72.006 196.907-95.479 23.385-10.433 125.009-51.108 170.736-68.804 18.794-7.272 36.121-10.96 51.499-10.96 15.553 0 24.032 3.778 26.189 4.889a9.486 9.486 0 0 1 6.153 8.258 9.494 9.494 0 0 1-5.617 9.388c-1.75 0.741-175.534 74.409-224.891 97.922-51.309 24.443-189.339 98.256-190.728 98.999a9.579 9.579 0 0 1-4.313 1.034z m-2.817-10.978c1.021 0 2.017 0.312 2.852 0.893 8.663-4.631 140.639-75.123 190.707-98.975 47.433-22.597 208.878-91.141 224.143-97.615-0.319-0.167-7.438-3.813-21.677-3.813-14.14 0-30.252 3.461-47.89 10.286-45.643 17.662-147.004 58.229-170.271 68.61-52.753 23.535-195.127 94.6-196.56 95.315-0.033 0.017-0.066 0.032-0.1 0.048-7.281 3.437-12.114 18.39-13.104 25.283l31.896-0.032h0.004z" fill="#280D0D" p-id="2858"></path><path d="M149.398 656.944l-24.724-14.227a43.047 43.047 0 0 1-21.564-38.385l7.632-305.683c0.29-11.629 13.727-17.94 22.862-10.738l15.794 12.452v356.581z" fill="#3A4ABA" p-id="2859"></path><path d="M149.398 661.944a5 5 0 0 1-2.494-0.666l-24.724-14.227a48.006 48.006 0 0 1-24.068-42.844l7.633-305.684c0.261-10.469 8.686-18.669 19.179-18.669 4.277 0 8.35 1.429 11.776 4.13l15.794 12.451a5.003 5.003 0 0 1 1.904 3.927v356.581a4.997 4.997 0 0 1-2.497 4.328 4.973 4.973 0 0 1-2.503 0.673z m-24.474-372.089c-4.404 0-9.043 3.336-9.183 8.919l-7.633 305.684a38.015 38.015 0 0 0 19.061 33.926l17.229 9.915V302.788l-13.89-10.949c-1.645-1.298-3.575-1.984-5.584-1.984z" fill="#280D0D" p-id="2860"></path><path d="M238.775 582.057s17.952 5.557 16.243 20.09c0 0 263.619-183.438 264.266-183.438 0.647 0 4.044-26.786-19.345-17.458L238.775 582.057z" fill="#3BFFDE" p-id="2861"></path><path d="M255.018 607.084a4.936 4.936 0 0 1-4.903-5.515c1.216-10.335-12.658-14.753-12.799-14.796a4.94 4.94 0 0 1-1.351-8.777L497.129 397.19a4.93 4.93 0 0 1 0.981-0.526c3.866-1.542 7.42-2.323 10.563-2.323 5.938 0 10.714 2.798 13.448 7.879 2.185 4.062 2.644 8.729 2.644 11.93 0 2.435 0 7.67-3.449 9.117-10.956 7.301-176.02 122.073-263.479 182.932a4.932 4.932 0 0 1-2.819 0.885z m-6.507-25.762c0.659 0.423 1.326 0.883 1.989 1.38 4.109 3.082 6.932 6.708 8.396 10.731 18.373-12.783 71.757-49.922 125.194-87.06 32.994-22.932 66.009-45.862 90.815-63.061a17306.753 17306.753 0 0 1 30.033-20.786c4.947-3.413 7.966-5.496 9.906-6.767 0.185-2.561-0.062-7.314-2.034-9.807-0.64-0.81-1.688-1.738-4.138-1.738-1.766 0-3.917 0.479-6.4 1.424L248.511 581.322z m269.628-167.416a4.903 4.903 0 0 0-2.067 1.07c1.01-0.625 1.607-0.925 2.067-1.07z" fill="#280D0D" p-id="2862"></path><path d="M174.459 311.224v282.321l367.854-249.503V145.075z" fill="#FFF6EE" p-id="2863"></path><path d="M174.459 598.545a4.998 4.998 0 0 1-5-5v-282.32a5.001 5.001 0 0 1 2.941-4.557l367.854-166.149a5.001 5.001 0 0 1 7.059 4.556v198.967a5 5 0 0 1-2.193 4.138L177.266 597.683a5.001 5.001 0 0 1-2.807 0.862z m5-284.093v269.66l357.854-242.721V152.82L179.459 314.452z" fill="#280D0D" p-id="2864"></path><path d="M376.01 226.71l-26.956 241.966 47.682-31.606 26.593-232.498zM430.932 201.31l-25.77 229.542 9.362-6.217 26.589-228.088z" fill="#FFFFFF" p-id="2865"></path><path d="M659.888 605.67a4.997 4.997 0 0 1-1.952-0.398l-226.273-96.054a5 5 0 1 1 3.909-9.205l226.273 96.054a5 5 0 0 1-1.957 9.603z" fill="#280D0D" p-id="2866"></path><path d="M267.106 673.532l142.795 64.136a23.287 23.287 0 0 0 23.467-2.576l151.008-112.359c14.799-11.012 11.918-34.158-5.119-41.123l-140.895-57.595a23.28 23.28 0 0 0-22.08 2.42L263.375 632.253c-15.167 10.496-13.066 33.734 3.731 41.279z" fill="#3A4ABA" p-id="2867"></path><path d="M272.608 675.379l137.503 60.277c7.427 3.256 16.053 2.331 22.598-2.421l145.412-105.597c14.251-10.349 11.476-32.103-4.929-38.648l-135.674-54.129a22.889 22.889 0 0 0-21.262 2.274l-147.241 99.449c-14.604 9.864-12.581 31.705 3.593 38.795zM477.971 491.705l103.118-74.417a12.438 12.438 0 0 1 11.456-1.63l176.458 62.905c9.402 3.352 11.225 15.856 3.171 21.753l-108.457 79.406a12.44 12.44 0 0 1-11.935 1.526l-171.12-67.895c-9.129-3.622-10.655-15.901-2.691-21.648z" fill="#FFD7D7" p-id="2868"></path><path d="M483.303 484.135l98.945-71.405a11.935 11.935 0 0 1 10.992-1.564l173.282 61.323c9.022 3.216 10.771 15.214 3.043 20.873L661.533 568.59a11.933 11.933 0 0 1-11.452 1.464l-164.194-65.147c-8.762-3.476-10.226-15.257-2.584-20.772z" fill="#FFF6EE" p-id="2869"></path><path d="M541.466 757.61c6.449 0 6.449-10 0-10s-6.449 10 0 10zM558.148 744.032c22.781-16.408 46.233-31.921 68.506-49.025 5.039-3.87 0.069-12.563-5.047-8.635-22.273 17.104-45.726 32.617-68.506 49.025-5.181 3.731-0.197 12.412 5.047 8.635z" fill="#FFFFFF" p-id="2870"></path><path d="M150.623 714.982a306.438 306.438 0 0 0 23.701 2.958c1.929 0.164 1.913-2.837 0-3a296.274 296.274 0 0 1-22.904-2.851c-1.891-0.311-2.702 2.58-0.797 2.893zM151.016 707.205l29.322 1.55c1.934 0.102 1.924-2.898 0-3l-29.322-1.55c-1.935-0.102-1.925 2.899 0 3zM156.941 721.073a284.644 284.644 0 0 0 32.063 2.968c1.936 0.068 1.929-2.932 0-3a277.777 277.777 0 0 1-31.266-2.861c-1.891-0.283-2.705 2.608-0.797 2.893zM197 725.167h4.333c1.935 0 1.935-3 0-3H197c-1.935 0-1.935 3 0 3zM179.67 718.218l5.332-0.353c1.92-0.127 1.932-3.128 0-3l-5.332 0.353c-1.92 0.127-1.932 3.128 0 3zM154 699.833h5.333c1.935 0 1.935-3 0-3H154c-1.935 0-1.935 3 0 3zM164.002 700.108a195.81 195.81 0 0 1 15.323 1.135c1.921 0.218 1.899-2.784 0-3a196.749 196.749 0 0 0-15.323-1.135c-1.936-0.067-1.929 2.933 0 3zM152.664 691.1l13.668-0.632c1.926-0.089 1.935-3.089 0-3l-13.668 0.632c-1.927 0.089-1.935 3.089 0 3zM152.927 680.154c2.894 0.521 5.799 0.763 8.74 0.68 1.93-0.055 1.936-3.055 0-3a38.424 38.424 0 0 1-7.942-0.573c-1.892-0.34-2.7 2.55-0.798 2.893zM152.666 672.808l10.665-0.389c1.929-0.07 1.935-3.071 0-3l-10.665 0.389c-1.929 0.07-1.936 3.07 0 3zM167.333 682.167h14c1.935 0 1.935-3 0-3h-14c-1.934 0-1.934 3 0 3zM173.057 689.728c2.081-0.306 4.178-0.349 6.274-0.206 1.932 0.132 1.919-2.869 0-3-2.378-0.163-4.716-0.033-7.072 0.313-1.908 0.28-1.093 3.171 0.798 2.893zM184.667 700.833c1.935 0 1.935-3 0-3s-1.935 3 0 3zM184.002 732.867c6.813-0.259 13.575 0.057 20.334 0.949 1.914 0.253 1.889-2.751 0-3a120.088 120.088 0 0 0-20.334-0.949c-1.929 0.073-1.936 3.073 0 3zM210 734.167h0.333c1.935 0 1.935-3 0-3H210c-1.935 0-1.935 3 0 3zM199.999 740.865l39.999 1.689c1.935 0.082 1.927-2.919 0-3l-39.999-1.689c-1.935-0.081-1.928 2.919 0 3zM218.334 749.464c13.668 0.168 27.336 0.096 41.001-0.215 1.931-0.044 1.936-3.044 0-3-13.666 0.311-27.333 0.383-41.001 0.215-1.936-0.023-1.933 2.977 0 3zM249.667 741.833c1.935 0 1.935-3 0-3s-1.935 3 0 3zM219.002 734.105l11 0.33c1.936 0.058 1.93-2.942 0-3l-11-0.33c-1.936-0.058-1.93 2.942 0 3zM236.333 758.5h11.333c1.935 0 1.935-3 0-3h-11.333c-1.934 0-1.934 3 0 3zM255.334 758.815c8.781 0.126 17.558 0.028 26.334-0.293 1.929-0.071 1.935-3.071 0-3-8.776 0.322-17.553 0.419-26.334 0.293-1.936-0.028-1.933 2.972 0 3zM257.668 768.095l15.665 0.396c1.936 0.049 1.931-2.951 0-3l-15.665-0.396c-1.935-0.049-1.931 2.951 0 3zM277.668 768.445l15.665 0.4c1.936 0.049 1.931-2.951 0-3l-15.665-0.4c-1.936-0.05-1.931 2.951 0 3zM277.333 778.018a470.703 470.703 0 0 0 47.009-2.43c1.905-0.194 1.924-3.196 0-3a470.703 470.703 0 0 1-47.009 2.43c-1.934 0.003-1.934 3.003 0 3zM295.333 786.121l25.333-0.374c1.933-0.029 1.936-3.029 0-3l-25.333 0.374c-1.933 0.028-1.936 3.028 0 3zM327.337 786.192c1.226-0.147 2.414-0.102 3.613 0.195 1.878 0.466 2.675-2.427 0.798-2.893-1.448-0.359-2.929-0.48-4.411-0.302-0.812 0.097-1.5 0.609-1.5 1.5 0 0.744 0.686 1.598 1.5 1.5zM312.994 796.644l33.335 1.278c1.935 0.074 1.928-2.926 0-3l-33.335-1.278c-1.935-0.074-1.928 2.926 0 3zM353 797.835c3.44-0.073 6.864 0.103 10.271 0.589 1.891 0.27 2.706-2.621 0.798-2.893-3.678-0.524-7.353-0.775-11.069-0.696-1.932 0.041-1.936 3.041 0 3zM334.67 806.208l13.339-0.92c1.919-0.132 1.932-3.133 0-3l-13.339 0.92c-1.919 0.133-1.932 3.133 0 3zM344.333 812.167h12c1.935 0 1.935-3 0-3h-12c-1.934 0-1.934 3 0 3zM362.333 812.5c1.935 0 1.935-3 0-3s-1.934 3 0 3zM342.667 786.5c1.935 0 1.935-3 0-3s-1.935 3 0 3zM365.988 823.357l35.029-2.991c1.913-0.163 1.929-3.165 0-3l-35.029 2.991c-1.913 0.164-1.929 3.165 0 3zM373.318 811.537l44.021-2.259c1.925-0.099 1.934-3.099 0-3l-44.021 2.259c-1.925 0.099-1.934 3.099 0 3zM408.379 820.052a26.984 26.984 0 0 1 6.621-1.221c1.923-0.107 1.934-3.107 0-3a30.33 30.33 0 0 0-7.419 1.328c-1.839 0.577-1.053 3.473 0.798 2.893zM385.331 832.441a208.235 208.235 0 0 0 27.417-3.249c1.9-0.354 1.093-3.245-0.798-2.893a202.136 202.136 0 0 1-26.619 3.142c-1.925 0.099-1.935 3.1 0 3zM419 827.833c1.935 0 1.935-3 0-3s-1.935 3 0 3zM399 838.824a79.29 79.29 0 0 0 12.01-0.583c1.893-0.236 1.916-3.239 0-3a79.413 79.413 0 0 1-12.01 0.583c-1.935-0.052-1.93 2.948 0 3zM410 843.847a46.377 46.377 0 0 0 10.063-1.407c1.874-0.476 1.079-3.369-0.798-2.893a42.632 42.632 0 0 1-9.266 1.3c-1.929 0.057-1.934 3.057 0.001 3zM419.339 848.593l11.992-0.785c1.92-0.126 1.932-3.127 0-3l-11.992 0.785c-1.92 0.126-1.932 3.126 0 3zM435.003 855.863l3.995-0.386c0.814-0.079 1.5-0.623 1.5-1.5 0-0.758-0.685-1.579-1.5-1.5l-3.995 0.386c-0.814 0.079-1.5 0.623-1.5 1.5 0 0.758 0.685 1.579 1.5 1.5zM443.333 853.167c1.935 0 1.935-3 0-3s-1.934 3 0 3zM109.004 622.586a196.69 196.69 0 0 0 21.717-2.21c1.907-0.3 1.094-3.191-0.798-2.893a189.35 189.35 0 0 1-20.92 2.102c-1.926 0.088-1.934 3.089 0.001 3.001zM107.009 612.003l13.333-0.679c1.925-0.098 1.934-3.098 0-3l-13.333 0.679c-1.925 0.098-1.935 3.099 0 3zM127 611.167h3.333c1.935 0 1.935-3 0-3H127c-1.935 0-1.935 3 0 3zM109.669 603.195l11.324-0.802c1.918-0.136 1.932-3.137 0-3l-11.324 0.802c-1.919 0.136-1.932 3.137 0 3zM131 601.167c1.935 0 1.935-3 0-3s-1.935 3 0 3zM108.333 594.5H115c1.935 0 1.935-3 0-3h-6.667c-1.934 0-1.934 3 0 3zM123.01 593.907l6.642-0.859c1.891-0.245 1.915-3.248 0-3l-6.642 0.859c-1.891 0.245-1.915 3.248 0 3zM106.333 584.5h10c1.935 0 1.935-3 0-3h-10c-1.934 0-1.934 3 0 3zM120.333 580.5h4c1.935 0 1.935-3 0-3h-4c-1.934 0-1.934 3 0 3zM110.333 570.5H117c1.935 0 1.935-3 0-3h-6.667c-1.934 0-1.934 3 0 3zM104.598 560.802c3.9 0.56 7.795 0.811 11.735 0.691 1.93-0.059 1.936-3.059 0-3-3.663 0.111-7.309-0.063-10.938-0.584-1.891-0.271-2.706 2.619-0.797 2.893zM104.008 550.063l9.995 0.736c1.931 0.142 1.917-2.859 0-3l-9.995-0.736c-1.931-0.142-1.918 2.859 0 3zM108.667 528.5h3.667c1.935 0 1.935-3 0-3h-3.667c-1.935 0-1.935 3 0 3zM108.667 537.167h3.667c1.935 0 1.935-3 0-3h-3.667c-1.935 0-1.935 3 0 3zM113.333 512.5c1.935 0 1.935-3 0-3-1.934 0-1.934 3 0 3zM118.667 530.167c1.935 0 1.935-3 0-3s-1.935 3 0 3zM115.001 629.804c10.552 0.417 21.107 0.567 31.667 0.451 1.933-0.021 1.935-3.021 0-3a627.315 627.315 0 0 1-31.667-0.451c-1.935-0.077-1.928 2.923 0 3zM124.718 639.359c2.635-0.395 5.285-0.554 7.948-0.531 1.935 0.017 1.934-2.983 0-3-2.937-0.026-5.842 0.203-8.746 0.638-1.907 0.286-1.093 3.177 0.798 2.893zM137.667 640.167H140c1.935 0 1.935-3 0-3h-2.333c-1.935 0-1.935 3 0 3zM137.667 645.833h3c1.935 0 1.935-3 0-3h-3c-1.935 0-1.935 3 0 3zM109.016 500.64l7.314-0.833c1.899-0.216 1.92-3.219 0-3l-7.314 0.833c-1.899 0.216-1.92 3.219 0 3zM107.667 491.833h8.667c1.935 0 1.935-3 0-3h-8.667c-1.935 0-1.935 3 0 3zM109.454 474.751l7.333-1.336c1.901-0.346 1.093-3.237-0.798-2.893l-7.333 1.336c-1.901 0.347-1.093 3.238 0.798 2.893z" fill="#280D0D" p-id="2871"></path><path d="M126.333 472.5c1.935 0 1.935-3 0-3s-1.934 3 0 3z" fill="#280D0D" p-id="2872"></path><path d="M115 460.5c1.935 0 1.935-3 0-3s-1.935 3 0 3z" fill="#280D0D" p-id="2873"></path></svg>