<?xml version="1.0" standalone="no"?><!DOCTYPE svg PUBLIC "-//W3C//DTD SVG 1.1//EN" "http://www.w3.org/Graphics/SVG/1.1/DTD/svg11.dtd"><svg t="1528985522880" class="icon" style="" viewBox="0 0 1024 1024" version="1.1" xmlns="http://www.w3.org/2000/svg" p-id="1676" xmlns:xlink="http://www.w3.org/1999/xlink" width="80" height="80"><defs><style type="text/css"></style></defs><path d="M510.777 513.223m-418.146 0a418.146 418.146 0 1 0 836.292 0 418.146 418.146 0 1 0-836.292 0Z" fill="#FFD7D7" p-id="1677"></path><path d="M143.037 391.484s5.965 373.426 9.307 386.793c3.342 13.367 381.295 110.175 383.592 98.586 5.134-25.904-0.252-391.812-0.252-396.824 0-5.013-392.647-88.555-392.647-88.555z" fill="#45F2FF" p-id="1678"></path><path d="M532.146 882.823h-0.032c-21.435-0.001-121.238-23.434-204.896-45.205-46.89-12.202-89.954-24.164-121.259-33.683-56.661-17.227-57.578-20.896-58.466-24.446-3.384-13.533-8.845-349.645-9.456-387.925a4.997 4.997 0 0 1 6.039-4.97c0.982 0.209 99.3 21.135 196.354 42.404 57.013 12.494 102.444 22.661 135.031 30.219 19.376 4.493 34.381 8.105 44.597 10.735 5.546 1.428 9.815 2.602 12.689 3.487 4.081 1.26 7.936 2.448 7.936 6.599 0 0.462 0.057 4.768 0.142 11.284 2.164 165.439 3.924 366.79 0.015 386.512-0.984 4.962-6.747 4.989-8.694 4.989z m-375.113-106.82c8.854 5.938 71.702 25.791 178.493 53.44 97.399 25.218 177.438 42.927 195.908 43.371 1.596-16.622 3.185-91.413-0.608-381.361a9091.03 9091.03 0 0 1-0.106-8.207c-25.882-8.511-237.451-54.653-382.583-85.564 2.346 145.576 6.519 358.481 8.896 378.321z" fill="#280D0D" p-id="1679"></path><path d="M535.935 876.863s218.628-162.071 225.312-168.755c6.683-6.683 0-383.458 0-383.458S539.306 467.84 535.684 480.039c-4.359 14.677 0.251 396.824 0.251 396.824z" fill="#3BFFDE" p-id="1680"></path><path d="M535.935 881.862a5 5 0 0 1-4.999-4.94c-0.473-39.192-4.491-383.336-0.045-398.308 1.039-3.5 2.779-9.356 116.158-85.004 55.33-36.917 110.933-72.805 111.487-73.162a5 5 0 0 1 7.71 4.112c0.017 0.942 1.681 95.303 2.507 189.268 0.485 55.203 0.591 99.476 0.313 131.588-0.54 62.482-2.192 64.135-4.284 66.227-6.75 6.749-203.461 152.624-225.869 169.235a4.998 4.998 0 0 1-2.978 0.984z m4.469-400.06c-2.851 15.271-1.358 234.345 0.414 385.216 84.742-62.846 204.683-152.187 216.188-161.828 3.97-18.585 1.883-227.729-0.602-371.459-82.507 53.372-207.493 136.425-216 148.071z" fill="#280D0D" p-id="1681"></path><path d="M104.873 381.459l247.284-140.962 437.494 84.154-225.563 155.388z" fill="#3BFFDE" p-id="1682"></path><path d="M564.088 485.038c-0.35 0-0.701-0.037-1.05-0.111l-459.215-98.579a4.998 4.998 0 1 1-1.427-9.232L349.68 236.154a4.984 4.984 0 0 1 3.421-0.566l437.494 84.153a5 5 0 0 1 1.892 9.028L566.925 484.155a5 5 0 0 1-2.837 0.883z m-445.363-105.72l444.304 95.378 213.955-147.391-423.956-81.55-234.303 133.563z" fill="#280D0D" p-id="1683"></path><path d="M564.088 480.039v76.858l225.563-164.42v-67.826z" fill="#3BFFDE" p-id="1684"></path><path d="M564.087 561.897a5 5 0 0 1-4.999-5v-76.859c0-1.645 0.809-3.185 2.163-4.117l225.563-155.388a4.996 4.996 0 0 1 5.162-0.309 4.998 4.998 0 0 1 2.675 4.426v67.827c0 1.598-0.764 3.1-2.055 4.04l-225.563 164.42a4.995 4.995 0 0 1-2.946 0.96z m5.001-79.232v64.4l215.563-157.131v-55.769l-215.563 148.5z" fill="#280D0D" p-id="1685"></path><path d="M564.088 480.039l-459.215-98.58v78.078l459.215 97.36z" fill="#45F2FF" p-id="1686"></path><path d="M564.088 561.897c-0.346 0-0.692-0.036-1.037-0.108l-459.215-97.36a5 5 0 0 1-3.963-4.892v-78.078a5.002 5.002 0 0 1 6.049-4.889l459.215 98.579a5 5 0 0 1 3.95 4.889v76.859a5 5 0 0 1-4.999 5zM109.873 455.486l449.215 95.24v-66.647l-449.215-96.433v67.84z" fill="#280D0D" p-id="1687"></path><path d="M538.913 880.878a4.998 4.998 0 0 1-5.199 0.463 4.996 4.996 0 0 1-2.68-3.539c-44.403-1.443-375.563-87.017-378.69-99.525-2.336-9.342-5.952-194.552-7.919-305.242l-40.589-8.605a5 5 0 0 1-3.963-4.892v-73.329c-6.015 5.982-15.316 16.214-15.316 22.305v53.487s2.935 10.995 8.074 18.502C97.771 488.009 112 502 112 502l5 275s-1.225 23.436 10.791 27.715c12.017 4.278 375.686 105.677 375.686 105.677s33.836 6.22 55.682-5.795c21.845-12.014 194.364-168.42 194.364-168.42s8.254-11.069 9.031-22.644c-22.905 18.491-202.302 151.527-223.641 167.345z" fill="#280D0D" p-id="1688"></path><path d="M376.627 356.396s-71.011 42.606-73.517 84.377 0 347.535 0 347.535 2.176 38.56 31.371 46.024L205.312 798.51V440.774s-14.593-62.656 71.9-107.769l99.415 23.391z" fill="#FF76C4" p-id="1689"></path><path d="M333.242 839.177a40.925 40.925 0 0 1-1.57-0.434l-131.36-36.431V441.285c-0.639-3.289-3.036-18.813 3.776-39.072 6.828-20.308 24.656-49.568 70.812-73.642l1.648-0.859 113.201 26.636-10.549 6.336c-0.688 0.413-68.78 41.74-71.099 80.39-2.447 40.771-0.059 338.942 0.008 347.049 0.071 0.98 0.769 9.316 4.29 18.312 4.729 12.083 12.146 19.72 22.043 22.699l1.374 0.381-2.574 9.662z m-122.93-44.468l99.062 27.473c-10.024-14.519-11.192-32.477-11.256-33.592l-0.008-0.24c-0.103-12.492-2.479-306.411 0.009-347.876 2.065-34.429 45.759-68.103 65.956-81.894l-86.188-20.279c-80.297 42.746-67.843 100.754-67.706 101.339l0.13 0.56v354.509h0.001z" fill="#280D0D" p-id="1690"></path><path d="M234.917 800.096l-4.605-362.709-0.597-2.092c-0.656-4.049 15.064-63.721 71.464-96.651l31.795 5.276c-25.981 24.101-53.449 72.537-54.818 95.356-2.529 42.137-0.146 336.718-0.044 349.237l0.005 0.602 0.034 0.602c0.057 1 4.743 22.638 4.85 23.714l-48.084-13.335z" fill="#EA18A4" p-id="1691"></path><path d="M656.55 483.311l70.706-51.54c-0.08-12.381-0.196-20.493-0.36-22.534-0.636-7.925-4.542-17.754-13.379-26.068l-59.811 41.203c2.837 8.338 3.375 21.228 3.037 42.509-0.077 4.901-0.141 10.416-0.193 16.43zM648.583 415.759l56.576-38.975c-6.054-3.759-13.554-6.862-22.754-8.818-31.694-6.741-274.411-65.558-274.411-65.558l-44.81 42.502 252.297 58.479c16.788 4.331 27.017 6.3 33.102 12.37zM656.461 495.75c-0.371 65.253 0.283 174.203 0.283 242.433 0 52.631-18.401 52.947-27.856 63.388 23.103-17.225 98.008-70.38 98.008-70.38s0.753-203.363 0.422-287.091l-70.857 51.65z" fill="#25EFC8" p-id="1692"></path><path d="M383.31 333.005l252.297 58.479c37.019 9.55 42.15 7.615 41.263 63.492-0.893 56.234 0 191.574 0 271.302 0 52.631-18.401 56.09-27.856 66.531 23.103-17.225 98.008-73.523 98.008-73.523s1.139-307.751 0-321.954c-1.139-14.202-12.762-34.523-44.492-41.271-31.694-6.741-274.411-65.558-274.411-65.558l-44.809 42.502z" fill="#FF76C4" p-id="1693"></path><path d="M652.002 796.817l-6.694-7.365c1.968-2.173 4.134-3.963 6.426-5.858 8.972-7.416 20.136-16.646 20.136-57.315 0-25.476-0.091-56.369-0.187-89.077-0.197-67.496-0.421-143.997 0.188-182.305 0.378-23.777-0.265-38-4.734-45.052-3.778-5.963-11.003-8.001-26.984-12.043-1.82-0.461-3.73-0.944-5.733-1.46l-261.295-60.565 53.529-50.773 2.645 0.641c2.427 0.588 243.011 58.878 274.273 65.526 33.615 7.149 47.101 29.12 48.436 45.763 1.143 14.247 0.062 309.798 0.016 322.372l-0.009 2.485-1.987 1.493c-0.752 0.562-75.179 56.5-98.026 73.533zM393.498 330.233l243.358 56.409c2.009 0.519 3.923 1.003 5.747 1.464 16.78 4.245 26.909 6.807 32.979 16.386 5.881 9.279 6.712 23.698 6.285 50.562-0.606 38.214-0.383 114.665-0.186 182.117 0.096 32.716 0.187 63.616 0.187 89.106 0 17.872-2.13 30.466-5.326 39.675a95927.555 95927.555 0 0 0 65.487-49.171c0.393-107.033 0.889-308.067 0.007-319.05-1.06-13.215-12.314-30.777-40.547-36.781-29.613-6.298-245.412-58.532-271.904-64.948l-36.087 34.231z" fill="#280D0D" p-id="1694"></path><path d="M696.637 751.667c0.047-1.854 0.232-23.43 0.232-25.388 0-25.512-0.091-56.424-0.187-89.15-0.197-67.386-0.42-143.762 0.184-181.835 0.476-29.901-1.612-43.127-9.533-55.626-9.27-14.627-44.016-21.822-46-22.333l-218.667-52.683 18.667-20.317c47.627 11.53 228 59.613 257 69 25.821 8.358 28.608 23.806 28.753 25.597 0.757 11.444 0.246 207.824-0.19 330.008-7.058 5.302-18.112 13.606-30.259 22.727z" fill="#F240AE" p-id="1695"></path><path d="M386.25 284.912s58.186-96.029 121.086-83.625c62.9 12.404 110.38 81.646 29.268 111.322S386.25 327.501 386.25 327.501v-42.589z" fill="#F240AE" p-id="1696"></path><path d="M430.859 336.184c-27.579 0-44.929-3.638-45.653-3.793a4.998 4.998 0 0 1-3.956-4.89v-42.589c0-0.914 0.25-1.81 0.724-2.591 2.156-3.559 53.495-87.141 113.979-87.141 4.156 0 8.312 0.404 12.352 1.201 40.362 7.959 73.809 37.591 76.144 67.459 1.038 13.285-3.573 37.896-46.125 53.464-42.65 15.604-81.98 18.88-107.465 18.88z m-39.609-12.87c6.491 1.04 20.604 2.869 39.609 2.869 24.676 0 62.754-3.17 104.027-18.27 14.554-5.325 25.312-12.134 31.978-20.238 5.705-6.938 8.267-14.694 7.613-23.056-1.97-25.199-32.523-51.41-68.109-58.428a53.97 53.97 0 0 0-10.416-1.012c-51.255 0-98.342 71.166-104.702 81.168v36.967z" fill="#280D0D" p-id="1697"></path><path d="M213.039 265.682s-83.974 32.638-34.515 65.501 195.856 0 195.856 0-114.975-97.386-161.341-65.501z" fill="#F240AE" p-id="1698"></path><path d="M251.288 350.789h-0.005c-34.696-0.001-60.107-5.195-75.526-15.441-12.874-8.554-18.828-18.178-17.699-28.604 1.215-11.21 10.734-22.379 28.294-33.194 11.105-6.84 21.817-11.299 24.337-12.312 6.952-4.623 15.521-6.966 25.48-6.966 23.085 0 53.973 12.365 91.806 36.754 27.841 17.947 49.422 36.162 49.637 36.344a5 5 0 0 1-2.137 8.695c-0.656 0.144-66.273 14.724-124.187 14.724z m-15.119-86.518c-8.13 0-14.958 1.861-20.297 5.532a5.06 5.06 0 0 1-1.021 0.54c-12.429 4.84-45.073 21.009-46.853 37.481-0.692 6.416 3.779 12.874 13.292 19.195 13.75 9.136 37.299 13.77 69.992 13.77 43.351 0 91.192-8.347 111.726-12.368-22.285-17.556-85.353-64.15-126.839-64.15z" fill="#280D0D" p-id="1699"></path><path d="M368.123 314.58s-143.1 98.392-10.86 124.478c112.231 22.139 84.714-99.623 36.341-125.459-25.481-13.61-25.481 0.981-25.481 0.981z" fill="#F240AE" p-id="1700"></path><path d="M382.291 446.732h-0.009c-7.929-0.001-16.672-0.933-25.987-2.771-35.53-7.009-55.522-20.129-59.422-38.997-7.876-38.106 55.007-84.963 66.677-93.283 0.252-0.927 0.652-1.987 1.287-3.053 1.298-2.18 4.5-5.835 11.367-5.835 5.237 0 11.699 2.092 19.755 6.395 14.285 7.629 27.339 23.105 35.814 42.461 8.566 19.562 11.114 40.228 6.99 56.697-3.588 14.337-15.702 38.386-56.472 38.386z m-9.164-132.092c0.085 1.724-0.741 3.075-2.17 4.059-19.897 13.691-70.233 55.517-64.29 84.247 3.01 14.552 20.358 25.051 51.563 31.206 8.68 1.712 16.772 2.58 24.053 2.581h0.008c25.554 0.001 41.725-10.654 46.772-30.814 7.406-29.584-11.678-73.949-37.815-87.909-8.069-4.31-12.636-5.215-15.044-5.215-2.032-0.001-2.958 0.553-3.077 1.845z" fill="#280D0D" p-id="1701"></path><path d="M343.331 326.617c9.43 0.142-120.859-71.148-140.821-24.088s109.772 23.62 140.821 24.088z" fill="#FFF6EE" p-id="1702"></path><path d="M254.506 337.047h-0.004c-31.341-0.001-49.145-4.846-56.03-15.246-3.869-5.845-4.06-12.985-0.564-21.224 3.699-8.722 12.954-19.118 36.036-19.118 23.616 0 52.662 10.403 72.871 19.132 10.129 4.375 20.164 9.273 28.256 13.793 12.448 6.953 13.749 8.994 13.749 11.996a5.188 5.188 0 0 1-2.797 4.607c-0.818 0.429-1.721 0.682-2.767 0.629-6.266-0.081-17.122 0.861-29.786 1.975-17.513 1.539-39.311 3.456-58.964 3.456z m-20.563-45.588c-14.337 0-23.113 4.26-26.831 13.022-3.168 7.47-1.011 10.729-0.302 11.799 3.251 4.911 14.164 10.766 47.691 10.767h0.004c19.215 0 40.77-1.896 58.089-3.418 5.799-0.51 11.228-0.987 16.059-1.35-20.417-11.122-63.942-30.82-94.71-30.82z" fill="#280D0D" p-id="1703"></path><path d="M374.38 306.225s-86.168 108.931-6.257 115.146 36.528-87.189 6.257-115.146z" fill="#FFF6EE" p-id="1704"></path><path d="M375.43 426.667c-0.002 0 0.002 0 0 0a99.5 99.5 0 0 1-7.694-0.311c-18.467-1.437-30.487-8.244-35.726-20.233-15.137-34.64 36.254-100.225 38.448-102.999a5.001 5.001 0 0 1 7.314-0.571c22.809 21.063 49.638 72.481 38.1 101.98-3.949 10.097-14.175 22.134-40.442 22.134z m-0.541-112.876c-15.289 20.585-43.509 65.928-33.715 88.331 3.646 8.338 12.843 13.137 27.337 14.264 2.397 0.187 4.725 0.281 6.919 0.281 16.562 0 27.035-5.308 31.13-15.776 8.934-22.845-12.069-66.127-31.671-87.1z" fill="#280D0D" p-id="1705"></path><path d="M374.38 306.225s144.151-104.79 166.649-61.461c22.499 43.329-81.311 57.095-166.649 61.461z" fill="#FFF6EE" p-id="1706"></path><path d="M374.378 311.226a5 5 0 0 1-2.939-9.044c4.096-2.978 100.854-72.917 148.651-72.917 15.311 0 22.25 7.176 25.376 13.194 4.793 9.231 4.934 17.908 0.417 25.79-7.854 13.706-29.646 23.996-66.622 31.46-27.11 5.473-62.312 9.345-104.626 11.51a4.385 4.385 0 0 1-0.257 0.007z m145.713-71.961c-34.168 0-99.295 41.323-128.263 60.923 54.903-3.681 131.718-13.07 145.379-36.91 2.754-4.806 2.553-10.108-0.615-16.21-2.727-5.251-8.124-7.803-16.501-7.803z" fill="#280D0D" p-id="1707"></path><path d="M373.916 301.905s-87.077-138.661-141.976-89.697 74.218 152.684 142.441 94.017l-0.465-4.32z" fill="#FFD96E" p-id="1708"></path><path d="M325.577 328.713h-0.009c-21.782-0.003-45.323-7.626-66.287-21.466-20.05-13.237-35.327-30.742-41.915-48.028-7.468-19.594-3.474-37.614 11.245-50.742 8.733-7.789 18.765-11.739 29.814-11.739 54.72 0 117.096 98.323 119.725 102.509 0.404 0.644 0.656 1.37 0.737 2.125l0.464 4.32a4.999 4.999 0 0 1-1.712 4.325c-14.222 12.23-32.226 18.696-52.062 18.696z m-67.151-121.976c-8.641 0-16.216 3.011-23.158 9.202-14.615 13.035-12.721 28.794-8.557 39.719 5.858 15.372 19.738 31.134 38.08 43.243 19.348 12.773 40.933 19.81 60.778 19.812h0.008c16.734 0 31.369-4.918 43.545-14.624l-0.052-0.479c-3.097-4.796-17.633-26.827-37.002-48.562-28.166-31.605-53.63-48.311-73.642-48.311z" fill="#280D0D" p-id="1709"></path><path d="M374.38 284.912s39.703-95.322 67.264-108.809c46.491-22.751 109.623 7.913 65.692 54.404s-106.712 77.286-125.507 77.286c-18.794 0.001-7.449-22.881-7.449-22.881z" fill="#FFD96E" p-id="1710"></path><path d="M381.829 312.794c-8.005 0-11.857-3.502-13.68-6.439-5.241-8.449 0.656-21.409 1.676-23.51 0.859-2.047 10.643-25.211 23.423-49.6 18.248-34.825 33.792-55.562 46.197-61.633 10.946-5.356 23.285-8.188 35.682-8.188 23.529 0 43.01 9.926 49.629 25.289 7.89 18.309-5.251 36.195-13.786 45.228-43.222 45.743-107.142 78.853-129.141 78.853z m93.298-139.369c-10.882 0-21.7 2.479-31.285 7.17-21.221 10.385-54.005 80.211-64.847 106.24a4.7 4.7 0 0 1-0.136 0.298c-1.936 3.941-3.981 11.11-2.21 13.954 0.879 1.411 3.302 1.707 5.18 1.707 17.676 0 79.829-31.226 121.873-75.72 11.994-12.694 16.099-24.591 11.87-34.403-4.96-11.512-21.214-19.246-40.445-19.246z" fill="#280D0D" p-id="1711"></path><path d="M368.123 302.529s-85.939-96.6-117.758-61.518 72.385 62.142 117.758 61.518z" fill="#FFF6EE" p-id="1712"></path><path d="M366.561 307.54c-37.144-0.002-112.931-17.103-125.308-45.04-2.564-5.787-3.707-14.797 5.409-24.848 5.604-6.18 12.905-9.313 21.699-9.313 39.992 0 100.923 67.974 103.497 70.867a5 5 0 0 1-3.667 8.323c-0.537 0.007-1.078 0.011-1.63 0.011z m-98.2-69.201c-5.937 0-10.611 1.974-14.293 6.032-5.968 6.58-4.954 11.187-3.673 14.079 8.593 19.396 66.786 36.021 105.829 38.71-6.387-6.588-16.008-16.085-26.993-25.502-25.426-21.798-46.475-33.319-60.87-33.319z" fill="#280D0D" p-id="1713"></path><path d="M374.38 306.225c-17.098 5.699 73.836-125.866 96.976-114.758 23.14 11.108-12.976 86.758-96.976 114.758z" fill="#FFF6EE" p-id="1714"></path><path d="M373.435 311.405c-1.96 0-3.738-0.865-4.88-2.376-0.863-1.142-1.302-2.538-1.303-4.151v-0.053c0-1.829 0.116-6.676 12.261-26.175 7.486-12.019 17.244-25.87 27.478-39.003 34.681-44.505 52.438-53.847 61.229-53.847 2.762 0 5 2.238 5 5s-2.238 5-5 5c-6.588 0-24.408 12.963-52.952 49.496-21.138 27.055-35.537 51.071-37.729 58.25 0.565 0.81 0.896 1.793 0.897 2.854v0.008a5 5 0 0 1-4.996 4.996l-0.005 0.001zM154.333 771.833c29.064 2.599 58.357 0.845 87.333 4.667 1.914 0.252 1.889-2.751 0-3-28.976-3.821-58.27-2.068-87.333-4.667-1.927-0.172-1.911 2.829 0 3zM151.268 752.446c16.476 2.588 33.136 1.438 49.732 2.054 1.935 0.072 1.928-2.928 0-3-16.313-0.605-32.741 0.598-48.935-1.946-1.891-0.298-2.704 2.593-0.797 2.892zM157 761.833c11.045 0.037 22.049 0.654 32.935 2.613 1.891 0.34 2.699-2.55 0.798-2.893-11.148-2.007-22.417-2.683-33.732-2.72-1.936-0.006-1.935 2.994-0.001 3zM218.333 755.833h4c1.935 0 1.935-3 0-3h-4c-1.934 0-1.934 3 0 3zM151.667 735.167c17.576 0.047 35.111 1.302 52.667 2 1.935 0.077 1.928-2.923 0-3-17.555-0.698-35.091-1.953-52.667-2-1.935-0.006-1.935 2.994 0 3zM153.667 743.167c6.316-0.041 12.693-0.62 18.935 0.613 1.889 0.373 2.694-2.518 0.798-2.893-6.525-1.29-13.128-0.763-19.732-0.72-1.935 0.012-1.936 3.012-0.001 3zM172.333 783.833c12.679-1.172 25.316 0.571 38 0.667 1.935 0.015 1.934-2.985 0-3-12.684-0.096-25.321-1.839-38-0.667-1.909 0.177-1.926 3.178 0 3zM221.268 785.78c3.23 0.609 6.453 0.719 9.732 0.72 1.935 0.001 1.935-2.999 0-3-3.006-0.001-5.972-0.054-8.935-0.613-1.89-0.357-2.697 2.534-0.797 2.893zM206.601 794.446c12.498 1.944 25.14 1.421 37.732 2.054 1.934 0.097 1.925-2.903 0-3-12.313-0.619-24.713-0.046-36.935-1.946-1.891-0.295-2.704 2.596-0.797 2.892zM153 715.833h23.333c1.935 0 1.935-3 0-3H153c-1.935 0-1.935 3 0 3zM184.601 716.446c2.083 0.646 4.234 0.719 6.399 0.72 1.935 0.001 1.935-2.999 0-3-1.91-0.001-3.762-0.043-5.601-0.613-1.853-0.574-2.639 2.322-0.798 2.893zM155.667 725.833c12.222 0.709 24.415 1.934 36.667 2 1.935 0.01 1.934-2.99 0-3-12.251-0.066-24.445-1.291-36.667-2-1.934-0.112-1.923 2.889 0 3zM205 727.833c6.673 0.049 13.327 0.618 20 0.667 1.935 0.014 1.934-2.986 0-3-6.673-0.049-13.327-0.618-20-0.667-1.935-0.014-1.934 2.986 0 3zM147.667 691.833c19.558 0 39.118 0.015 58.667 0.667 1.936 0.065 1.929-2.936 0-3-19.549-0.652-39.109-0.666-58.667-0.667-1.935 0-1.935 3 0 3zM149 699.833c14.657-1.219 29.325-0.055 44 0 1.935 0.007 1.934-2.993 0-3-14.675-0.055-29.343-1.219-44 0-1.914 0.159-1.929 3.161 0 3zM215.667 693.833h12c1.935 0 1.935-3 0-3h-12c-1.935 0-1.935 3 0 3zM202.333 702.5H219c1.935 0 1.935-3 0-3h-16.667c-1.934 0-1.934 3 0 3zM153.667 667.167c20.003 0.101 40.042 3.224 60 0.667 1.892-0.242 1.915-3.245 0-3-19.958 2.557-39.997-0.566-60-0.667-1.935-0.01-1.934 2.99 0 3zM151 675.167c12.922 0.712 25.793 2.043 38.667 3.333 1.925 0.193 1.906-2.809 0-3-12.874-1.29-25.745-2.621-38.667-3.333-1.934-0.107-1.924 2.894 0 3zM203 679.833c6.649-0.615 13.126-0.526 19.601 1.28 1.867 0.521 2.658-2.374 0.798-2.893-6.716-1.873-13.488-2.026-20.399-1.387-1.91 0.177-1.927 3.179 0 3zM149 651.167c13.141-0.565 26.223 0.614 39.333 1.333 1.934 0.106 1.924-2.894 0-3-13.11-0.719-26.192-1.899-39.333-1.333-1.927 0.083-1.935 3.083 0 3zM203 650.5c5.544 0.62 11.081 1.285 16.667 1.333 1.935 0.017 1.934-2.983 0-3-5.586-0.049-11.122-0.714-16.667-1.333-1.921-0.215-1.9 2.788 0 3zM151 632.5h22c1.935 0 1.935-3 0-3h-22c-1.935 0-1.935 3 0 3zM185 633.167h8.667c1.935 0 1.935-3 0-3H185c-1.935 0-1.935 3 0 3zM171 659.833c1.935 0 1.935-3 0-3s-1.935 3 0 3zM213 716.5c1.935 0 1.935-3 0-3s-1.935 3 0 3zM190.333 745.833c1.935 0 1.935-3 0-3-1.934 0-1.934 3 0 3zM150.333 597.833c17.749-1.339 35.535-1.976 53.333-2 1.934-0.003 1.935-3.003 0-3-17.799 0.024-35.584 0.661-53.333 2-1.916 0.145-1.93 3.146 0 3zM150.333 613.833c10.609 0.073 21.215 1.175 31.732-0.72 1.902-0.343 1.094-3.234-0.798-2.893-10.229 1.844-20.617 0.684-30.935 0.613-1.934-0.013-1.933 2.987 0.001 3zM195 613.167h13.333c1.935 0 1.935-3 0-3H195c-1.935 0-1.935 3 0 3zM152.333 578.5c5.348 0.001 10.681 0.052 16 0.667 1.92 0.222 1.898-2.781 0-3-5.319-0.615-10.652-0.665-16-0.667-1.934 0-1.934 3 0 3zM149.667 561.833a87.752 87.752 0 0 1 18 0c1.924 0.197 1.905-2.805 0-3a87.752 87.752 0 0 0-18 0c-1.905 0.196-1.924 3.198 0 3zM175.935 572.446c3.876 0.711 7.804 0.719 11.732 0.72 1.935 0.001 1.935-2.999 0-3-3.648-0.001-7.333 0.048-10.935-0.613-1.891-0.346-2.698 2.545-0.797 2.893zM153.667 539.833h16.667c1.935 0 1.935-3 0-3h-16.667c-1.935 0-1.935 3 0 3zM147.268 528.446c4.218 0.695 8.449 1.305 12.667 2 1.892 0.312 2.703-2.579 0.798-2.893-4.218-0.695-8.449-1.305-12.667-2-1.892-0.311-2.703 2.579-0.798 2.893zM149.399 550.446c4.2-0.645 8.464-0.688 12.667-1.333 1.907-0.293 1.094-3.183-0.798-2.893-4.2 0.645-8.464 0.688-12.667 1.333-1.907 0.294-1.094 3.184 0.798 2.893zM149.399 500.446c6.942-1.216 13.896-1.88 20.935-1.28 1.929 0.164 1.913-2.837 0-3-7.303-0.623-14.537 0.126-21.732 1.387-1.904 0.334-1.095 3.225 0.797 2.893zM149.667 513.167c3.442 0.001 6.86 0.076 10.268 0.613 1.892 0.298 2.704-2.592 0.798-2.893-3.679-0.579-7.347-0.719-11.065-0.72-1.936-0.001-1.936 2.999-0.001 3zM175 515.167h2.667c0.818 0 1.5-0.682 1.5-1.5s-0.682-1.5-1.5-1.5H175c-0.818 0-1.5 0.682-1.5 1.5s0.682 1.5 1.5 1.5zM148.601 482.446c2.558 0.607 5.113 0.719 7.732 0.72 1.935 0.001 1.935-2.999 0-3-2.353-0.001-4.635-0.067-6.935-0.613-1.88-0.446-2.679 2.447-0.797 2.893zM106.333 451.167c8.005 0.049 15.995 0.618 24 0.667 1.935 0.012 1.934-2.988 0-3-8.005-0.049-15.995-0.618-24-0.667-1.935-0.012-1.934 2.988 0 3zM109.667 441.167c6.326 0.595 12.675 0.773 18.935 1.946 1.891 0.354 2.697-2.537 0.798-2.893-6.525-1.223-13.137-1.434-19.732-2.054-1.928-0.18-1.91 2.821-0.001 3.001zM142.333 445.167H145c0.818 0 1.5-0.682 1.5-1.5s-0.682-1.5-1.5-1.5h-2.667c-0.818 0-1.5 0.682-1.5 1.5 0 0.817 0.683 1.5 1.5 1.5z" fill="#280D0D" p-id="1715"></path><path d="M142.333 458.5c1.935 0 1.935-3 0-3-1.934 0-1.934 3 0 3z" fill="#280D0D" p-id="1716"></path><path d="M106.333 427.833c5.02 0.002 10.046-0.007 14.935 1.28 1.873 0.493 2.667-2.401 0.798-2.893-5.146-1.354-10.445-1.385-15.732-1.387-1.935 0-1.935 3-0.001 3zM128.333 431.167h2c1.935 0 1.935-3 0-3h-2c-1.934 0-1.934 3 0 3zM108.732 417.113c4.245-1.3 8.576-1.19 12.935-0.613 1.913 0.253 1.889-2.75 0-3-4.617-0.611-9.244-0.654-13.732 0.72-1.845 0.565-1.058 3.461 0.797 2.893zM108.333 409.167h8c1.935 0 1.935-3 0-3h-8c-1.934 0-1.934 3 0 3zM107.667 399.167c2.385 0.039 4.674 0.543 6.935 1.28 1.845 0.601 2.629-2.296 0.798-2.893-2.507-0.817-5.09-1.344-7.732-1.387-1.937-0.032-1.934 2.968-0.001 3zM125.667 401.167h0.667c1.935 0 1.935-3 0-3h-0.667c-1.935 0-1.935 3 0 3z" fill="#280D0D" p-id="1717"></path><path d="M169 623.833c1.935 0 1.935-3 0-3s-1.935 3 0 3z" fill="#280D0D" p-id="1718"></path><path d="M593 590c6.449 0 6.449-10 0-10s-6.449 10 0 10z" fill="#FFFFFF" p-id="1719"></path><path d="M588 610.73v72c0 6.449 10 6.449 10 0v-72c0-6.449-10-6.449-10 0z" fill="#FFFFFF" p-id="1720"></path></svg>