<?xml version="1.0" standalone="no"?><!DOCTYPE svg PUBLIC "-//W3C//DTD SVG 1.1//EN" "http://www.w3.org/Graphics/SVG/1.1/DTD/svg11.dtd"><svg t="1528985460544" class="icon" style="" viewBox="0 0 1024 1024" version="1.1" xmlns="http://www.w3.org/2000/svg" p-id="1376" xmlns:xlink="http://www.w3.org/1999/xlink" width="80" height="80"><defs><style type="text/css"></style></defs><path d="M510.777 513.223m-418.146 0a418.146 418.146 0 1 0 836.292 0 418.146 418.146 0 1 0-836.292 0Z" fill="#FFD7D7" p-id="1377"></path><path d="M335.242 127.542s-18.063 14.579-19.615 33.683c-1.552 19.104 0 71 0 71l-13.339 16.402v229.73s-37.794-1.06-37.063 6.661c0.73 7.722 0 177.308 0 177.308s-29.272 11.382-29.272 28.286 0.522 137.425 0.522 137.425-0.717 28.781 10.672 41.141c11.388 12.36 145.417 23.928 155.827 20.447 14.842-4.964 100.577-42.663 99.735-52.428s-43.913-14.811-43.913-14.811l-93.398 1.092s-35.223-85.602-35.512-97.392 5.356-598.544 5.356-598.544z" fill="#280D0D" p-id="1378"></path><path d="M291.907 505.626l111.067 10.473-1.098 188.986-111.084-7.449c-0.001 0-1.935-187.492 1.115-192.01z" fill="#3A4ABA" p-id="1379"></path><path d="M401.876 710.085a5.38 5.38 0 0 1-0.335-0.011l-111.085-7.449a5.001 5.001 0 0 1-4.665-4.938c-0.005-0.469-0.484-47.437-0.586-94.352-0.207-96.41 1.198-98.493 2.558-100.507a4.996 4.996 0 0 1 4.614-2.181l111.066 10.474a5 5 0 0 1 4.53 5.007l-1.098 188.985a5 5 0 0 1-4.999 4.972z m-106.132-17.128l101.163 6.783 1.04-179.093-101.775-9.597c-1.426 21.008-1.083 115.684-0.428 181.907z" fill="#280D0D" p-id="1380"></path><path d="M402.974 516.099l84.723-9.335-1.107 190.498-84.714 7.823z" fill="#455BC4" p-id="1381"></path><path d="M401.876 710.085a5.001 5.001 0 0 1-5-5.029l1.098-188.985a5 5 0 0 1 4.452-4.94l84.723-9.335a4.999 4.999 0 0 1 5.548 4.999l-1.106 190.497a5 5 0 0 1-4.54 4.949l-84.714 7.823a5.112 5.112 0 0 1-0.461 0.021z m6.071-189.503l-1.039 179.017 74.708-6.898 1.048-180.351-74.717 8.232z" fill="#280D0D" p-id="1382"></path><path d="M265.225 694.842l130.194 14.742-0.878 151.189-130.189-15.687z" fill="#3A4ABA" p-id="1383"></path><path d="M394.541 865.772c-0.198 0-0.398-0.012-0.598-0.036L263.754 850.05a5 5 0 0 1-4.402-4.993l0.874-150.244a5 5 0 0 1 5.563-4.939l130.193 14.741a5.002 5.002 0 0 1 4.438 4.998l-0.878 151.188a5.002 5.002 0 0 1-5.001 4.971z m-125.164-25.117l120.196 14.482 0.819-141.091-120.199-13.61-0.816 140.219z" fill="#280D0D" p-id="1384"></path><path d="M394.541 860.773l110.137-24.005 0.843-144.957-110.102 17.773z" fill="#455BC4" p-id="1385"></path><path d="M394.541 865.772a5.003 5.003 0 0 1-5-5.029l0.878-151.188a5.002 5.002 0 0 1 4.203-4.907l110.102-17.773a5.024 5.024 0 0 1 4.05 1.139 5.002 5.002 0 0 1 1.747 3.827l-0.843 144.957a5 5 0 0 1-3.936 4.856l-110.137 24.005a5.11 5.11 0 0 1-1.064 0.113z m5.854-151.926l-0.817 140.712 100.124-21.822 0.785-135.048-100.092 16.158z" fill="#280D0D" p-id="1386"></path><path d="M335.242 127.542l-0.997 171.505s72.744 21.775 104.077-22.118c2.256-19.415 1.004-172.665 1.004-172.665s-46.275 58.213-104.084 23.278z" fill="#FC7A7A" p-id="1387"></path><path d="M374.273 308.448c-22.312 0-40.415-5.342-41.175-5.569a4 4 0 0 1-2.854-3.855l0.997-171.505a4 4 0 0 1 6.069-3.401c11.625 7.026 23.632 10.588 35.688 10.588 36.493 0 62.935-32.605 63.197-32.935a4.008 4.008 0 0 1 4.434-1.287 3.997 3.997 0 0 1 2.695 3.747c0.051 6.268 1.229 153.722-1.029 173.159a3.997 3.997 0 0 1-0.718 1.862c-13.634 19.101-36.907 29.196-67.304 29.196z m-36.01-12.47c5.84 1.452 19.915 4.471 36.011 4.471 27.633 0 47.873-8.41 60.18-25 1.741-19.267 1.17-127.301 0.944-161.074-10.852 10.572-33.397 28.332-62.398 28.332-11.438 0-22.777-2.82-33.796-8.396l-0.941 161.667z" fill="#280D0D" p-id="1388"></path><path d="M326.598 255.602l-1.476 253.958 77.852 6.539 48.624-9.545 1.594-274.33c0.001 0.001-46.817 51.357-126.594 23.378z" fill="#F4CD8E" p-id="1389"></path><path d="M402.974 520.953c-0.136 0-0.271-0.006-0.406-0.018l-77.852-6.54a4.853 4.853 0 0 1-4.447-4.864l1.476-253.958a4.854 4.854 0 0 1 6.46-4.551c15.269 5.355 30.396 8.07 44.964 8.07 48.401 0 76.163-29.836 76.438-30.137a4.854 4.854 0 0 1 8.44 3.298l-1.594 274.33a4.853 4.853 0 0 1-3.919 4.734l-48.625 9.545a4.818 4.818 0 0 1-0.935 0.091zM330.001 505.1l72.703 6.107 44.064-8.65 1.507-259.391c-12.425 9.851-38.106 25.633-75.107 25.633-13.605 0-27.623-2.188-41.756-6.51L330.001 505.1z" fill="#280D0D" p-id="1390"></path><path d="M335.739637 134.377444a27.06 54.765 67.857 1 0 101.451727-41.283994 27.06 54.765 67.857 1 0-101.451727 41.283994Z" fill="#FF8888" p-id="1391"></path><path d="M362.117 150.195c-15.413 0-26.378-5.22-30.081-14.321-3.329-8.179-0.361-18.098 8.356-27.93 8.055-9.084 20.259-17.248 34.366-22.989 12.205-4.967 25.011-7.702 36.057-7.702 15.413 0 26.378 5.22 30.081 14.321 6.564 16.133-12.202 38.498-42.723 50.919-12.204 4.967-25.01 7.702-36.056 7.702z m48.698-64.942c-10.037 0-21.771 2.526-33.041 7.112-12.991 5.286-24.141 12.704-31.396 20.886-6.496 7.326-9.022 14.473-6.933 19.607 2.379 5.847 10.854 9.337 22.671 9.337 10.037 0 21.771-2.526 33.041-7.112 28.126-11.445 42.525-30.179 38.328-40.493-2.378-5.847-10.852-9.337-22.67-9.337z" fill="#280D0D" p-id="1392"></path><path d="M598.233 354.716l-133.102 47.008c-7.101 2.508-10.848 10.276-8.39 17.394l124.764 370.839c2.439 7.064 10.088 10.871 17.194 8.558L734.76 754.24c7.308-2.378 11.232-10.301 8.695-17.555L615.732 363.113c-2.504-7.159-10.347-10.923-17.499-8.397z" fill="#455BC4" p-id="1393"></path><path d="M594.458 804.192a18.714 18.714 0 0 1-17.679-12.603L452.002 420.713c-3.33-9.643 1.808-20.293 11.464-23.704l133.103-47.008a18.654 18.654 0 0 1 6.229-1.071 18.723 18.723 0 0 1 17.654 12.533l127.734 373.605c1.663 4.756 1.346 9.897-0.906 14.443a18.558 18.558 0 0 1-10.973 9.484L600.245 803.27a18.62 18.62 0 0 1-5.787 0.922z m8.34-445.262c-0.983 0-1.958 0.168-2.899 0.501l-133.103 47.008c-4.494 1.587-6.884 6.543-5.328 11.048l124.777 370.877c1.198 3.472 4.504 5.829 8.212 5.829h0.001c0.91 0 1.816-0.145 2.694-0.431l136.062-44.275a8.627 8.627 0 0 0 5.104-4.413 8.636 8.636 0 0 0 0.417-6.737L611.001 364.73c-1.209-3.456-4.51-5.8-8.203-5.8z" fill="#280D0D" p-id="1394"></path><path d="M356.025 338.78c6.449 0 6.449-10 0-10s-6.449 10 0 10zM351.025 355.515v96.253c0 6.449 10 6.449 10 0v-96.253c0-6.449-10-6.449-10 0z" fill="#FFFFFF" p-id="1395"></path><path d="M265.225 737.526l130.194 19.804v-47.746l-130.194-14.742z" fill="#FC7A7A" p-id="1396"></path><path d="M395.419 761.33c-0.2 0-0.401-0.015-0.602-0.046L264.624 741.48a4 4 0 0 1-3.398-3.954v-42.685c0-1.14 0.485-2.225 1.335-2.983s1.982-1.115 3.115-0.991l130.193 14.742a4 4 0 0 1 3.55 3.975v47.746a4 4 0 0 1-4 4z m-126.193-27.241l122.193 18.587v-39.52L269.226 699.32v34.769z" fill="#280D0D" p-id="1397"></path><path d="M395.419 757.33l109.868-25.321 0.234-40.198-110.102 17.773z" fill="#FC7A7A" p-id="1398"></path><path d="M395.419 761.33a3.997 3.997 0 0 1-4-4v-47.746a4 4 0 0 1 3.362-3.949l110.102-17.773a4 4 0 0 1 4.637 3.973l-0.233 40.198a4 4 0 0 1-3.102 3.874l-109.868 25.321a3.965 3.965 0 0 1-0.898 0.102z m4-48.34v39.313l101.887-23.482 0.188-32.309-102.075 16.478z" fill="#280D0D" p-id="1399"></path><path d="M534.899 379.533l132.49 398.241-68.689 20.742s-11.522 8.299-28.171-41.186L456.742 419.119s-4.472-12.852 8.39-17.394 69.767-22.192 69.767-22.192z" fill="#3A4ABA" p-id="1400"></path><path d="M596.62 804.04c-10.532 0-20.617-14.758-30.831-45.115L452.002 420.713c-2.438-7.007-1.415-19.154 11.464-23.704 12.807-4.522 67.624-21.53 69.951-22.252a4.995 4.995 0 0 1 6.226 3.197l132.49 398.241a4.998 4.998 0 0 1-3.299 6.364l-68.194 20.594c-0.887 0.434-2.241 0.887-4.02 0.887z m-64.919-418.278c-13.873 4.317-54.437 16.979-64.905 20.677-7.445 2.63-5.953 9.143-5.318 11.076l113.79 338.221c11.778 35.009 20.198 38.046 21.243 38.285 0.239-0.116 0.487-0.213 0.743-0.29l63.768-19.257-129.321-388.712zM269.505 833.381a820.574 820.574 0 0 1 52.489 4.168c1.921 0.215 1.9-2.788 0-3a819.849 819.849 0 0 0-52.489-4.168c-1.934-0.092-1.925 2.909 0 3zM270.001 839.945c7.034 0.111 14.026 0.624 21.001 1.541 1.914 0.252 1.89-2.752 0-3a183.044 183.044 0 0 0-21.001-1.541c-1.936-0.031-1.933 2.969 0 3zM305.51 842.418l4.991 0.581c0.814 0.095 1.5-0.754 1.5-1.5 0-0.889-0.688-1.406-1.5-1.5l-4.991-0.581c-0.814-0.095-1.5 0.754-1.5 1.5 0 0.889 0.688 1.405 1.5 1.5zM266.998 821.448a358.085 358.085 0 0 1 34.997 0.625c1.932 0.129 1.92-2.872 0-3a358.707 358.707 0 0 0-34.997-0.625c-1.93 0.06-1.935 3.06 0 3zM269.006 827.921l20.989 1.635c1.93 0.15 1.916-2.851 0-3l-20.989-1.635c-1.93-0.151-1.915 2.85 0 3zM297.126 829.298l9.001 1.491c1.892 0.313 2.703-2.577 0.798-2.893l-9.001-1.491c-1.893-0.313-2.703 2.578-0.798 2.893zM268.032 804.682l29.454 2.955c1.925 0.193 1.906-2.809 0-3l-29.454-2.955c-1.925-0.193-1.906 2.808 0 3zM270.013 812.836l19.496 1.553c1.93 0.154 1.915-2.847 0-3l-19.496-1.553c-1.93-0.154-1.915 2.847 0 3zM301.001 814.988l8.995 0.574c1.933 0.123 1.921-2.877 0-3l-8.995-0.574c-1.933-0.123-1.921 2.878 0 3zM268 790.5h7c1.935 0 1.935-3 0-3h-7c-1.935 0-1.935 3 0 3zM268.91 797.492c0.786-0.175 1.636-0.125 2.379 0.207 0.746 0.334 1.606 0.223 2.052-0.538 0.379-0.648 0.208-1.718-0.538-2.052-1.519-0.68-3.058-0.873-4.69-0.51-1.889 0.42-1.088 3.312 0.797 2.893zM280.51 797.805l24.49 1.204c1.935 0.095 1.925-2.905 0-3l-24.49-1.204c-1.935-0.095-1.926 2.905 0 3zM270.019 775.112a159.447 159.447 0 0 1 19.598 2.252c1.891 0.338 2.7-2.553 0.798-2.893a165.937 165.937 0 0 0-20.395-2.36c-1.936-0.102-1.926 2.899-0.001 3.001zM270.11 782.383a201.55 201.55 0 0 0 15.391 1.596c1.933 0.124 1.921-2.877 0-3a191.37 191.37 0 0 1-14.593-1.489c-1.891-0.268-2.707 2.623-0.798 2.893zM298 785h6c1.935 0 1.935-3 0-3h-6c-1.935 0-1.935 3 0 3zM271.504 765.463l21.973 2.265c1.924 0.198 1.905-2.804 0-3l-21.973-2.265c-1.924-0.199-1.905 2.803 0 3zM267.104 757.93A127.915 127.915 0 0 0 286 759.519c1.935 0.017 1.934-2.983 0-3a122.557 122.557 0 0 1-18.098-1.482c-1.892-0.299-2.705 2.591-0.798 2.893zM293.5 760h2.5c1.935 0 1.935-3 0-3h-2.5c-1.935 0-1.935 3 0 3zM268.089 747.015l21.52 3.891c1.891 0.342 2.699-2.549 0.798-2.893l-21.52-3.891c-1.892-0.342-2.7 2.549-0.798 2.893zM272.003 733.377l21.498 0.583c1.936 0.052 1.931-2.948 0-3l-21.498-0.583c-1.935-0.052-1.93 2.948 0 3zM268.107 722.405l7.495 1.039c1.891 0.262 2.707-2.628 0.798-2.893l-7.495-1.039c-1.892-0.262-2.707 2.629-0.798 2.893zM286 723h2c1.935 0 1.935-3 0-3h-2c-1.935 0-1.935 3 0 3zM270.092 711.503l24.509 3.943c1.892 0.304 2.704-2.586 0.798-2.893l-24.509-3.943c-1.892-0.304-2.704 2.587-0.798 2.893zM269.507 705.412l20.989 1.646c1.93 0.151 1.915-2.85 0-3l-20.989-1.646c-1.93-0.151-1.916 2.85 0 3zM305.027 715.295l8.486 1.106c1.914 0.249 1.89-2.754 0-3l-8.486-1.106c-1.915-0.249-1.891 2.754 0 3zM299.5 773.5c1.935 0 1.935-3 0-3s-1.935 3 0 3zM287 793c1.935 0 1.935-3 0-3s-1.935 3 0 3zM338 840.5c1.935 0 1.935-3 0-3s-1.935 3 0 3zM317 825.5c1.935 0 1.935-3 0-3s-1.935 3 0 3zM318.499 844.024a436.15 436.15 0 0 1 53.132 5.237c1.892 0.305 2.704-2.586 0.798-2.893a442.632 442.632 0 0 0-53.93-5.345c-1.935-0.071-1.928 2.929 0 3.001zM327.502 832.934a174.547 174.547 0 0 1 23.095 2.532c1.891 0.336 2.7-2.554 0.798-2.893a180.795 180.795 0 0 0-23.893-2.639c-1.935-0.084-1.926 2.917 0 3zM295.999 677.482l18.988-1.19c1.921-0.12 1.933-3.121 0-3l-18.988 1.19c-1.921 0.12-1.933 3.121 0 3zM292 664.5h16c1.935 0 1.935-3 0-3h-16c-1.935 0-1.935 3 0 3zM318 669.5h4c1.935 0 1.935-3 0-3h-4c-1.935 0-1.935 3 0 3zM293.491 687.21c9.835-0.299 19.67-0.354 29.508-0.164 1.936 0.037 1.932-2.963 0-3a593.638 593.638 0 0 0-29.508 0.164c-1.93 0.059-1.936 3.059 0 3zM329 688h2c1.935 0 1.935-3 0-3h-2c-1.935 0-1.935 3 0 3zM296 637.5h11.5c1.935 0 1.935-3 0-3H296c-1.935 0-1.935 3 0 3zM296.607 647.912c3.621 0.546 7.233 0.758 10.892 0.57 1.925-0.099 1.934-3.099 0-3-3.381 0.173-6.745 0.042-10.095-0.463-1.892-0.285-2.705 2.606-0.797 2.893zM321 649.5h1.5c1.935 0 1.935-3 0-3H321c-1.935 0-1.935 3 0 3zM294.585 621.549l6.497 1.019c1.892 0.297 2.704-2.594 0.798-2.893l-6.497-1.019c-1.892-0.296-2.705 2.594-0.798 2.893zM294 614h6c1.935 0 1.935-3 0-3h-6c-1.935 0-1.935 3 0 3z" fill="#280D0D" p-id="1401"></path><path d="M312.5 616.5c1.935 0 1.935-3 0-3s-1.935 3 0 3z" fill="#280D0D" p-id="1402"></path><path d="M297.5 601c1.935 0 1.935-3 0-3s-1.935 3 0 3z" fill="#280D0D" p-id="1403"></path><path d="M303.5 630c1.935 0 1.935-3 0-3s-1.935 3 0 3z" fill="#280D0D" p-id="1404"></path></svg>