<?xml version="1.0" standalone="no"?><!DOCTYPE svg PUBLIC "-//W3C//DTD SVG 1.1//EN" "http://www.w3.org/Graphics/SVG/1.1/DTD/svg11.dtd"><svg t="1514535719942" class="icon" style="" viewBox="0 0 1024 1024" version="1.1" xmlns="http://www.w3.org/2000/svg" p-id="22869" xmlns:xlink="http://www.w3.org/1999/xlink" width="20" height="20"><defs><style type="text/css"></style></defs><path d="M758.909818 173.435861l-182.977543 311.293592 144.178718 0 0 68.778366-167.987772 0 0 94.784715 167.987772 0 0 69.651264-167.987772 0 0 138.00823-86.416931 0 0-138.00823L291.548031 717.943798l0-69.651264 174.15826 0 0-94.784715L291.548031 553.507819l0-68.778366 148.60341 0L258.919694 173.435861l97.43351 0c84.671135 154.623398 136.081834 252.658907 154.322399 294.106526l1.775897 0c6.170488-17.036567 23.086655-51.4408 50.718401-103.182598l103.603998-190.923927L758.909818 173.435861z" p-id="22870" fill="#ff9500"></path></svg>