<?xml version="1.0" standalone="no"?><!DOCTYPE svg PUBLIC "-//W3C//DTD SVG 1.1//EN" "http://www.w3.org/Graphics/SVG/1.1/DTD/svg11.dtd"><svg t="1520490089750" class="icon" style="" viewBox="0 0 1024 1024" version="1.1" xmlns="http://www.w3.org/2000/svg" p-id="1920" xmlns:xlink="http://www.w3.org/1999/xlink" width="30" height="30"><defs><style type="text/css"></style></defs><path d="M888.7 314.9c-9.9 0-17.9-8-17.9-17.9V153.6H709.4c-9.9 0-17.9-8-17.9-17.9 0-9.9 8-17.9 17.9-17.9h187.7c5.2 0 9.4 4.2 9.4 9.4V297c0.1 9.8-7.9 17.9-17.8 17.9z" fill="#FF7878" p-id="1921"></path><path d="M486.8 538.8c-7-7-7-18.3 0-25.3L876 123l25.3 25.3-389.2 390.5c-7 7-18.3 7-25.3 0z" fill="#FF7878" p-id="1922"></path><path d="M512.3 960.1C265 960.1 64.2 759.3 64.2 512c0-240.8 190.9-437.9 429.4-447.7 10.2-0.4 18.7 7.7 18.7 17.9 0 9.6-7.6 17.5-17.2 17.9C275.7 109.1 100 290.4 100 512c0 227.5 184.7 412.2 412.2 412.2 221.6 0 402.8-175.7 411.9-395.1 0.4-9.6 8.3-17.2 17.9-17.2 10.2 0 18.3 8.5 17.9 18.7-9.8 238.5-206.8 429.5-447.6 429.5z" fill="#FF7878" p-id="1923"></path></svg>