<?xml version="1.0" standalone="no"?><!DOCTYPE svg PUBLIC "-//W3C//DTD SVG 1.1//EN" "http://www.w3.org/Graphics/SVG/1.1/DTD/svg11.dtd"><svg t="1529656861582" class="icon" style="" viewBox="0 0 1024 1024" version="1.1" xmlns="http://www.w3.org/2000/svg" p-id="2809" xmlns:xlink="http://www.w3.org/1999/xlink" width="30" height="30"><defs><style type="text/css"></style></defs><path d="M349.364706 941.176471c54.211765 0 90.352941-42.164706 90.352941-96.376471s-42.164706-96.376471-90.352941-96.376471c-54.211765 0-90.352941 42.164706-90.352941 96.376471s42.164706 96.376471 90.352941 96.376471z m0-60.235295c-18.070588 0-30.117647-12.047059-30.117647-36.141176 0-18.070588 12.047059-36.141176 30.117647-36.141176s30.117647 12.047059 30.117647 36.141176c6.023529 18.070588-12.047059 36.141176-30.117647 36.141176zM698.729412 941.176471c54.211765 0 90.352941-42.164706 90.352941-96.376471s-42.164706-96.376471-90.352941-96.376471c-54.211765 0-90.352941 42.164706-90.352941 96.376471s42.164706 96.376471 90.352941 96.376471z m0-60.235295c-18.070588 0-30.117647-12.047059-30.117647-36.141176 0-18.070588 12.047059-36.141176 30.117647-36.141176s30.117647 12.047059 30.117647 36.141176c6.023529 18.070588-12.047059 36.141176-30.117647 36.141176z" fill="#8a8a8a" p-id="2810"></path><path d="M42.164706 140.047059h48.188235c18.070588 0 42.164706 18.070588 42.164706 36.141176l114.447059 548.141177c12.047059 48.188235 54.211765 84.329412 102.4 84.329412h463.811765v-60.235295h-463.811765c-18.070588 0-36.141176-18.070588-42.164706-36.141176l-114.447059-548.141177c-12.047059-48.188235-54.211765-84.329412-102.4-84.329411h-48.188235v60.235294z" fill="#8a8a8a" p-id="2811"></path><path d="M265.035294 591.811765v60.235294h572.235294l126.494118-246.964706c42.164706-78.305882-6.023529-150.588235-96.376471-150.588235h-674.635294v60.235294h674.635294c42.164706 0 60.235294 24.094118 42.164706 66.258823l-108.423529 210.82353h-536.094118z" fill="#8a8a8a" p-id="2812"></path></svg>