<?xml version="1.0" standalone="no"?><!DOCTYPE svg PUBLIC "-//W3C//DTD SVG 1.1//EN" "http://www.w3.org/Graphics/SVG/1.1/DTD/svg11.dtd"><svg t="1528090281956" class="icon" style="" viewBox="0 0 1024 1024" version="1.1" xmlns="http://www.w3.org/2000/svg" p-id="12260" xmlns:xlink="http://www.w3.org/1999/xlink" width="30" height="30"><defs><style type="text/css"></style></defs><path d="M612.27594043 653.12278534L404.55078032 653.12278534c-40.23654967 0-72.97067217-32.7341225-72.97067216-72.97126884L331.58010816 477.6559145c0-40.2329719 32.7341225-72.96470941 72.97067216-72.96470939l189.37516113 0c6.52273503 0 11.81176059 5.28783337 11.81176057 11.81056838 0 6.52213833-5.28843006 11.8099723-11.81176057 11.80997231L404.55078032 428.31174519c-27.2131425 0-49.35072819 22.13460404-49.35072817 49.34416931L355.20005215 580.15151711c0 27.2131425 22.13758571 49.35072819 49.35072817 49.35072817l207.72516011 0c27.21254637 0 49.35013209-22.13758571 49.35013212-49.35072817 0 0.00596279-0.06797626-123.66721059-0.06797633-170.21242927 0-23.08925284 6.4893427-40.87039775 19.29331776-52.85388818 17.30113772-16.18966752 39.56573153-14.91839302 40.51262864-14.849224 6.50961666 0.43230484 11.43550642 6.05823065 11.00320156 12.56605839-0.43111205 6.51021276-6.01649114 11.42656254-12.56307669 11.00260547-0.03875842 0-13.31677782-0.51876558-23.00398429 8.70751374-7.71410707 7.34977849-11.62273907 19.26887046-11.62273905 35.42753068 0 46.53865974 0.06857237 170.20646643 0.06857235 170.20646644C685.24601651 620.38866283 652.5124901 653.12278534 612.27594043 653.12278534z" fill="#ff4444" p-id="12261"></path><path d="M594.17995814 503.0354885L423.014669 503.0354885c-6.52213833 0-11.8099723-5.28783337-11.8099723-11.80937563 0-6.52273503 5.28783337-11.81056839 11.8099723-11.81056837l171.16528854 0c6.52213833 0 11.8099723 5.28783337 11.80997231 11.81056837C605.98992985 497.74765455 600.70269257 503.0354885 594.17995814 503.0354885z" fill="#ff4444" p-id="12262"></path><path d="M594.17995814 577.80514522L423.014669 577.80514522c-6.52213833 0-11.8099723-5.28843006-11.8099723-11.80997228 0-6.52273503 5.28783337-11.81056839 11.8099723-11.81056839l171.16528854 0c6.52213833 0 11.8099723 5.28723726 11.80997231 11.81056839C605.98992985 572.51611903 600.70269257 577.80514522 594.17995814 577.80514522z" fill="#ff4444" p-id="12263"></path><path d="M672.99777719 692.80836991m-23.619944 0a23.08199061 23.08199061 0 1 0 47.23988795 0 23.08199061 23.08199061 0 1 0-47.23988795 0Z" fill="#ff4444" p-id="12264"></path><path d="M349.0982925 692.80836991m-23.61994399 0a23.08199061 23.08199061 0 1 0 47.23988796 0 23.08199061 23.08199061 0 1 0-47.23988796 0Z" fill="#ff4444" p-id="12265"></path></svg>