<?xml version="1.0" standalone="no"?><!DOCTYPE svg PUBLIC "-//W3C//DTD SVG 1.1//EN" "http://www.w3.org/Graphics/SVG/1.1/DTD/svg11.dtd"><svg t="1528985894158" class="icon" style="" viewBox="0 0 1024 1024" version="1.1" xmlns="http://www.w3.org/2000/svg" p-id="2509" xmlns:xlink="http://www.w3.org/1999/xlink" width="80" height="80"><defs><style type="text/css"></style></defs><path d="M510.777 513.223m-418.146 0a418.146 418.146 0 1 0 836.292 0 418.146 418.146 0 1 0-836.292 0Z" fill="#FFD7D7" p-id="2510"></path><path d="M798.595 608.192L604.276 398.349l-388.948 18.989 133.494 242.309s97.158-1.271 161.689-8.797c64.532-7.526 288.084-42.658 288.084-42.658z" fill="#FF64D0" p-id="2511"></path><path d="M200.468 502.175l14.86-84.837 133.494 242.308z" fill="#F456BF" p-id="2512"></path><path d="M348.823 664.646a5 5 0 0 1-3.641-1.571L196.828 505.604a4.995 4.995 0 0 1-1.359-3.521l6.275-340.364a5 5 0 0 1 9.176-2.654L353 375.213c0.536 0.816 0.822 1.771 0.822 2.747v281.687a5 5 0 0 1-4.999 4.999zM205.505 500.229l138.317 146.818V379.456l-132.378-201.39-5.939 322.163z" fill="#280D0D" p-id="2513"></path><path d="M348.821 382.959a5 5 0 0 1-4.129-2.182c-0.355-0.521-35.938-52.672-71.064-105.126-71.885-107.347-71.885-111.101-71.885-113.841a4.999 4.999 0 0 1 4.807-4.996c2.979-0.116 299.254-11.532 408.541-11.532 36.512 0 40.006 1.283 41.685 1.899 1.838 0.675 4.355 1.6 25.452 29.141 12.269 16.015 27.676 36.972 43.384 59.008 14.312 20.079 61.238 86.596 64.178 99.528 0.713 3.134-0.354 5.042-1.375 6.09-3.112 3.198-8.905 9.149-225.747 26.427-106.287 8.469-212.455 15.502-213.515 15.573a4.602 4.602 0 0 1-0.332 0.011zM214.539 166.517c15.457 26.834 86.977 133.221 136.803 206.264 17.399-1.164 111.54-7.516 206.737-15.072 168.341-13.36 210.833-20.201 221.038-23.138-4.359-9.562-23.615-39.936-59.572-90.518-35.041-49.292-61.46-83.344-66.563-87.571-1.715-0.364-8.877-1.199-37.891-1.199-99.261-0.001-353.311 9.444-400.552 11.234z" fill="#280D0D" p-id="2514"></path><path d="M200.468 502.175s-3.715 180.738 0 189.679 145.767 133.198 145.767 133.198l2.587-165.406-148.354-157.471z" fill="#3A4ABA" p-id="2515"></path><path d="M346.236 830.053a5 5 0 0 1-3.293-1.237c-0.355-0.311-35.945-31.451-71.532-63.283-72.803-65.123-74.665-69.606-75.561-71.761-0.881-2.121-2.715-6.534-1.775-100.161 0.459-45.799 1.385-91.087 1.394-91.539a5 5 0 0 1 8.639-3.326l148.354 157.471a4.995 4.995 0 0 1 1.359 3.507l-2.587 165.407a4.999 4.999 0 0 1-4.998 4.922zM205.097 689.882c5.91 8.677 83.272 77.768 136.309 124.292l2.386-152.577-138.567-147.081c-1.285 67.688-2.316 165.558-0.128 175.366z" fill="#280D0D" p-id="2516"></path><path d="M348.293 443.323l-11.027 9.649 77.19 159.893 64.461-2.61 25.902 22.143 227.232-32.392-171.486-38.831-193.941-136.631z" fill="#EF4BC1" p-id="2517"></path><path d="M359.923 415.827l129.751-8.64 91.844 144.319-151.992 20.847z" fill="#3BFFDE" p-id="2518"></path><path d="M429.524 577.354a5 5 0 0 1-4.566-2.968L355.354 417.86a5 5 0 0 1 4.236-7.02l129.751-8.64a4.972 4.972 0 0 1 4.55 2.304l91.844 144.318a5 5 0 0 1-3.538 7.639l-151.991 20.848a5.411 5.411 0 0 1-0.682 0.045zM367.401 420.34l65.167 146.549 140.545-19.278-86.065-135.238-119.647 7.967z" fill="#280D0D" p-id="2519"></path><path d="M428.12 597.163l153.372-22.742 0.026-22.915-148.691 20.395z" fill="#3BFFDE" p-id="2520"></path><path d="M428.12 602.163a5 5 0 0 1-4.915-5.916l4.707-25.262a5.001 5.001 0 0 1 4.235-4.038l148.69-20.395a4.998 4.998 0 0 1 5.68 4.96l-0.026 22.916a5 5 0 0 1-4.267 4.94l-153.371 22.741c-0.245 0.036-0.49 0.054-0.733 0.054z m8.962-25.799l-2.763 14.825 142.177-21.082 0.015-12.869-139.429 19.126z" fill="#280D0D" p-id="2521"></path><path d="M358.025 416.709l-4.853 26.678 74.948 153.776 2.099-27.91z" fill="#28EAB8" p-id="2522"></path><path d="M428.118 602.163a4.998 4.998 0 0 1-4.492-2.81l-74.947-153.775a5 5 0 0 1-0.425-3.085l4.852-26.678a5 5 0 0 1 9.439-1.244l72.194 152.544c0.37 0.783 0.531 1.649 0.467 2.514l-2.099 27.91a5.002 5.002 0 0 1-4.989 4.624z m-69.732-159.494l66.134 135.693 0.614-8.166L360.16 432.91l-1.774 9.759z" fill="#280D0D" p-id="2523"></path><path d="M406.961 428.745c6.449 0 6.449-10 0-10s-6.449 10 0 10zM401.961 446.225v92.267c0 6.449 10 6.449 10 0v-92.267c0-6.448-10-6.448-10 0z" fill="#FFFFFF" p-id="2524"></path><path d="M215.224 706.21c13.447 2.15 26.792 4.841 39.973 8.27 1.874 0.488 2.668-2.406 0.798-2.893-13.181-3.429-26.526-6.12-39.973-8.27-1.892-0.302-2.704 2.588-0.798 2.893zM224.873 714.48c11.759 2.836 23.24 6.751 35.149 8.96 1.891 0.351 2.698-2.54 0.798-2.893-11.909-2.209-23.39-6.123-35.149-8.96-1.88-0.453-2.678 2.44-0.798 2.893zM242.103 725.508c26.638 11.183 53.819 21.164 79.588 34.309 1.719 0.877 3.238-1.711 1.514-2.59-25.999-13.262-53.429-23.328-80.305-34.611-1.783-0.75-2.553 2.154-0.797 2.892zM253.461 741.208c18.569 8.092 38.639 11.897 57.203 19.987 1.755 0.765 3.284-1.819 1.514-2.59-18.569-8.092-38.639-11.897-57.203-19.987-1.755-0.765-3.284 1.819-1.514 2.59zM292.056 769.465c10.932 6.149 21.875 12.28 33.081 17.919 1.723 0.867 3.243-1.721 1.514-2.59-11.207-5.64-22.149-11.77-33.081-17.919-1.688-0.95-3.2 1.642-1.514 2.59zM258.644 711.034c10.484 2.215 20.53 6.055 31.014 8.27 1.887 0.399 2.69-2.493 0.798-2.893-10.484-2.215-20.53-6.055-31.014-8.27-1.888-0.398-2.691 2.494-0.798 2.893zM204.886 682.778c23.62 6.253 47.226 12.586 70.298 20.676 1.831 0.642 2.611-2.257 0.798-2.893-23.072-8.09-46.677-14.423-70.298-20.676-1.872-0.496-2.666 2.398-0.798 2.893zM205.217 688.14c10.371 4.786 21.035 8.861 32.061 11.868 1.869 0.51 2.662-2.384 0.798-2.893-10.777-2.939-21.206-6.886-31.345-11.565-1.743-0.805-3.269 1.78-1.514 2.59zM206.664 655.263c22.143 2.941 42.883 11.583 63.696 19.244 1.82 0.67 2.597-2.23 0.798-2.893-21.106-7.769-42.044-16.369-64.494-19.351-1.914-0.254-1.889 2.749 0 3zM217.001 678.007c5.198 0.651 10.39 1.321 15.453 2.703 1.869 0.51 2.662-2.384 0.798-2.893-5.32-1.453-10.79-2.127-16.25-2.81-1.917-0.24-1.894 2.763-0.001 3zM196.326 629.074c18.303 1.473 36.076 6.093 54.048 9.595 1.89 0.368 2.695-2.523 0.798-2.893-18.237-3.554-36.273-8.208-54.845-9.702-1.931-0.155-1.916 2.846-0.001 3zM206.265 645.561c10.468 2.753 21.069 4.891 31.703 6.892 1.89 0.356 2.697-2.535 0.798-2.893-10.634-2.001-21.235-4.139-31.703-6.892-1.874-0.492-2.668 2.401-0.798 2.893zM205.217 606.815c6.403 2.826 12.894 5.445 19.297 8.27 1.753 0.773 3.281-1.811 1.514-2.59-6.403-2.826-12.894-5.445-19.297-8.27-1.752-0.774-3.28 1.81-1.514 2.59zM202.819 617.993c4.199 0.606 8.425 1.232 12.406 2.757 1.81 0.693 2.585-2.208 0.798-2.893-3.981-1.524-8.207-2.151-12.405-2.757-1.893-0.273-2.708 2.618-0.799 2.893zM205.217 569.598c8.837 4.716 17.902 8.922 27.237 12.557 1.805 0.703 2.58-2.199 0.798-2.893-9.095-3.542-17.912-7.66-26.52-12.254-1.706-0.91-3.222 1.679-1.515 2.59zM206.596 581.315c5.54 2.727 11.255 5.052 16.541 8.27 1.657 1.009 3.163-1.586 1.514-2.59-5.286-3.219-11.001-5.544-16.541-8.27-1.729-0.852-3.25 1.735-1.514 2.59zM205.217 593.031c3.556 2.106 7.323 4.074 11.385 4.976 1.885 0.418 2.686-2.474 0.798-2.893-3.828-0.849-7.319-2.689-10.669-4.673-1.668-0.989-3.176 1.605-1.514 2.59zM203.508 545.628c7.385 1.335 14.675 3.165 21.85 5.355 6.823 2.083 14.889 4.43 20.218 9.421 1.41 1.321 3.536-0.796 2.121-2.121-5.11-4.786-12.4-7.168-18.904-9.349-7.972-2.674-16.216-4.703-24.488-6.199-1.891-0.342-2.699 2.549-0.797 2.893zM207.643 560.101c7.855 1.931 15.787 3.519 23.433 6.203 1.83 0.643 2.61-2.256 0.798-2.893-7.646-2.684-15.578-4.271-23.433-6.203-1.879-0.462-2.676 2.431-0.798 2.893zM208.663 532.382c4.152 2.699 8.668 4.7 13.095 6.892 1.727 0.856 3.248-1.732 1.514-2.59-4.426-2.192-8.943-4.193-13.095-6.892-1.627-1.058-3.129 1.54-1.514 2.59zM207.353 523.627c2.278 0.034 4.224 0.627 6.135 1.863 1.63 1.054 3.132-1.544 1.514-2.59-2.34-1.513-4.868-2.231-7.649-2.272-1.936-0.03-1.933 2.97 0 2.999z" fill="#280D0D" p-id="2525"></path><path d="M203.508 660.723c7.456 1.355 14.914 2.699 22.453 3.5 1.923 0.204 1.903-2.798 0-3-7.272-0.773-14.464-2.086-21.655-3.392-1.891-0.344-2.699 2.547-0.798 2.892zM202.13 677.953c3.513 0.704 6.988 1.463 10.338 2.757 1.808 0.698 2.583-2.204 0.798-2.893-3.35-1.293-6.825-2.053-10.338-2.757-1.89-0.378-2.694 2.513-0.798 2.893zM224.583 624.25c1.935 0 1.935-3 0-3s-1.935 3 0 3zM230.096 601.506c1.935 0 1.935-3 0-3-1.934 0-1.934 3 0 3zM208.042 553.952c1.935 0 1.935-3 0-3s-1.935 3 0 3zM235.9 684.156c4.408 0.728 8.827 1.395 13.095 2.757 1.848 0.59 2.633-2.307 0.798-2.893-4.267-1.362-8.687-2.029-13.095-2.757-1.892-0.312-2.703 2.578-0.798 2.893z" fill="#280D0D" p-id="2526"></path><path d="M203.907 158.922l-25.221 53.505s-21.381 469.827-9.304 488.202 166.804 168.076 176.853 168.717c10.048 0.641 427.98-119.44 427.98-119.44s24.38-3.399 24.38-21.859-452.36 97.005-452.36 97.005L200.468 691.854l3.439-532.932z" fill="#280D0D" p-id="2527"></path><path d="M348.822 659.646l-2.587 165.406s426.354-96.269 452.36-97.005V608.192s-291.224 55.422-449.773 51.454z" fill="#455BC4" p-id="2528"></path><path d="M346.235 830.053a4.996 4.996 0 0 1-4.999-5.078l2.587-165.407a4.997 4.997 0 0 1 1.536-3.528 5.077 5.077 0 0 1 3.588-1.392c5.35 0.134 10.992 0.202 16.771 0.202 159.125 0 429.232-51.053 431.942-51.569a5 5 0 0 1 5.934 4.912v119.855a5 5 0 0 1-4.858 4.998c-20.186 0.572-304.097 63.625-451.399 96.885a5.084 5.084 0 0 1-1.102 0.122z m7.508-165.303l-2.409 154.027c52.37-11.805 392.145-88.23 442.261-95.22V614.21c-40.729 7.512-281.018 50.639-427.877 50.639-4.074 0-8.084-0.033-11.975-0.099z" fill="#280D0D" p-id="2529"></path><path d="M549.286 613.231a1.337 1.337 0 0 1-1.189 1.366L506.1 618.83a1.158 1.158 0 0 1-1.291-1.116l-1.77-43.122a1.337 1.337 0 0 1 1.189-1.366l41.997-4.233a1.158 1.158 0 0 1 1.291 1.116l1.77 43.122z" fill="#FFC866" p-id="2530"></path><path d="M505.974 621.837a4.158 4.158 0 0 1-4.162-3.998l-1.77-43.123a4.323 4.323 0 0 1 3.887-4.474l41.995-4.233a4.157 4.157 0 0 1 4.589 3.977l1.771 43.123a4.323 4.323 0 0 1-3.887 4.474l-41.995 4.233a4.426 4.426 0 0 1-0.428 0.021z m0.128-45.784l1.625 39.598 38.497-3.88-1.626-39.598-38.496 3.88z" fill="#280D0D" p-id="2531"></path><path d="M594.977 608.626a1.337 1.337 0 0 1-1.189 1.366l-41.997 4.233a1.158 1.158 0 0 1-1.291-1.116l-1.77-43.122a1.337 1.337 0 0 1 1.189-1.366l41.997-4.233a1.158 1.158 0 0 1 1.291 1.116l1.77 43.122z" fill="#FFC866" p-id="2532"></path><path d="M551.665 617.231a4.157 4.157 0 0 1-4.162-3.999l-1.771-43.123a4.324 4.324 0 0 1 3.884-4.474l41.999-4.233a4.151 4.151 0 0 1 4.589 3.977l1.77 43.123a4.324 4.324 0 0 1-3.883 4.474l-41.999 4.233a3.854 3.854 0 0 1-0.427 0.022z m0.127-45.784l1.626 39.599 38.496-3.88-1.625-39.599-38.497 3.88z" fill="#280D0D" p-id="2533"></path><path d="M640.668 604.02a1.337 1.337 0 0 1-1.189 1.366l-41.997 4.233a1.158 1.158 0 0 1-1.291-1.116l-1.77-43.122a1.337 1.337 0 0 1 1.189-1.366l41.997-4.233a1.158 1.158 0 0 1 1.291 1.116l1.77 43.122z" fill="#FFC866" p-id="2534"></path><path d="M597.355 612.625a4.158 4.158 0 0 1-4.162-3.998l-1.77-43.123a4.323 4.323 0 0 1 3.886-4.474l41.996-4.233a4.162 4.162 0 0 1 4.589 3.977l1.771 43.123a4.323 4.323 0 0 1-3.887 4.474l-41.996 4.233a4.083 4.083 0 0 1-0.427 0.021z m0.128-45.783l1.625 39.598 38.497-3.88-1.626-39.598-38.496 3.88z" fill="#280D0D" p-id="2535"></path><path d="M686.359 599.414a1.337 1.337 0 0 1-1.189 1.366l-41.997 4.233a1.158 1.158 0 0 1-1.291-1.116l-1.77-43.122a1.337 1.337 0 0 1 1.189-1.366l41.997-4.233a1.158 1.158 0 0 1 1.291 1.116l1.77 43.122z" fill="#FFC866" p-id="2536"></path><path d="M643.047 608.02a4.157 4.157 0 0 1-4.162-3.999l-1.771-43.123a4.324 4.324 0 0 1 3.884-4.474l41.998-4.233a4.148 4.148 0 0 1 4.59 3.977l1.77 43.123a4.325 4.325 0 0 1-3.885 4.474l-41.997 4.233a4.113 4.113 0 0 1-0.427 0.022z m0.127-45.784l1.626 39.599 38.496-3.88-1.625-39.599-38.497 3.88z" fill="#280D0D" p-id="2537"></path><path d="M732.049 594.808a1.337 1.337 0 0 1-1.189 1.366l-41.997 4.233a1.158 1.158 0 0 1-1.291-1.116l-1.77-43.122a1.337 1.337 0 0 1 1.189-1.366l41.997-4.233a1.158 1.158 0 0 1 1.291 1.116l1.77 43.122z" fill="#FFC866" p-id="2538"></path><path d="M688.737 603.414a4.158 4.158 0 0 1-4.162-3.998l-1.77-43.123a4.323 4.323 0 0 1 3.886-4.474l41.996-4.233a4.16 4.16 0 0 1 4.589 3.977l1.771 43.123a4.327 4.327 0 0 1-3.887 4.474l-41.996 4.233a4.39 4.39 0 0 1-0.427 0.021z m0.128-45.784l1.625 39.598 38.497-3.88-1.626-39.598-38.496 3.88z" fill="#280D0D" p-id="2539"></path><path d="M530.468 580.96c-6.62-0.27-18.883 6.096-12.779 14.212 2.2 2.926 6.749 1.534 9.743 1.196 4.511-0.51 8.193 4.808 3.394 7.679-2.49 1.49-8.625 1.323-9.852-1.865-0.687-1.786-3.589-1.011-2.893 0.798 3.091 8.03 20.76 5.618 17.876-3.901-1.395-4.603-5.255-6.194-9.77-5.561-1.286 0.18-2.562 0.379-3.859 0.452-3.528 0.2-3.399-3.641-2.133-5.838 1.845-3.199 6.913-4.308 10.272-4.171 1.936 0.078 1.928-2.923 0.001-3.001z" fill="" p-id="2540"></path><path d="M525.153 577.712c-0.881 10.66 0.976 21.371-0.729 31.981-0.304 1.892 2.586 2.704 2.893 0.797 1.751-10.896-0.068-21.838 0.836-32.778 0.159-1.929-2.842-1.913-3 0z" fill="" p-id="2541"></path><path d="M580.855 584.908c0.332 0.796 0.528 1.625 0.589 2.492 0.06 0.866 0.046 1.729-0.044 2.588a19.396 19.396 0 0 1-0.802 3.646 15.513 15.513 0 0 1-1.633 3.468 11.442 11.442 0 0 1-1.4 1.843 12.718 12.718 0 0 1-1.783 1.586c-0.628 0.499-1.318 0.944-2.074 1.338a7.718 7.718 0 0 1-2.396 0.78 7.608 7.608 0 0 1-3.165-0.203c-1.021-0.291-1.905-0.758-2.653-1.401a7.838 7.838 0 0 1-1.75-2.13 16.436 16.436 0 0 1-1.129-2.486c-0.676-1.894-1.033-3.896-1.068-6.008-0.019-1.045 0.025-2.08 0.134-3.104 0.107-1.025 0.314-2.043 0.621-3.056a13.15 13.15 0 0 1 1.173-2.816 11.257 11.257 0 0 1 1.934-2.501 12.122 12.122 0 0 1 1.701-1.316 8.7 8.7 0 0 1 1.719-0.893l0.684-0.2c0.234-0.066 0.462-0.112 0.686-0.135 0.125 0.01 0.256 0.008 0.393-0.006s0.279-0.018 0.429-0.011c0.076 0.015 0.175 0.026 0.3 0.035 0.126 0.009 0.238 0.031 0.34 0.063 0.174 0.006 0.35 0.042 0.527 0.111 0.252 0.084 0.332 0.227 0.242 0.433a2.08 2.08 0 0 1-0.425 0.6c0.401 0.09 0.817 0.212 1.249 0.364a14.728 14.728 0 0 1 3.364 1.885c0.487 0.365 0.958 0.76 1.412 1.183 0.453 0.423 0.875 0.866 1.269 1.327 0.34 0.403 0.65 0.829 0.931 1.28s0.518 0.93 0.713 1.434a0.222 0.222 0 0 1-0.042-0.095 0.281 0.281 0 0 0-0.046-0.095z m-2.841 5.356c-0.02-0.456-0.063-0.914-0.133-1.376a5.895 5.895 0 0 0-0.352-1.321 0.847 0.847 0 0 1-0.086-0.254 0.191 0.191 0 0 0 0.022 0.096 0.113 0.113 0 0 1 0.021 0.063 5.836 5.836 0 0 0-0.53-1.075c-0.213-0.338-0.451-0.68-0.714-1.023a13.526 13.526 0 0 0-1.193-1.318 24.959 24.959 0 0 0-1.339-1.207 14.785 14.785 0 0 0-1.463-1.079 10.953 10.953 0 0 0-1.644-0.864c-0.48-0.191-0.972-0.349-1.476-0.473s-1.028-0.18-1.575-0.168l-0.484 0.049a0.554 0.554 0 0 1-0.105 0.141 18.96 18.96 0 0 1-0.203 0.527c-0.068 0.17-0.148 0.348-0.239 0.531l-0.199 0.609a5.223 5.223 0 0 1-0.422 0.632l-0.323 0.326-0.108 0.109 0.002 0.033a16.435 16.435 0 0 0-0.413 2.673 19.3 19.3 0 0 0-0.003 2.667c0.041 0.998 0.149 1.985 0.327 2.959 0.177 0.976 0.446 1.935 0.81 2.879 0.086 0.275 0.184 0.537 0.293 0.788 0.11 0.251 0.232 0.5 0.368 0.748 0.377 0.704 0.847 1.364 1.407 1.984a5.943 5.943 0 0 0 2.059 1.46 6.81 6.81 0 0 0 3.01 0.548 4.55 4.55 0 0 0 1.041-0.171 0.817 0.817 0 0 1 0.184-0.067 0.83 0.83 0 0 0 0.184-0.067 0.174 0.174 0 0 1 0.109-0.044c-0.001-0.021 0.012-0.033 0.037-0.036l0.035-0.037c0.024-0.002 0.037-0.015 0.036-0.036 0.023-0.002 0.061-0.027 0.108-0.076l0.073-0.073a0.274 0.274 0 0 0 0.052-0.071 0.222 0.222 0 0 1 0.091-0.073 0.585 0.585 0 0 0 0.106-0.143 0.583 0.583 0 0 1 0.105-0.141 10.2 10.2 0 0 0 0.406-0.58c0.129-0.198 0.251-0.392 0.368-0.578a16.2 16.2 0 0 0 1.378-3.769c0.021-0.068 0.037-0.129 0.047-0.186a0.748 0.748 0 0 0 0.012-0.181c0.204-1.088 0.308-2.202 0.313-3.335z m-2.877 9.089a0.825 0.825 0 0 1 0.126-0.111c0.036-0.024-0.031 0.025-0.2 0.151l0.074-0.04zM627.432 580.214c0.333 0.795 0.528 1.624 0.589 2.491 0.061 0.866 0.046 1.729-0.043 2.588a19.458 19.458 0 0 1-0.802 3.646 15.544 15.544 0 0 1-1.633 3.469c-0.397 0.65-0.863 1.265-1.401 1.842a12.655 12.655 0 0 1-1.783 1.586c-0.628 0.5-1.318 0.945-2.074 1.338a7.693 7.693 0 0 1-2.396 0.781 7.586 7.586 0 0 1-3.164-0.204c-1.021-0.29-1.906-0.757-2.654-1.401a7.833 7.833 0 0 1-1.749-2.129 16.486 16.486 0 0 1-1.13-2.486c-0.676-1.895-1.032-3.897-1.068-6.009a25.22 25.22 0 0 1 0.134-3.104c0.107-1.024 0.314-2.043 0.621-3.056a13.15 13.15 0 0 1 1.173-2.816c0.5-0.889 1.145-1.723 1.934-2.5a12.08 12.08 0 0 1 1.702-1.317 8.694 8.694 0 0 1 1.719-0.892c0.223-0.066 0.449-0.133 0.683-0.2 0.234-0.067 0.463-0.112 0.687-0.135 0.124 0.01 0.255 0.007 0.392-0.007s0.279-0.018 0.429-0.011c0.076 0.015 0.176 0.026 0.301 0.036 0.125 0.009 0.238 0.03 0.339 0.063 0.174 0.005 0.35 0.041 0.527 0.11 0.252 0.085 0.333 0.228 0.242 0.433a2.043 2.043 0 0 1-0.424 0.6c0.401 0.09 0.816 0.212 1.248 0.364 0.606 0.245 1.19 0.523 1.752 0.838s1.098 0.664 1.612 1.048c0.488 0.365 0.958 0.759 1.412 1.182 0.453 0.424 0.876 0.866 1.269 1.328 0.34 0.402 0.65 0.828 0.931 1.279 0.28 0.452 0.518 0.93 0.713 1.434a0.215 0.215 0 0 1-0.042-0.094 0.293 0.293 0 0 0-0.046-0.095z m-2.842 5.355c-0.02-0.456-0.063-0.915-0.132-1.377s-0.187-0.902-0.353-1.321a0.831 0.831 0 0 1-0.085-0.253 0.207 0.207 0 0 0 0.021 0.096 0.113 0.113 0 0 1 0.021 0.063 5.801 5.801 0 0 0-0.529-1.075 13.51 13.51 0 0 0-0.715-1.023 13.655 13.655 0 0 0-1.193-1.319 24.92 24.92 0 0 0-1.338-1.206 14.64 14.64 0 0 0-1.464-1.079 10.93 10.93 0 0 0-1.642-0.864 11.25 11.25 0 0 0-1.478-0.474 6.003 6.003 0 0 0-1.575-0.167l-0.483 0.049a0.597 0.597 0 0 1-0.106 0.141 15.34 15.34 0 0 1-0.203 0.526 7.033 7.033 0 0 1-0.238 0.532l-0.2 0.608a5.035 5.035 0 0 1-0.422 0.632l-0.323 0.327-0.107 0.108 0.002 0.033a16.576 16.576 0 0 0-0.414 2.674 19.3 19.3 0 0 0-0.002 2.667c0.041 0.998 0.148 1.984 0.327 2.958 0.176 0.976 0.446 1.936 0.809 2.879a7.7 7.7 0 0 0 0.294 0.788 10.031 10.031 0 0 0 1.774 2.733 5.954 5.954 0 0 0 2.059 1.459c0.938 0.407 1.942 0.59 3.01 0.548a4.55 4.55 0 0 0 1.041-0.171 0.855 0.855 0 0 1 0.184-0.067 0.766 0.766 0 0 0 0.184-0.067c0.024-0.024 0.061-0.038 0.11-0.044-0.001-0.021 0.012-0.033 0.036-0.035l0.035-0.037c0.024-0.003 0.037-0.015 0.036-0.036 0.024-0.003 0.062-0.027 0.108-0.077l0.073-0.072a0.319 0.319 0 0 0 0.053-0.071 0.233 0.233 0 0 1 0.09-0.074 0.587 0.587 0 0 0 0.107-0.142 0.558 0.558 0 0 1 0.104-0.141c0.143-0.189 0.277-0.383 0.407-0.581 0.128-0.198 0.251-0.391 0.368-0.577a16.205 16.205 0 0 0 1.377-3.77c0.021-0.067 0.038-0.129 0.048-0.185a0.751 0.751 0 0 0 0.012-0.181c0.203-1.089 0.308-2.201 0.312-3.335z m-2.877 9.089a0.95 0.95 0 0 1 0.126-0.112c0.036-0.024-0.03 0.026-0.2 0.151l0.074-0.039zM674.009 575.519c0.332 0.796 0.527 1.625 0.588 2.491 0.061 0.867 0.046 1.729-0.043 2.589a19.396 19.396 0 0 1-0.802 3.646 15.537 15.537 0 0 1-1.633 3.468 11.5 11.5 0 0 1-1.4 1.843 12.67 12.67 0 0 1-1.784 1.586c-0.627 0.5-1.318 0.944-2.074 1.338a7.709 7.709 0 0 1-2.396 0.78 7.608 7.608 0 0 1-3.165-0.203c-1.021-0.29-1.905-0.758-2.653-1.401a7.849 7.849 0 0 1-1.75-2.129 16.394 16.394 0 0 1-1.129-2.487c-0.676-1.894-1.033-3.896-1.068-6.008-0.019-1.045 0.025-2.08 0.133-3.104a16.38 16.38 0 0 1 0.622-3.056c0.283-0.987 0.674-1.926 1.173-2.817a11.277 11.277 0 0 1 1.933-2.5 12.19 12.19 0 0 1 1.702-1.316 8.645 8.645 0 0 1 1.719-0.893c0.223-0.066 0.45-0.133 0.684-0.2 0.233-0.066 0.462-0.112 0.686-0.135 0.124 0.01 0.255 0.008 0.392-0.006s0.28-0.018 0.43-0.011c0.075 0.015 0.175 0.026 0.3 0.035 0.126 0.009 0.238 0.031 0.34 0.063 0.174 0.005 0.35 0.042 0.527 0.111 0.252 0.084 0.332 0.228 0.242 0.433a2.08 2.08 0 0 1-0.425 0.6c0.401 0.09 0.817 0.212 1.249 0.364a14.728 14.728 0 0 1 3.364 1.885c0.487 0.366 0.959 0.76 1.412 1.183 0.452 0.423 0.875 0.865 1.268 1.327 0.341 0.403 0.65 0.829 0.932 1.28 0.279 0.451 0.517 0.93 0.712 1.434a0.228 0.228 0 0 1-0.041-0.094 0.277 0.277 0 0 0-0.045-0.096z m-2.842 5.355c-0.02-0.456-0.063-0.914-0.133-1.376a5.895 5.895 0 0 0-0.352-1.321 0.847 0.847 0 0 1-0.086-0.254 0.191 0.191 0 0 0 0.022 0.096 0.123 0.123 0 0 1 0.022 0.063 5.97 5.97 0 0 0-0.531-1.075c-0.214-0.338-0.452-0.68-0.714-1.022a13.422 13.422 0 0 0-1.193-1.319 24.959 24.959 0 0 0-1.339-1.207 14.785 14.785 0 0 0-1.463-1.079 10.99 10.99 0 0 0-1.643-0.864 11.348 11.348 0 0 0-1.478-0.473 5.995 5.995 0 0 0-1.574-0.168l-0.484 0.049a0.622 0.622 0 0 1-0.105 0.142 24.52 24.52 0 0 1-0.203 0.526c-0.068 0.17-0.148 0.348-0.239 0.532l-0.2 0.608a5.096 5.096 0 0 1-0.421 0.632l-0.324 0.326-0.107 0.109 0.002 0.033a16.43 16.43 0 0 0-0.413 2.674 19.13 19.13 0 0 0-0.003 2.666c0.041 0.998 0.149 1.985 0.327 2.959 0.176 0.976 0.446 1.935 0.81 2.879 0.086 0.275 0.184 0.537 0.293 0.788 0.11 0.251 0.232 0.5 0.368 0.748a9.961 9.961 0 0 0 1.407 1.984 5.94 5.94 0 0 0 2.058 1.46c0.938 0.407 1.942 0.59 3.011 0.547a4.482 4.482 0 0 0 1.04-0.17 0.797 0.797 0 0 1 0.185-0.067 0.83 0.83 0 0 0 0.184-0.067c0.023-0.024 0.06-0.039 0.109-0.044-0.001-0.021 0.012-0.033 0.037-0.036l0.035-0.037c0.023-0.002 0.036-0.014 0.035-0.035 0.024-0.003 0.062-0.028 0.109-0.077l0.072-0.073a0.294 0.294 0 0 0 0.053-0.07 0.215 0.215 0 0 1 0.091-0.074 0.612 0.612 0 0 0 0.106-0.143 0.583 0.583 0 0 1 0.105-0.141c0.143-0.189 0.276-0.382 0.406-0.58 0.129-0.198 0.251-0.392 0.368-0.578a16.152 16.152 0 0 0 1.377-3.769c0.021-0.067 0.038-0.13 0.048-0.186a0.748 0.748 0 0 0 0.012-0.181c0.205-1.088 0.308-2.201 0.313-3.335z m-2.878 9.089a0.876 0.876 0 0 1 0.127-0.111c0.036-0.024-0.031 0.025-0.2 0.151l0.073-0.04zM720.585 570.824c0.333 0.795 0.528 1.625 0.589 2.491s0.046 1.729-0.044 2.588a19.301 19.301 0 0 1-0.802 3.646 15.496 15.496 0 0 1-1.632 3.469 11.5 11.5 0 0 1-1.401 1.842 12.655 12.655 0 0 1-1.783 1.586c-0.628 0.5-1.318 0.945-2.074 1.338a7.693 7.693 0 0 1-2.396 0.781 7.602 7.602 0 0 1-3.164-0.204c-1.021-0.29-1.906-0.757-2.654-1.401a7.815 7.815 0 0 1-1.749-2.129 16.387 16.387 0 0 1-1.13-2.486c-0.676-1.895-1.033-3.897-1.068-6.009a25.22 25.22 0 0 1 0.134-3.104c0.107-1.024 0.314-2.043 0.621-3.055 0.283-0.988 0.674-1.927 1.173-2.817 0.5-0.889 1.145-1.723 1.934-2.5a12.006 12.006 0 0 1 1.702-1.317 8.694 8.694 0 0 1 1.719-0.892c0.222-0.066 0.449-0.133 0.683-0.2 0.234-0.067 0.463-0.112 0.686-0.135 0.125 0.01 0.255 0.008 0.392-0.007 0.137-0.014 0.28-0.017 0.43-0.011 0.076 0.016 0.175 0.026 0.301 0.035 0.125 0.01 0.237 0.031 0.339 0.064 0.174 0.005 0.35 0.041 0.527 0.11 0.252 0.085 0.333 0.228 0.242 0.433a2.047 2.047 0 0 1-0.425 0.6c0.401 0.09 0.817 0.212 1.249 0.365 0.606 0.244 1.19 0.522 1.752 0.837 0.561 0.314 1.098 0.664 1.612 1.048 0.488 0.365 0.959 0.759 1.412 1.182 0.453 0.424 0.876 0.866 1.269 1.328 0.34 0.402 0.651 0.828 0.931 1.279 0.28 0.451 0.518 0.93 0.713 1.434a0.215 0.215 0 0 1-0.042-0.094 0.293 0.293 0 0 0-0.046-0.095z m-2.842 5.356c-0.02-0.456-0.063-0.915-0.133-1.377a5.87 5.87 0 0 0-0.352-1.321 0.844 0.844 0 0 1-0.086-0.253c0.001 0.043 0.009 0.075 0.022 0.096s0.021 0.042 0.022 0.063a5.868 5.868 0 0 0-0.53-1.075c-0.214-0.339-0.452-0.68-0.715-1.023a13.655 13.655 0 0 0-1.193-1.319 24.878 24.878 0 0 0-1.338-1.206 14.926 14.926 0 0 0-1.464-1.08 11.03 11.03 0 0 0-1.643-0.863c-0.481-0.192-0.973-0.35-1.477-0.474a6.007 6.007 0 0 0-1.575-0.167l-0.484 0.049a0.565 0.565 0 0 1-0.105 0.141c-0.067 0.182-0.135 0.357-0.203 0.526a7.033 7.033 0 0 1-0.238 0.532l-0.2 0.608a5.146 5.146 0 0 1-0.422 0.632l-0.323 0.327-0.108 0.108 0.002 0.033c-0.212 0.894-0.35 1.785-0.413 2.674-0.062 0.89-0.063 1.778-0.002 2.666 0.041 0.998 0.148 1.986 0.327 2.959 0.176 0.976 0.446 1.936 0.809 2.879 0.087 0.276 0.184 0.538 0.294 0.789a10.031 10.031 0 0 0 1.774 2.732 5.941 5.941 0 0 0 2.059 1.459c0.938 0.408 1.942 0.59 3.01 0.548a4.55 4.55 0 0 0 1.041-0.171 0.836 0.836 0 0 1 0.184-0.067 0.81 0.81 0 0 0 0.184-0.067 0.182 0.182 0 0 1 0.109-0.043c-0.001-0.021 0.012-0.034 0.037-0.036l0.035-0.037c0.024-0.003 0.037-0.015 0.036-0.036 0.024-0.002 0.061-0.027 0.108-0.076l0.073-0.073a0.319 0.319 0 0 0 0.053-0.071c0.011-0.021 0.04-0.047 0.09-0.074a0.574 0.574 0 0 0 0.106-0.142 0.568 0.568 0 0 1 0.105-0.142c0.143-0.188 0.276-0.382 0.407-0.58 0.128-0.198 0.25-0.391 0.368-0.577a16.214 16.214 0 0 0 1.377-3.769c0.021-0.068 0.038-0.13 0.047-0.186a0.751 0.751 0 0 0 0.012-0.181 18.44 18.44 0 0 0 0.313-3.335z m-2.877 9.089a0.891 0.891 0 0 1 0.126-0.112c0.036-0.023-0.031 0.026-0.2 0.152l0.074-0.04z" fill="" p-id="2542"></path><path d="M502.988 573.352l-17.567 31.247 19.436 14.285z" fill="#F4B65B" p-id="2543"></path><path d="M504.857 621.884a2.99 2.99 0 0 1-1.776-0.583l-19.437-14.285a3 3 0 0 1-0.839-3.888l17.567-31.247a2.999 2.999 0 1 1 5.612 1.347l1.869 45.532a2.997 2.997 0 0 1-1.588 2.771 2.97 2.97 0 0 1-1.408 0.353z m-15.52-18.13l12.267 9.015-1.18-28.735-11.087 19.72z" fill="#280D0D" p-id="2544"></path><path d="M348.822 664.646a5 5 0 0 1-4.936-4.201c-5.828-35.994-0.301-272.552-0.063-282.604a5 5 0 0 1 4.999-4.882c22.456 0 56.172-3.075 91.866-6.332 33.269-3.035 67.67-6.172 98.408-7.423 125.04-5.087 243.656-26.448 244.84-26.663a5.003 5.003 0 0 1 5.814 4.03c4.992 27.589 13.481 261.497 13.841 271.441a5.002 5.002 0 0 1-2.18 4.311c-1.934 1.318-6.461 4.406-66.223 13.251-35.329 5.229-82.588 11.345-133.068 17.219-86.625 10.082-204.94 21.853-253.298 21.853z m4.889-281.729c-0.745 33.361-4.87 228.577-0.488 271.699 50.141-0.656 162.949-11.907 246.268-21.583 110.354-12.815 179.481-23.603 193.982-28.091-1.04-28.25-8.264-221.365-12.878-261.664-24.179 4.143-130.106 21.404-241.092 25.919-30.486 1.24-64.76 4.367-97.905 7.39-33.453 3.051-65.18 5.945-87.887 6.33zM203.289 491.113c16.203 3.422 32.158 7.862 48 12.667 1.856 0.563 2.644-2.333 0.798-2.893-15.842-4.805-31.797-9.245-48-12.667-1.887-0.398-2.69 2.493-0.798 2.893zM201.598 496.962c13.232 6.495 27.346 10.745 41.025 16.151 1.801 0.712 2.575-2.19 0.798-2.893-13.437-5.31-27.31-9.468-40.308-15.849-1.731-0.849-3.252 1.738-1.515 2.591zM205.688 475.833c10.349 0.845 20.289 3.927 30.268 6.613 1.871 0.504 2.664-2.39 0.798-2.893-10.249-2.759-20.438-5.852-31.065-6.72-1.93-0.157-1.915 2.844-0.001 3zM204.355 484.5c4.127 0.048 8.191 0.692 12.268 1.28 1.891 0.272 2.706-2.618 0.798-2.893-4.338-0.625-8.673-1.336-13.065-1.387-1.937-0.022-1.935 2.978-0.001 3zM207.021 451.833c6.509 0.74 12.835 2.519 19.333 3.333 1.916 0.24 1.893-2.763 0-3-6.497-0.814-12.821-2.593-19.333-3.333-1.92-0.218-1.899 2.785 0 3zM202.623 461.78c4.218 0.695 8.449 1.305 12.667 2 1.892 0.312 2.703-2.579 0.798-2.893-4.218-0.695-8.449-1.305-12.667-2-1.893-0.312-2.704 2.579-0.798 2.893z" fill="#280D0D" p-id="2545"></path></svg>