<?xml version="1.0" standalone="no"?><!DOCTYPE svg PUBLIC "-//W3C//DTD SVG 1.1//EN" "http://www.w3.org/Graphics/SVG/1.1/DTD/svg11.dtd"><svg t="1528985887809" class="icon" style="" viewBox="0 0 1024 1024" version="1.1" xmlns="http://www.w3.org/2000/svg" p-id="2350" xmlns:xlink="http://www.w3.org/1999/xlink" width="80" height="80"><defs><style type="text/css"></style></defs><path d="M510.777 513.223m-418.146 0a418.146 418.146 0 1 0 836.292 0 418.146 418.146 0 1 0-836.292 0Z" fill="#FFD7D7" p-id="2351"></path><path d="M479.86 198.314l288.289 142.407L517.17 927.004l-334.273-143.84z" fill="#FF76C4" p-id="2352"></path><path d="M594.723 515l56.971 13.562-160.492 347.983L231.715 759.55l45.741-91.05z" fill="#FC5BBF" p-id="2353"></path><path d="M679.113 452.229c-0.13 0.45-0.276 0.894-0.438 1.333L680 452l-0.887 0.229zM543.296 596.01c-30.858 34.972-185.843 192.303-187.405 193.889-3.691 3.818-8.695 5.941-14.056 5.941h-0.001a19.5 19.5 0 0 1-13.618-5.507l-95.998-92.79-15.18 30.112s103.834 87.171 117.44 93.485c20.314 9.426 263.237-272.739 329.119-349.878-26.722 26.961-95.665 96.828-120.301 124.748z" fill="#FC4FBA" p-id="2354"></path><path d="M521.767 928.972a5 5 0 0 1-6.573 2.625L180.92 787.757a4.998 4.998 0 0 1-2.481-6.857l46.096-90.784-123.304-119.184c-5.079-4.909-6.906-11.918-5.479-18.356l-1.241 0.471s-1.88 55.293 3.26 63.953c5.14 8.661 94.266 79.554 94.266 79.554S155.425 749.482 145 780.528c-2.996 8.922 4.476 21.935 7.42 24.544C175.667 825.667 500.497 955.938 528.748 949c11.8-2.898 45.506-103.921 79.513-222.079l-86.494 202.051z" fill="#280D0D" p-id="2355"></path><path d="M590.273 618.859a4.976 4.976 0 0 1-2.097-0.463l-203.327-94.095a5.001 5.001 0 0 1 4.2-9.076l203.327 94.095a5.001 5.001 0 0 1-2.103 9.539zM577.665 646.103a4.976 4.976 0 0 1-2.097-0.463l-203.327-94.095a5.001 5.001 0 0 1 4.2-9.076l203.327 94.095a5.001 5.001 0 0 1-2.103 9.539zM565.057 673.347a4.976 4.976 0 0 1-2.097-0.463l-203.327-94.095a5.001 5.001 0 0 1 4.2-9.076l203.327 94.095a5.001 5.001 0 0 1-2.103 9.539zM552.45 700.591a4.976 4.976 0 0 1-2.097-0.463l-203.327-94.095a5.001 5.001 0 0 1 4.2-9.076l203.327 94.095a5.001 5.001 0 0 1-2.103 9.539zM539.841 727.835a4.976 4.976 0 0 1-2.097-0.463l-203.326-94.095a5.001 5.001 0 0 1 4.2-9.076l203.326 94.095a5.001 5.001 0 0 1-2.103 9.539zM527.233 755.08a4.976 4.976 0 0 1-2.097-0.463L321.81 660.522a5.001 5.001 0 0 1 4.2-9.076l203.326 94.095a5.001 5.001 0 0 1-2.103 9.539zM514.943 781.638a4.976 4.976 0 0 1-2.097-0.463L309.519 687.08a5.001 5.001 0 0 1 4.2-9.076l203.327 94.095a5.001 5.001 0 0 1-2.103 9.539zM502.653 808.196a4.976 4.976 0 0 1-2.097-0.463l-203.327-94.095a5.001 5.001 0 0 1 4.2-9.076l203.327 94.095a5.001 5.001 0 0 1-2.103 9.539zM490.363 834.753a4.976 4.976 0 0 1-2.097-0.463l-203.327-94.095a5.001 5.001 0 0 1 4.2-9.076l203.327 94.095a5.001 5.001 0 0 1-2.103 9.539z" fill="#FF76C4" p-id="2356"></path><path d="M517.17 932.004a5.001 5.001 0 0 1-1.976-0.407L180.92 787.757a4.998 4.998 0 0 1-2.481-6.857l296.963-584.85a4.998 4.998 0 0 1 6.672-2.219l288.289 142.405a5.001 5.001 0 0 1 2.382 6.451L521.767 928.972a5 5 0 0 1-4.597 3.032zM189.767 780.677l324.778 139.754 247.144-577.324-279.61-138.119-292.312 575.689z" fill="#280D0D" p-id="2357"></path><path d="M638.69 246.767l-201.607-35.086a14.593 14.593 0 0 0-12.997 4.236s-79.97 72.461-148.973 143.514c-53.237 54.818-170.757 187.267-170.757 187.267-5.602 5.796-5.445 15.036 0.351 20.639l226.985 219.402c5.796 5.602 15.036 5.445 20.639-0.351 0 0 156.093-158.414 187.217-193.688s131.23-135.765 131.23-135.765a14.597 14.597 0 0 0 3.98-12.023l-24.095-185.644a14.599 14.599 0 0 0-11.973-12.501z" fill="#FFF6EE" p-id="2358"></path><path d="M613.959 270.981L450.33 245.875c-4.179-0.671-8.477 0.786-11.475 3.888 0 0-71.183 64.739-132.711 128.102-47.47 48.886-160.047 176.047-160.047 176.047-4.996 5.168-4.973 13.295 0.052 18.152l187.7 162.588c5.024 4.857 13.147 4.604 18.143-0.565 0 0 142.86-134.47 170.653-165.887 27.792-31.417 117.021-121.065 117.021-121.065 2.752-2.848 4.095-6.759 3.647-10.626l-18.987-154.68c-0.645-5.566-4.846-9.962-10.367-10.848z" fill="#FFCCC0" p-id="2359"></path><path d="M280.992 405.89l229.785 175.254-158.785 152.943s-4.992 4.049-9.242 4.337c-4.65 0.315-9.829-3.744-9.829-3.744l-182.09-157.683s-8.466-6.952-8.466-12.747c0-6.557 3.364-10.25 3.364-10.25l135.263-148.11z" fill="#FF8888" p-id="2360"></path><path d="M578.289 311.125m-29.595 0a29.595 29.595 0 1 0 59.19 0 29.595 29.595 0 1 0-59.19 0Z" fill="#FFF6EE" p-id="2361"></path><path d="M578.272 345.721a34.653 34.653 0 0 1-21.97-7.887c-7.134-5.873-11.555-14.173-12.446-23.37-0.892-9.197 1.851-18.192 7.724-25.326 6.596-8.013 16.337-12.608 26.726-12.608 7.99 0 15.792 2.801 21.971 7.887 7.134 5.873 11.555 14.173 12.446 23.37 0.892 9.197-1.851 18.192-7.724 25.326-6.598 8.012-16.338 12.608-26.727 12.608z m0.033-59.192a24.53 24.53 0 0 0-19.005 8.964c-4.175 5.072-6.126 11.467-5.492 18.006s3.776 12.439 8.849 16.614a24.632 24.632 0 0 0 15.615 5.607 24.528 24.528 0 0 0 19.005-8.964c4.175-5.072 6.126-11.467 5.492-18.006s-3.776-12.439-8.849-16.614a24.635 24.635 0 0 0-15.615-5.607z" fill="#280D0D" p-id="2362"></path><path d="M741.405 136.564c-27.992-24.965-53.449-21.478-69.877-14.155-33.253 14.821-59.159 57.755-75.036 91.161a445.476 445.476 0 0 0-8.598 19.283l-149.953-26.097a19.646 19.646 0 0 0-3.362-0.291 19.697 19.697 0 0 0-13.965 5.852c-3.498 3.175-81.965 74.514-149.088 143.632-52.198 53.748-167.483 183.57-170.844 187.356-7.43 7.774-7.193 20.144 0.549 27.627l226.985 219.401a19.5 19.5 0 0 0 13.618 5.507h0.001c5.361 0 10.365-2.123 14.056-5.941 1.562-1.586 156.547-158.917 187.405-193.889 30.669-34.758 130.023-134.542 131.076-135.6a19.495 19.495 0 0 0 5.343-16.141L658.588 281.49a9.956 9.956 0 0 0 3.442-0.634c0.943-0.356 23.365-8.879 47.186-23.396 33.446-20.383 52.497-41.977 56.624-64.182 3.694-19.877-4.527-38.958-24.435-56.714z m-74.173 316.842c-1.002 1.006-100.569 101.004-131.436 135.985-30.678 34.768-185.469 191.903-187.063 193.521a9.513 9.513 0 0 1-6.899 2.927h-0.001a9.55 9.55 0 0 1-6.668-2.696L108.18 563.742c-3.804-3.677-3.907-9.764-0.23-13.569l0.145-0.156c1.174-1.324 118.054-132.992 170.604-187.102 68.097-70.12 147.945-142.569 148.744-143.293l0.238-0.23a9.644 9.644 0 0 1 6.898-2.927c0.55 0 1.104 0.048 1.644 0.141l147.828 25.727c-9.946 25.345-15.735 46.746-15.763 53.961-0.033 8.592 4.212 15.788 11.08 18.781a17.567 17.567 0 0 0 7.077 1.474c5.252 0 11.912-2.267 19.725-9.583 4.031-3.776 4.238-10.104 0.463-14.135-3.776-4.031-10.104-4.239-14.134-0.463-1.77 1.657-3.153 2.655-4.157 3.255 0.597-5.729 6.119-25.619 15.848-49.786l33.64 5.854a9.553 9.553 0 0 1 7.87 8.219l24.095 185.644c0.378 2.914-0.575 5.794-2.563 7.852z m78.947-263.795c-6.13 33.058-66.137 62.841-90.155 72.128l-0.404-3.115c-1.111-8.559-7.571-15.304-16.073-16.783l-31.417-5.468c2.1-4.882 4.351-9.876 6.757-14.913 20.454-42.824 43.61-71.579 65.201-80.969 16.135-7.019 31.839-3.421 48.005 10.998 14.524 12.955 20.44 25.425 18.086 38.122z" fill="#280D0D" p-id="2363"></path><path d="M526.76 445.964a4.979 4.979 0 0 1-3.044-1.036l-92.227-70.914a5 5 0 0 1 6.096-7.928L529.811 437a5 5 0 0 1-3.051 8.964z m-12.914-44.076a4.979 4.979 0 0 1-3.044-1.036l-33.199-25.527a5 5 0 0 1 6.096-7.928l33.199 25.527a5 5 0 0 1-3.052 8.964z m-22.813 49.131a4.979 4.979 0 0 1-3.044-1.036l-56.5-43.442a5 5 0 0 1 6.096-7.928l56.5 43.442a5 5 0 0 1-3.052 8.964z m-4.782 30.868a4.979 4.979 0 0 1-3.044-1.036l-85.832-65.997a5 5 0 0 1 6.096-7.928l85.832 65.997a5 5 0 0 1-3.052 8.964z m4.782 38.109a4.979 4.979 0 0 1-3.044-1.036L355.231 416.882a5 5 0 0 1 6.096-7.928l132.757 102.078a5 5 0 0 1-3.051 8.964z" fill="#FF8888" p-id="2364"></path><path d="M393.436 277.51m-9.75 0a9.75 9.75 0 1 0 19.5 0 9.75 9.75 0 1 0-19.5 0Z" fill="#FF76C4" p-id="2365"></path><path d="M320.383 343.156m-9.75 0a9.75 9.75 0 1 0 19.5 0 9.75 9.75 0 1 0-19.5 0Z" fill="#FF76C4" p-id="2366"></path><path d="M256.37 407.942m-9.75 0a9.75 9.75 0 1 0 19.5 0 9.75 9.75 0 1 0-19.5 0Z" fill="#FF76C4" p-id="2367"></path><path d="M202.107 469.572m-9.75 0a9.75 9.75 0 1 0 19.5 0 9.75 9.75 0 1 0-19.5 0Z" fill="#FF76C4" p-id="2368"></path><path d="M142.92 537.106m-9.75 0a9.75 9.75 0 1 0 19.5 0 9.75 9.75 0 1 0-19.5 0Z" fill="#FF76C4" p-id="2369"></path><path d="M173.701 615.435m-9.75 0a9.75 9.75 0 1 0 19.5 0 9.75 9.75 0 1 0-19.5 0Z" fill="#FF76C4" p-id="2370"></path><path d="M251.554 684.443m-9.75 0a9.75 9.75 0 1 0 19.5 0 9.75 9.75 0 1 0-19.5 0Z" fill="#FF76C4" p-id="2371"></path><path d="M373.937 740.571m-9.75 0a9.75 9.75 0 1 0 19.5 0 9.75 9.75 0 1 0-19.5 0Z" fill="#FF76C4" p-id="2372"></path><path d="M514.403 595.936m-9.75 0a9.75 9.75 0 1 0 19.5 0 9.75 9.75 0 1 0-19.5 0Z" fill="#FF76C4" p-id="2373"></path><path d="M578.843 527.357m-9.75 0a9.75 9.75 0 1 0 19.5 0 9.75 9.75 0 1 0-19.5 0Z" fill="#FF76C4" p-id="2374"></path><path d="M652.248 450.978m-9.75 0a9.75 9.75 0 1 0 19.5 0 9.75 9.75 0 1 0-19.5 0Z" fill="#FF76C4" p-id="2375"></path><path d="M643.951 362.655m-9.75 0a9.75 9.75 0 1 0 19.5 0 9.75 9.75 0 1 0-19.5 0Z" fill="#FF76C4" p-id="2376"></path><path d="M630.695 267.76m-9.75 0a9.75 9.75 0 1 0 19.5 0 9.75 9.75 0 1 0-19.5 0Z" fill="#FF76C4" p-id="2377"></path><path d="M527.317 248.15m-9.75 0a9.75 9.75 0 1 0 19.5 0 9.75 9.75 0 1 0-19.5 0Z" fill="#FF76C4" p-id="2378"></path><path d="M289.25 493.25c6.449 0 6.449-10 0-10s-6.449 10 0 10zM272.435 497.617c-11.414 11.31-22.386 23.187-34.72 33.519-4.949 4.146 2.164 11.182 7.071 7.071 12.335-10.332 23.307-22.208 34.72-33.519 4.585-4.544-2.488-11.613-7.071-7.071z" fill="#FFFFFF" p-id="2379"></path><path d="M152.115 556.75s45.551-30.408 75.551-22.079 25.333 32.98 70 27.988 78.466-32.326 89.9-9.659 29.805 40.836 60.953 30.751 48.731 9.75 48.731 9.75L348.946 735.37a11.009 11.009 0 0 1-14.86 0.33L145.671 570.83c-4.221-3.693-2.97-10.555 2.282-12.521l4.162-1.559z" fill="#FC7A7A" p-id="2380"></path><path d="M184 613c1.935 0 1.935-3 0-3s-1.935 3 0 3zM199.004 652.383c25.688 0.877 51.386 0.306 77.01-1.711 1.915-0.151 1.93-3.152 0-3a683.792 683.792 0 0 1-77.01 1.711c-1.935-0.066-1.929 2.934 0 3zM190.494 641.69c15.001-0.279 30.003-0.328 45.005-0.145 1.935 0.024 1.933-2.976 0-3a1461.453 1461.453 0 0 0-45.005 0.145c-1.932 0.036-1.936 3.036 0 3zM245.5 641.5h5.5c1.935 0 1.935-3 0-3h-5.5c-1.935 0-1.935 3 0 3zM174.988 633.255c12.997-0.621 26.002-0.997 39.013-1.128 1.933-0.019 1.935-3.019 0-3-13.011 0.131-26.016 0.507-39.013 1.128-1.926 0.092-1.935 3.093 0 3zM160.999 622.472a605.147 605.147 0 0 1 35.001-0.454c1.936 0.031 1.933-2.969 0-3a605.147 605.147 0 0 0-35.001 0.454c-1.927 0.081-1.935 3.081 0 3zM204 622h5.5c1.935 0 1.935-3 0-3H204c-1.935 0-1.935 3 0 3zM220 631.5h9c1.935 0 1.935-3 0-3h-9c-1.935 0-1.935 3 0 3zM142.752 604.44a761.94 761.94 0 0 0 49.495-0.018c1.929-0.063 1.936-3.064 0-3a761.94 761.94 0 0 1-49.495 0.018c-1.935-0.062-1.929 2.938 0 3zM152.999 613.994a141.64 141.64 0 0 1 22.999-0.962c1.935 0.076 1.928-2.924 0-3-7.701-0.303-15.35 0.016-22.999 0.962-1.894 0.234-1.917 3.237 0 3zM196.303 604.422h10.5c1.935 0 1.935-3 0-3h-10.5c-1.934 0-1.934 3 0 3zM128.995 589.938l49.027-3.636c1.917-0.142 1.931-3.143 0-3l-49.027 3.636c-1.917 0.142-1.931 3.143 0 3zM115.007 574.685l42.495-1.638c1.928-0.074 1.935-3.075 0-3l-42.495 1.638c-1.928 0.074-1.935 3.075 0 3zM124 582h19.5c1.935 0 1.935-3 0-3H124c-1.935 0-1.935 3 0 3zM150.5 582h8.5c1.935 0 1.935-3 0-3h-8.5c-1.935 0-1.935 3 0 3zM107.487 563.375a611.663 611.663 0 0 1 40.015-2.83c1.928-0.073 1.935-3.073 0-3a611.663 611.663 0 0 0-40.015 2.83c-1.905 0.198-1.924 3.2 0 3zM153.499 559.485l7.494-0.583c1.916-0.149 1.93-3.15 0-3l-7.494 0.583c-1.916 0.149-1.93 3.15 0 3zM106.997 549.283l29.501-0.406c1.933-0.027 1.936-3.027 0-3l-29.501 0.406c-1.933 0.027-1.936 3.027 0 3zM107 556.5h11c1.935 0 1.935-3 0-3h-11c-1.935 0-1.935 3 0 3zM126 555.5h3c1.935 0 1.935-3 0-3h-3c-1.935 0-1.935 3 0 3zM119.5 536.507a512.02 512.02 0 0 1 31.497 0.06c1.936 0.063 1.929-2.937 0-3a512.815 512.815 0 0 0-31.497-0.06c-1.93 0.055-1.935 3.056 0 3zM160 538.5h6c1.935 0 1.935-3 0-3h-6c-1.935 0-1.935 3 0 3zM145.5 549c1.935 0 1.935-3 0-3s-1.935 3 0 3zM167.5 578.5c1.935 0 1.935-3 0-3s-1.935 3 0 3zM192 628.5c1.935 0 1.935-3 0-3s-1.935 3 0 3zM262.5 644c1.935 0 1.935-3 0-3s-1.935 3 0 3z" fill="#280D0D" p-id="2381"></path></svg>