<?xml version="1.0" standalone="no"?><!DOCTYPE svg PUBLIC "-//W3C//DTD SVG 1.1//EN" "http://www.w3.org/Graphics/SVG/1.1/DTD/svg11.dtd"><svg t="1529911137532" class="icon" style="" viewBox="0 0 1024 1024" version="1.1" xmlns="http://www.w3.org/2000/svg" p-id="2031" xmlns:xlink="http://www.w3.org/1999/xlink" width="30" height="30"><defs><style type="text/css"></style></defs><path d="M491.533876 969.089389c-237.363036 0-430.483428-193.120392-430.483428-430.483428S254.17084 108.122533 491.533876 108.122533s430.483428 193.120392 430.483428 430.483428S728.896912 969.089389 491.533876 969.089389zM491.533876 170.841993c-202.777333 0-367.763968 164.986635-367.763968 367.763968s164.986635 367.763968 367.763968 367.763968 367.763968-164.986635 367.763968-367.763968S694.311209 170.841993 491.533876 170.841993z" p-id="2032" fill="#ff4444"></path><path d="M355.437222 684.788322c-12.617365 0-24.050766-7.574512-28.92989-19.252483l-72.683393-173.786045c-6.67605-15.986089 0.857531-34.361599 16.823154-41.037648 16.067954-6.696516 34.360576 0.857531 41.037648 16.823154l41.588187 99.44899 35.340903-97.979522c5.879917-16.292058 23.846104-24.744567 40.139186-18.86465 16.292058 5.879917 24.744567 23.846104 18.86465 40.139186l-62.678528 173.786045c-4.389984 12.168134-15.782451 20.396539-28.726252 20.722974C355.967294 684.788322 355.702258 684.788322 355.437222 684.788322z" p-id="2033" fill="#ff4444"></path><path d="M509.050832 681.644725c-17.313318 0-31.360242-14.046924-31.360242-31.360242L477.69059 476.662167c0-17.313318 14.046924-31.360242 31.360242-31.360242s31.360242 14.046924 31.360242 31.360242l0 173.622316C540.411073 667.597801 526.364149 681.644725 509.050832 681.644725z" p-id="2034" fill="#ff4444"></path><path d="M612.746542 681.644725c-17.313318 0-31.360242-14.046924-31.360242-31.360242L581.3863 476.662167c0-17.313318 14.046924-31.360242 31.360242-31.360242s31.360242 14.046924 31.360242 31.360242l0 173.622316C644.106784 667.597801 630.059859 681.644725 612.746542 681.644725z" p-id="2035" fill="#ff4444"></path><path d="M672.139234 622.089327c-49.550533 0-89.853447-40.301891-89.853447-89.853447s40.301891-89.853447 89.853447-89.853447 89.853447 40.301891 89.853447 89.853447S721.689766 622.089327 672.139234 622.089327zM672.139234 505.101893c-14.965853 0-27.133987 12.168134-27.133987 27.133987 0 14.965853 12.168134 27.133987 27.133987 27.133987s27.133987-12.168134 27.133987-27.133987C699.272197 517.270027 687.104063 505.101893 672.139234 505.101893z" p-id="2036" fill="#ff4444"></path></svg>