<?xml version="1.0" standalone="no"?><!DOCTYPE svg PUBLIC "-//W3C//DTD SVG 1.1//EN" "http://www.w3.org/Graphics/SVG/1.1/DTD/svg11.dtd"><svg t="1528985880009" class="icon" style="" viewBox="0 0 1024 1024" version="1.1" xmlns="http://www.w3.org/2000/svg" p-id="2188" xmlns:xlink="http://www.w3.org/1999/xlink" width="80" height="80"><defs><style type="text/css"></style></defs><path d="M510.777 513.223m-418.146 0a418.146 418.146 0 1 0 836.292 0 418.146 418.146 0 1 0-836.292 0Z" fill="#FFD7D7" p-id="2189"></path><path d="M742.178 255.184c-0.216-1.38-0.446-2.748-0.688-4.104l-0.798-4.47-3.088-3.33c-12.39-13.361-29.561-20.135-51.034-20.135-15.948 0-34.056 3.771-53.822 11.21L612.407 242l13.887 16.71c0.283 0.357 1.308 2.098 2.304 5.333 0.042 0.156 0.087 0.312 0.136 0.477 6.483 21.926 2.418 63.979-10.877 112.49-15.508 56.596-42.213 120.012-77.229 183.394-39.116 70.804-79.846 129.513-117.784 169.779-47.732 50.658-71.061 51.24-72.031 51.24-0.383 0-0.543-0.027-0.543-0.027 0.075 0.013 0.216 0.06 0.279 0.092l-3.392 6.325-21.289 4.883c5.235 27.004 24.073 73.488 91.414 81.399l5.037 0.592 4.411-2.506c39.363-22.373 80.836-61.954 123.268-117.643 30.23-39.677 60.367-86.601 89.576-139.469 39.278-71.097 69.467-143.086 87.305-208.184 16.48-60.146 21.627-111.185 15.299-151.701z" fill="#F456BF" p-id="2190"></path><path d="M422.319 879.687a4.96 4.96 0 0 1-0.584-0.034l-5.037-0.592c-70.498-8.282-90.243-57.069-95.738-85.413a5 5 0 0 1 3.791-5.825l19.074-4.375 2.318-4.322 4.136 2.218 0.833-4.876s-0.108-0.034-0.36-0.045c0.251-0.004 22.672-1.082 68.453-49.667 37.655-39.966 78.129-98.325 117.047-168.768 34.827-63.039 61.378-126.076 76.783-182.297 13.059-47.651 17.135-88.68 10.904-109.751a32.006 32.006 0 0 1-0.141-0.494c-0.693-2.232-1.333-3.424-1.512-3.734l-13.724-16.514a5 5 0 0 1 2.087-7.876l20.342-7.644c20.327-7.65 39.027-11.529 55.581-11.529 22.922 0 41.326 7.312 54.701 21.735l3.088 3.33a5.012 5.012 0 0 1 1.256 2.521l0.797 4.47c0.248 1.392 0.485 2.795 0.706 4.21 6.438 41.22 1.25 92.964-15.418 153.792-17.941 65.474-48.285 137.842-87.75 209.28-29.324 53.078-59.596 100.208-89.976 140.082-42.842 56.229-84.822 96.252-124.774 118.96l-4.411 2.506a5.027 5.027 0 0 1-2.472 0.652z m-90.52-83.222c6.229 26.025 25.668 65.568 86.066 72.664l3.409 0.401 2.985-1.696c38.773-22.038 79.74-61.176 121.761-116.327 30.084-39.487 60.088-86.205 89.177-138.857 39.089-70.756 69.124-142.365 86.859-207.087 16.292-59.457 21.4-109.792 15.182-149.607-0.21-1.344-0.435-2.677-0.67-3.998l-0.54-3.024-2.089-2.253c-11.405-12.298-27.342-18.534-47.368-18.534-15.346 0-32.861 3.664-52.061 10.89l-13.766 5.173 9.395 11.305 0.072 0.088c0.806 1.016 2.061 3.38 3.166 6.97 0.016 0.051 0.03 0.102 0.044 0.152l0.105 0.37c6.739 22.791 2.683 65.867-10.847 115.238-15.612 56.973-42.471 120.769-77.675 184.49-39.316 71.166-80.3 130.224-118.521 170.79-40.699 43.193-64.607 51.089-72.744 52.507l-2.175 4.057a5 5 0 0 1-3.289 2.511l-16.476 3.777z m18.294-14.066l-1.78 3.561a3.73 3.73 0 0 0 1.089 0.36l0.691-3.921z" fill="#280D0D" p-id="2191"></path><path d="M310.492 283.059s-113.403 53.748-78.091 206.824c7.06 30.605 25.232 54.203 25.232 54.203s-79.011 197.364-33.834 285.586 131.497 99.649 202.931 42.508l-122.081-35.565s-3.512-110.005 0-116.45c3.512-6.445 41.114-128.87 43.968-140.872 2.854-12.001-13.675-87.284-9.535-104.295 4.14-17.011-2.077-85.913 0-90.647 2.077-4.734-28.59-101.292-28.59-101.292z" fill="#280D0D" p-id="2192"></path><path d="M744.315 275.126c-0.653-11.507-2.824-24.041-2.824-24.041-1.238-6.944-2.822-13.609-4.708-19.811-12.64-41.556-37.848-61.894-56.768-71.638-12.052-6.206-25.488-9.352-39.936-9.352-27.07 0-71.821 11.953-131.283 68.894-45.926 43.978-92.045 106.764-133.373 181.57-53.184 96.269-94.314 190.021-115.812 263.99-13.046 44.892-19.082 83.354-17.942 114.315 2.222 60.259 30.706 88.388 54.21 101.374 16.857 9.313 35.34 14.035 54.935 14.035 24.361 0 49.903-7.497 75.917-22.282l41.089-28.957-46.927 0.148c-36.454-4.283-58.206-23.313-64.653-56.563l-0.1-0.515-0.134-0.507c-0.533-2.008-1.426-6.568-1.43-14.545l-0.002-0.234c-0.046-2.973 0.093-4.777 0.093-4.777l0.029-0.328 0.015-0.33c0.976-20.844 6.711-48.161 17.047-81.193 20.121-64.3 56.563-145.615 102.612-228.967 45.331-82.053 86.258-129.356 112.608-154.59 4.501-4.311 9.119-8.504 13.887-12.518 4.529-3.812 9.176-7.535 13.974-11.002 8.786-6.348 18.254-10.684 28.505-14.101 11.23-3.743 22.752-7.029 34.493-8.72 16.374-2.358 28.749 2.939 40.165 14.581 5.448 5.556 10.309 11.698 14.893 17.976 2.685 3.677 11.354 12.596 11.611 17.131-0.005-0.041 0.639-14.41-0.191-29.043z" fill="#FF76C4" p-id="2193"></path><path d="M350.813 899.462c-20.45 0-39.746-4.932-57.353-14.659-24.632-13.61-54.48-42.972-56.789-105.566-1.159-31.499 4.943-70.491 18.137-115.895 21.598-74.313 62.878-168.429 116.237-265.013 41.569-75.243 88.006-138.441 134.292-182.764 60.661-58.089 106.755-70.283 134.741-70.283 15.253 0 29.459 3.333 42.225 9.907 19.778 10.186 46.115 31.401 59.263 74.628 1.944 6.392 3.575 13.252 4.846 20.389 0.095 0.547 2.232 12.975 2.894 24.635 0.744 13.107 0.339 25.822 0.198 29.407h-0.001a5 5 0 0 1-9.99 0.214l-0.001-0.012c-0.344-2.031-5.375-8.03-7.523-10.592-1.267-1.51-2.36-2.814-3.134-3.874-5.292-7.247-9.875-12.784-14.425-17.424-9.244-9.428-18.252-13.632-29.208-13.632-2.132 0-4.377 0.168-6.674 0.499-9.839 1.417-20.209 4.043-33.625 8.515-10.888 3.629-19.517 7.89-27.157 13.411-4.189 3.027-8.665 6.552-13.683 10.775-4.451 3.747-8.916 7.771-13.648 12.303-26.1 24.994-66.664 71.896-111.69 153.396-45.892 83.069-82.193 164.056-102.216 228.042-10.208 32.624-15.869 59.517-16.824 79.934l-0.015 0.327a4.327 4.327 0 0 1-0.016 0.227l-0.023 0.252c-0.003 0.044-0.119 1.682-0.079 4.319l0.003 0.259c0.004 7.742 0.884 11.889 1.263 13.315l0.135 0.513c0.028 0.106 0.053 0.214 0.074 0.322l0.1 0.515c6.052 31.216 25.692 48.396 60.033 52.517l46.624-0.147h0.016a5 5 0 0 1 2.881 9.086l-41.089 28.958c-0.132 0.093-0.269 0.18-0.41 0.26-26.78 15.22-53.153 22.936-78.389 22.936z m289.266-744.178c-26.154 0-69.562 11.711-127.825 67.505-45.565 43.633-91.368 106.006-132.455 180.377-53.011 95.954-93.99 189.345-115.387 262.967-12.896 44.376-18.867 82.307-17.747 112.735 2.137 57.924 29.257 84.819 51.631 97.182 16.108 8.899 33.778 13.412 52.517 13.412 23.417 0 48.055-7.236 73.236-21.51l27.924-19.68-31.066 0.098c-0.215-0.012-0.401-0.011-0.599-0.034-19.165-2.252-34.738-8.517-46.288-18.622-11.631-10.176-19.266-24.292-22.69-41.956l-0.16-0.697c-0.593-2.235-1.591-7.271-1.595-15.819l-0.002-0.184c-0.049-3.142 0.101-5.129 0.107-5.212h0.005c0.005-0.105 0.013-0.2 0.02-0.284l0.01-0.222c0.996-21.275 6.806-49.016 17.27-82.457 20.218-64.608 56.8-146.252 103.007-229.892 45.635-82.603 86.925-130.309 113.527-155.783 4.889-4.681 9.509-8.846 14.125-12.731 5.209-4.384 9.875-8.057 14.266-11.229 8.487-6.132 17.973-10.833 29.852-14.792 14.003-4.667 24.909-7.42 35.361-8.925a57.026 57.026 0 0 1 8.1-0.601c13.673 0 25.223 5.285 36.348 16.631 4.896 4.994 9.777 10.881 15.361 18.528 0.575 0.788 1.617 2.03 2.72 3.345l0.065 0.078a268.82 268.82 0 0 0-0.394-12.102c-0.628-11.073-2.737-23.35-2.758-23.472-1.198-6.724-2.735-13.195-4.564-19.209-12.132-39.884-36.21-59.345-54.274-68.647-11.337-5.838-24.004-8.798-37.648-8.798z" fill="#280D0D" p-id="2194"></path><path d="M592.971 425.411c0 95.843-77.452 171.228-173.295 171.228S252.45 509.624 252.45 413.781s74.613-159.598 170.456-159.598 170.065 75.385 170.065 171.228z" fill="#FF76C4" p-id="2195"></path><path d="M419.676 601.639c-46.912 0-90.701-20.305-123.299-57.176-31.093-35.167-48.926-82.799-48.926-130.682 0-47.093 18.083-89.51 50.919-119.436 31.955-29.124 76.183-45.163 124.537-45.163 98.167 0 175.064 77.409 175.064 176.228 0 47.578-18.539 92.013-52.2 125.12-33.51 32.959-78.292 51.109-126.095 51.109z m3.231-342.456c-45.856 0-87.692 15.113-117.801 42.554-31.176 28.414-47.655 67.158-47.655 112.045 0 45.477 16.918 90.694 46.417 124.058 30.674 34.693 71.802 53.8 115.808 53.8 45.164 0 87.455-17.131 119.083-48.238 31.735-31.212 49.212-73.115 49.212-117.99 0-45.101-16.92-87.021-47.644-118.036-30.783-31.078-72.484-48.193-117.42-48.193z" fill="#280D0D" p-id="2196"></path><path d="M562.123 425.411c0 75.778-63.635 127.286-139.412 127.286s-132.87-59.654-132.87-135.431 57.092-126.079 132.87-126.079 139.412 58.447 139.412 134.224z" fill="#FFF6EE" p-id="2197"></path><path d="M422.711 557.697c-37.85 0-72.808-14.494-98.434-40.811-25.431-26.116-39.436-61.496-39.436-99.62 0-37.619 14.069-71.4 39.616-95.121 24.974-23.188 59.868-35.959 98.254-35.959 38.265 0 74.334 14.23 101.564 40.069 27.631 26.219 42.848 61.434 42.848 99.156 0 37.377-15.266 71.404-42.985 95.812-26.711 23.521-62.732 36.474-101.427 36.474z m0-261.511c-35.854 0-68.331 11.822-91.45 33.287-23.826 22.123-36.42 52.481-36.42 87.792 0 35.503 12.999 68.405 36.601 92.644 23.728 24.367 56.141 37.787 91.27 37.787 36.261 0 69.935-12.067 94.818-33.979 25.532-22.483 39.594-53.844 39.594-88.307 0-34.952-14.11-67.59-39.731-91.902-25.365-24.067-58.99-37.322-94.682-37.322z" fill="#280D0D" p-id="2198"></path><path d="M424.158 538.667a2.048 2.048 0 0 1 2.011-2.104 2.053 2.053 0 0 1 2.104 2.01 2.065 2.065 0 0 1-2.021 2.115h0.01-0.041a2.06 2.06 0 0 1-2.063-2.021z m-10.415 1.711a2.071 2.071 0 0 1-1.907-2.206 2.067 2.067 0 0 1 2.216-1.907 2.064 2.064 0 0 1 1.908 2.206 2.07 2.07 0 0 1-2.062 1.918c-0.052 0-0.104 0-0.155-0.011z m22.717-2.32a2.066 2.066 0 0 1 1.836-2.268 2.068 2.068 0 0 1 2.268 1.835 2.068 2.068 0 0 1-1.835 2.269c-0.072 0.01-0.145 0.01-0.216 0.01a2.065 2.065 0 0 1-2.053-1.846z m-35.142 0.794a2.072 2.072 0 0 1-1.681-2.383 2.069 2.069 0 0 1 2.392-1.681 2.077 2.077 0 0 1 1.682 2.393 2.074 2.074 0 0 1-2.032 1.702 2.174 2.174 0 0 1-0.361-0.031z m47.351-2.434a2.067 2.067 0 0 1 1.629-2.423 2.068 2.068 0 0 1 2.423 1.629 2.067 2.067 0 0 1-1.629 2.423 2.56 2.56 0 0 1-0.392 0.031 2.072 2.072 0 0 1-2.031-1.66z m-59.572-0.35a2.068 2.068 0 0 1-1.423-2.547 2.067 2.067 0 0 1 2.548-1.423 2.06 2.06 0 0 1 1.423 2.547 2.067 2.067 0 0 1-1.98 1.505 2.148 2.148 0 0 1-0.568-0.082z m71.596-2.361a2.067 2.067 0 0 1 1.413-2.557 2.045 2.045 0 0 1 2.547 1.412 2.068 2.068 0 0 1-1.403 2.558v-0.01a2.063 2.063 0 0 1-2.557-1.403z m-83.454-1.691a2.045 2.045 0 0 1-1.144-2.671 2.06 2.06 0 0 1 2.681-1.155 2.067 2.067 0 0 1 1.145 2.681 2.062 2.062 0 0 1-1.918 1.299 2 2 0 0 1-0.764-0.154z m95.179-2.094a2.063 2.063 0 0 1 1.175-2.671 2.05 2.05 0 0 1 2.671 1.165 2.058 2.058 0 0 1-1.165 2.671 2.068 2.068 0 0 1-2.681-1.165z m-106.552-3.186a2.053 2.053 0 0 1-0.856-2.784 2.06 2.06 0 0 1 3.64 1.928 2.051 2.051 0 0 1-1.816 1.093c-0.329 0-0.659-0.072-0.968-0.237z m117.884-1.671a2.059 2.059 0 0 1 0.908-2.774 2.05 2.05 0 0 1 2.763 0.907 2.054 2.054 0 0 1-0.897 2.764 2.054 2.054 0 0 1-2.774-0.897z m-128.629-4.795a2.07 2.07 0 0 1-0.547-2.867 2.06 2.06 0 0 1 2.867-0.557v0.011a2.054 2.054 0 0 1 0.546 2.856 2.072 2.072 0 0 1-1.711 0.907 2.081 2.081 0 0 1-1.155-0.35z m139.426-1.144a2.074 2.074 0 0 1 0.618-2.846 2.059 2.059 0 0 1 2.857 0.629 2.067 2.067 0 0 1-0.629 2.846c-0.34 0.216-0.732 0.32-1.104 0.32-0.681 0-1.35-0.331-1.742-0.949z m-149.409-6.445a2.061 2.061 0 0 1-0.247-2.908 2.07 2.07 0 0 1 2.907-0.237c0.866 0.732 0.98 2.042 0.248 2.908-0.413 0.484-1 0.732-1.578 0.732a2.03 2.03 0 0 1-1.33-0.495z m159.556-0.547a2.064 2.064 0 0 1 0.319-2.898 2.063 2.063 0 0 1 2.898 0.33 2.053 2.053 0 0 1-0.32 2.897 2.08 2.08 0 0 1-1.289 0.444 2.027 2.027 0 0 1-1.608-0.773z m9.353-8.012a2.065 2.065 0 0 1 0.01-2.918 2.057 2.057 0 0 1 2.918 0.021 2.054 2.054 0 0 1-0.011 2.908 2.042 2.042 0 0 1-1.453 0.598 2.023 2.023 0 0 1-1.464-0.609z m-178.034-0.041a2.066 2.066 0 0 1 0.073-2.918 2.066 2.066 0 0 1 2.918 0.073 2.067 2.067 0 0 1-0.073 2.918 2.03 2.03 0 0 1-1.423 0.567 2.082 2.082 0 0 1-1.495-0.64z m186.458-8.941a2.067 2.067 0 0 1-0.31-2.908v0.01a2.064 2.064 0 0 1 2.898-0.32 2.075 2.075 0 0 1 0.309 2.908 2.04 2.04 0 0 1-1.608 0.763 2.02 2.02 0 0 1-1.289-0.453z m-194.605-0.587a2.055 2.055 0 0 1 0.372-2.888 2.059 2.059 0 0 1 2.897 0.382 2.055 2.055 0 0 1-0.381 2.887 2.036 2.036 0 0 1-1.259 0.423 2.018 2.018 0 0 1-1.629-0.804z m201.968-9.291a2.064 2.064 0 0 1-0.639-2.846 2.064 2.064 0 0 1 2.846-0.639 2.061 2.061 0 1 1-1.103 3.805 2.059 2.059 0 0 1-1.104-0.32z m-209.072-1.032a2.062 2.062 0 1 1 3.517-2.155 2.07 2.07 0 0 1-0.681 2.836 2.048 2.048 0 0 1-2.836-0.681z m215.249-9.621a2.063 2.063 0 0 1-0.97-2.753 2.059 2.059 0 0 1 2.753-0.969 2.069 2.069 0 0 1 0.97 2.753 2.063 2.063 0 0 1-1.867 1.166c-0.299 0-0.598-0.062-0.886-0.197z m-221.251-1.381a2.077 2.077 0 0 1 0.97-2.753 2.059 2.059 0 0 1 2.753 0.969 2.06 2.06 0 0 1-0.97 2.753 2.098 2.098 0 0 1-0.886 0.206 2.082 2.082 0 0 1-1.867-1.175z m226.149-9.93a2.061 2.061 0 0 1-1.289-2.619 2.073 2.073 0 0 1 2.629-1.279 2.063 2.063 0 0 1 1.279 2.619 2.066 2.066 0 0 1-1.95 1.392c-0.226 0-0.453-0.031-0.669-0.113z m-230.975-1.63a2.058 2.058 0 0 1 1.238-2.64 2.066 2.066 0 0 1 2.639 1.248 2.047 2.047 0 0 1-1.238 2.63 1.894 1.894 0 0 1-0.701 0.123 2.046 2.046 0 0 1-1.938-1.361z m234.522-10.167a2.063 2.063 0 0 1-1.577-2.455 2.064 2.064 0 0 1 2.464-1.567 2.056 2.056 0 0 1 1.567 2.454 2.047 2.047 0 0 1-2.01 1.619c-0.145 0-0.299-0.01-0.444-0.051z m-238.172-1.815a2.071 2.071 0 0 1 1.505-2.505 2.06 2.06 0 0 1 2.495 1.505 2.05 2.05 0 0 1-1.495 2.495 1.71 1.71 0 0 1-0.505 0.062 2.065 2.065 0 0 1-2-1.557z m240.358-10.301a2.07 2.07 0 0 1-1.836-2.269 2.069 2.069 0 0 1 2.269-1.835 2.06 2.06 0 0 1 1.836 2.268 2.056 2.056 0 0 1-2.042 1.846c-0.082 0-0.155 0-0.227-0.01z m-242.802-1.98a2.064 2.064 0 0 1 4.083-0.598 2.066 2.066 0 0 1-1.732 2.341c-0.104 0.01-0.206 0.021-0.309 0.021a2.073 2.073 0 0 1-2.042-1.764z m241.605-12.364v-0.145c0-0.062-0.01-0.113-0.01-0.175 0-1.134 0.917-2.062 2.062-2.072a2.06 2.06 0 0 1 2.062 2.062v0.33h0.01a2.068 2.068 0 0 1-2.062 2.062 2.062 2.062 0 0 1-2.062-2.062z m-242.853-0.083a2.073 2.073 0 0 1 1.949-2.176 2.07 2.07 0 0 1 2.166 1.949 2.067 2.067 0 0 1-1.949 2.176h-0.114a2.05 2.05 0 0 1-2.052-1.949z m1.887-10.374a2.046 2.046 0 0 1-1.97-2.134 2.048 2.048 0 0 1 2.135-1.98c1.134 0.041 2.021 1 1.98 2.134a2.067 2.067 0 0 1-2.062 1.99c-0.032 0.001-0.052-0.01-0.083-0.01z m240.307-1.948a2.055 2.055 0 0 1 1.836-2.269 2.068 2.068 0 0 1 2.269 1.835h-0.011a2.067 2.067 0 0 1-1.825 2.269c-0.073 0.011-0.145 0.011-0.217 0.011a2.066 2.066 0 0 1-2.052-1.846z m-239.42-10.333a2.07 2.07 0 0 1-1.763-2.331 2.06 2.06 0 0 1 2.33-1.753 2.05 2.05 0 0 1 1.753 2.32 2.055 2.055 0 0 1-2.032 1.784 2.55 2.55 0 0 1-0.288-0.02z m237.501-1.608a2.071 2.071 0 0 1 1.578-2.454 2.07 2.07 0 0 1 2.454 1.588 2.057 2.057 0 0 1-1.588 2.444 2.058 2.058 0 0 1-0.433 0.052 2.073 2.073 0 0 1-2.011-1.63z m-3.176-11.674a2.07 2.07 0 0 1 1.32-2.609 2.052 2.052 0 0 1 2.599 1.31 2.063 2.063 0 0 1-1.31 2.609 2.065 2.065 0 0 1-2.609-1.31z m-232.211 1.145a2.06 2.06 0 0 1-1.505-2.495 2.056 2.056 0 0 1 2.495-1.506c1.104 0.268 1.773 1.392 1.505 2.496a2.067 2.067 0 0 1-2.001 1.567c-0.164 0-0.329-0.02-0.494-0.062z m227.819-12.415a2.066 2.066 0 0 1 1.021-2.733c1.041-0.464 2.269-0.011 2.733 1.031a2.058 2.058 0 0 1-1.031 2.722 1.876 1.876 0 0 1-0.846 0.186 2.046 2.046 0 0 1-1.877-1.206z m-224.416 0.577a2.05 2.05 0 0 1-1.216-2.65 2.05 2.05 0 0 1 2.639-1.216 2.065 2.065 0 0 1 1.228 2.65 2.073 2.073 0 0 1-1.939 1.351 1.907 1.907 0 0 1-0.712-0.135z m218.837-11.322a2.063 2.063 0 0 1 0.743-2.826 2.059 2.059 0 0 1 2.815 0.743 2.054 2.054 0 0 1-0.732 2.815c-0.33 0.196-0.691 0.289-1.041 0.289a2.062 2.062 0 0 1-1.785-1.021z m-214.135-0.062a2.054 2.054 0 0 1-0.897-2.764 2.057 2.057 0 0 1 2.773-0.907 2.055 2.055 0 0 1 0.897 2.774 2.059 2.059 0 0 1-2.773 0.897z m207.474-10.033a2.063 2.063 0 0 1 0.433-2.888 2.074 2.074 0 0 1 2.888 0.444c0.67 0.907 0.474 2.207-0.433 2.877a2.107 2.107 0 0 1-1.228 0.402 2.062 2.062 0 0 1-1.66-0.835z m-201.452-0.712a2.064 2.064 0 0 1-0.568-2.867 2.058 2.058 0 0 1 2.857-0.567 2.06 2.06 0 0 1 0.567 2.856 2.057 2.057 0 0 1-1.712 0.917 2.082 2.082 0 0 1-1.144-0.339z m193.77-8.652a2.068 2.068 0 0 1 0.144-2.918 2.057 2.057 0 0 1 2.908 0.145c0.773 0.835 0.701 2.145-0.135 2.908a2.07 2.07 0 0 1-1.392 0.536 2.079 2.079 0 0 1-1.525-0.671z m-186.531-1.309a2.07 2.07 0 0 1-0.227-2.908v-0.011a2.08 2.08 0 0 1 2.918-0.216 2.07 2.07 0 0 1 0.217 2.908 2.05 2.05 0 0 1-1.568 0.722c-0.474 0-0.948-0.165-1.34-0.495z m177.941-7.229a2.057 2.057 0 0 1-0.155-2.908 2.067 2.067 0 0 1 2.908-0.165v0.011c0.845 0.753 0.917 2.062 0.154 2.908a2.037 2.037 0 0 1-1.526 0.681 2.07 2.07 0 0 1-1.381-0.527z m-169.558-1.805a2.055 2.055 0 0 1 0.114-2.908 2.058 2.058 0 0 1 2.918 0.124 2.057 2.057 0 0 1-0.124 2.908 2.045 2.045 0 0 1-2.908-0.124z m160.154-5.826a2.063 2.063 0 0 1-0.444-2.887 2.06 2.06 0 0 1 2.877-0.444 2.06 2.06 0 0 1 0.444 2.877 2.048 2.048 0 0 1-1.671 0.845 1.99 1.99 0 0 1-1.206-0.391z m-150.78-2.155a2.055 2.055 0 0 1 0.464-2.877 2.06 2.06 0 0 1 2.877 0.454 2.072 2.072 0 0 1-0.453 2.887 2.137 2.137 0 0 1-1.217 0.392c-0.64 0-1.269-0.299-1.671-0.856z m140.653-4.516a2.065 2.065 0 0 1-0.722-2.826 2.056 2.056 0 0 1 2.826-0.722 2.061 2.061 0 0 1 0.722 2.825 2.056 2.056 0 0 1-1.773 1.011c-0.362 0-0.723-0.092-1.053-0.288z m-130.413-2.341a2.054 2.054 0 0 1 0.773-2.815h-0.01a2.064 2.064 0 1 1 2.042 3.588 2.059 2.059 0 0 1-2.805-0.773z m119.688-3.3a2.065 2.065 0 0 1 1.743-3.743 2.065 2.065 0 0 1 1 2.743 2.054 2.054 0 0 1-1.876 1.186c-0.289 0-0.588-0.062-0.867-0.186z m-108.768-2.403a2.06 2.06 0 0 1 1.062-2.712 2.051 2.051 0 0 1 2.712 1.072 2.053 2.053 0 0 1-1.062 2.712 2.042 2.042 0 0 1-2.712-1.072z m97.549-2.175a2.074 2.074 0 0 1-1.268-2.64 2.081 2.081 0 0 1 2.639-1.258 2.063 2.063 0 0 1 1.259 2.629 2.082 2.082 0 0 1-1.95 1.382c-0.226 0-0.452-0.041-0.68-0.113z m-86.092-2.341a2.061 2.061 0 0 1 1.34-2.588v-0.011a2.066 2.066 0 1 1 1.248 3.939 2.141 2.141 0 0 1-0.619 0.093 2.062 2.062 0 0 1-1.969-1.433z m74.481-1.145a2.063 2.063 0 0 1-1.516-2.495 2.074 2.074 0 0 1 2.505-1.506 2.068 2.068 0 0 1 1.505 2.496 2.063 2.063 0 0 1-2 1.567c-0.163 0-0.328-0.02-0.494-0.062z m-62.623-2.217a2.056 2.056 0 0 1 1.577-2.455 2.067 2.067 0 0 1 2.454 1.588 2.065 2.065 0 0 1-1.577 2.444 2.25 2.25 0 0 1-0.444 0.051 2.055 2.055 0 0 1-2.01-1.628z m50.724-0.123a2.068 2.068 0 0 1-1.742-2.341 2.073 2.073 0 0 1 2.34-1.743 2.071 2.071 0 0 1 1.743 2.351 2.062 2.062 0 0 1-2.042 1.753c-0.103 0-0.196 0-0.299-0.02z m-38.607-2.115a2.053 2.053 0 0 1 1.793-2.289 2.063 2.063 0 0 1 2.3 1.794 2.078 2.078 0 0 1-1.794 2.3c-0.093 0.011-0.175 0.011-0.258 0.011a2.052 2.052 0 0 1-2.041-1.816z m26.542 0.918a2.063 2.063 0 0 1-1.949-2.166 2.057 2.057 0 0 1 2.165-1.959 2.063 2.063 0 0 1 1.95 2.166 2.06 2.06 0 0 1-2.052 1.959h-0.114z m-14.282-2.062a2.076 2.076 0 0 1 1.99-2.134 2.065 2.065 0 0 1 0.155 4.125h-0.083a2.075 2.075 0 0 1-2.062-1.991zM425.205 447.058l-31.467-88.672 1.207-11.216 8.752 8.28 33.267 88.483z" fill="#280D0D" p-id="2199"></path><path d="M395.453 423.697l129.061-11.708 10.722 2.29-9.985 4.885-129.352 13.495z" fill="#280D0D" p-id="2200"></path><path d="M391.169 536.128l0.408 3.867 2.17-3.007 34.888-128.812-2.466-1.258z" fill="#280D0D" p-id="2201"></path><path d="M422.525 425.411m-14.808 0a14.808 14.808 0 1 0 29.616 0 14.808 14.808 0 1 0-29.616 0Z" fill="#3BFFDE" p-id="2202"></path><path d="M422.525 441.719c-8.992 0-16.308-7.316-16.308-16.308s7.316-16.308 16.308-16.308 16.308 7.316 16.308 16.308-7.316 16.308-16.308 16.308z m0-29.616c-7.338 0-13.308 5.97-13.308 13.308s5.97 13.308 13.308 13.308 13.308-5.97 13.308-13.308-5.97-13.308-13.308-13.308z" fill="#280D0D" p-id="2203"></path><path d="M495.073 288.902m-5.843 0a5.843 5.843 0 1 0 11.686 0 5.843 5.843 0 1 0-11.686 0Z" fill="#3BFFDE" p-id="2204"></path><path d="M560.038 353.013m-5.843 0a5.843 5.843 0 1 0 11.686 0 5.843 5.843 0 1 0-11.686 0Z" fill="#3BFFDE" p-id="2205"></path><path d="M576.021 425.411m-5.843 0a5.843 5.843 0 1 0 11.686 0 5.843 5.843 0 1 0-11.686 0Z" fill="#3BFFDE" p-id="2206"></path><path d="M548.351 514.216m-5.843 0a5.843 5.843 0 1 0 11.686 0 5.843 5.843 0 1 0-11.686 0Z" fill="#3BFFDE" p-id="2207"></path><path d="M523.915 493.986m-4.103 0a4.103 4.103 0 1 0 8.206 0 4.103 4.103 0 1 0-8.206 0Z" fill="#FF76C4" p-id="2208"></path><path d="M355.941 518.252m-4.103 0a4.103 4.103 0 1 0 8.206 0 4.103 4.103 0 1 0-8.206 0Z" fill="#FF76C4" p-id="2209"></path><path d="M329.971 345.013m-4.103 0a4.103 4.103 0 1 0 8.206 0 4.103 4.103 0 1 0-8.206 0Z" fill="#FF76C4" p-id="2210"></path><path d="M477.774 317.26m-4.103 0a4.103 4.103 0 1 0 8.206 0 4.103 4.103 0 1 0-8.206 0Z" fill="#FF76C4" p-id="2211"></path><path d="M486.824 561.764m-5.843 0a5.843 5.843 0 1 0 11.686 0 5.843 5.843 0 1 0-11.686 0Z" fill="#3BFFDE" p-id="2212"></path><path d="M401.296 573.45m-5.843 0a5.843 5.843 0 1 0 11.686 0 5.843 5.843 0 1 0-11.686 0Z" fill="#3BFFDE" p-id="2213"></path><path d="M333.238 545.839m-5.843 0a5.843 5.843 0 1 0 11.686 0 5.843 5.843 0 1 0-11.686 0Z" fill="#3BFFDE" p-id="2214"></path><path d="M283.998 486.374m-5.843 0a5.843 5.843 0 1 0 11.686 0 5.843 5.843 0 1 0-11.686 0Z" fill="#3BFFDE" p-id="2215"></path><path d="M272.311 397.114m-5.843 0a5.843 5.843 0 1 0 11.686 0 5.843 5.843 0 1 0-11.686 0Z" fill="#3BFFDE" p-id="2216"></path><path d="M310.492 317.26m-5.843 0a5.843 5.843 0 1 0 11.686 0 5.843 5.843 0 1 0-11.686 0Z" fill="#3BFFDE" p-id="2217"></path><path d="M391.169 277.216m-5.843 0a5.843 5.843 0 1 0 11.686 0 5.843 5.843 0 1 0-11.686 0Z" fill="#3BFFDE" p-id="2218"></path><path d="M622.01 184.678c6.449 0 6.449-10 0-10s-6.448 10 0 10zM597.833 189.281c-15.066 10.582-29.681 21.826-42.773 34.809-4.583 4.546 2.49 11.615 7.071 7.071 12.497-12.394 26.365-23.143 40.749-33.245 5.233-3.676 0.244-12.351-5.047-8.635zM373.714 342.053c-18.513 14.443-31.197 35.181-42.029 55.665-3.012 5.696 5.619 10.749 8.635 5.047 10.484-19.825 22.545-39.66 40.465-53.641 5.081-3.964-2.05-10.988-7.071-7.071z" fill="#FFFFFF" p-id="2219"></path><path d="M304.036 880.209c11.232 1.504 22.266 4.617 33.685 4.125 1.927-0.083 1.935-3.083 0-3-11.4 0.492-22.466-2.622-33.685-4.125-1.913-0.256-1.888 2.748 0 3zM273.086 874.71c40.178 3.318 80.269-2.008 120.305-4.812 1.919-0.134 1.932-3.135 0-3-40.036 2.804-80.127 8.131-120.305 4.812-1.93-0.159-1.914 2.842 0 3z" fill="#280D0D" p-id="2220"></path><path d="M284.1 868.523c16.737 0.078 33.452 1.948 50.184 0.687 1.917-0.144 1.931-3.146 0-3-16.732 1.261-33.447-0.61-50.184-0.687-1.935-0.009-1.934 2.991 0 3zM271.726 860.273l41.247 2.062c1.934 0.097 1.925-2.904 0-3l-41.247-2.062c-1.935-0.096-1.925 2.904 0 3zM268.976 850.649c18.821-1.847 37.573 3.205 56.371 0.688 1.888-0.253 1.913-3.256 0-3-18.798 2.518-37.55-2.535-56.371-0.688-1.907 0.187-1.925 3.189 0 3zM321.222 860.961h4.125c1.935 0 1.935-3 0-3h-4.125c-1.934 0-1.934 3 0 3zM256.602 835.525c15.804 0.659 31.619 0.687 47.434 0.687 1.935 0 1.935-3 0-3-15.815 0-31.63-0.029-47.434-0.687-1.936-0.081-1.928 2.92 0 3zM249.727 841.712h26.811c1.935 0 1.935-3 0-3h-26.811c-1.935 0-1.935 3 0 3zM246.977 816.276c16.966-0.602 33.908 0.635 50.872 0.688 1.935 0.006 1.934-2.994 0-3-16.964-0.053-33.905-1.289-50.872-0.688-1.929 0.069-1.935 3.069 0 3zM254.539 820.401c6.431 0.001 12.842 0.087 19.249 0.687 1.927 0.18 1.909-2.821 0-3-6.407-0.6-12.818-0.686-19.249-0.687-1.934 0-1.934 3 0 3zM256.602 827.275h38.497c1.935 0 1.935-3 0-3h-38.497c-1.935 0-1.935 3 0 3zM244.227 783.966c15.664 1.444 31.082 4.743 46.747 6.187 1.927 0.178 1.91-2.824 0-3-15.664-1.444-31.082-4.743-46.747-6.187-1.926-0.178-1.909 2.824 0 3zM250.415 799.777c7.339 0.049 14.66 0.634 21.999 0.687 1.935 0.014 1.934-2.986 0-3-7.339-0.053-14.659-0.639-21.999-0.687-1.936-0.013-1.934 2.987 0 3zM247.665 806.652h13.749c1.935 0 1.935-3 0-3h-13.749c-1.935 0-1.935 3 0 3zM245.602 755.78c6.394 0.003 12.688 0.098 18.85 2.009 1.853 0.574 2.639-2.322 0.798-2.893-6.413-1.988-12.986-2.113-19.647-2.116-1.935-0.001-1.935 2.999-0.001 3zM237.353 767.467c10.484 0.042 20.914 0.722 31.224 2.696 1.89 0.362 2.696-2.529 0.798-2.893-10.57-2.024-21.27-2.761-32.022-2.803-1.935-0.008-1.934 2.992 0 3zM242.165 775.029c4.365 0.043 8.698 0.638 13.062 0.687 1.935 0.022 1.933-2.978 0-3-4.364-0.049-8.696-0.645-13.062-0.687-1.935-0.019-1.933 2.981 0 3zM242.853 790.153c1.973 0.001 3.888 0.045 5.788 0.634 1.853 0.575 2.639-2.322 0.798-2.893-2.145-0.665-4.357-0.74-6.586-0.741-1.935-0.001-1.935 2.999 0 3zM240.79 722.095c8.022 0.669 16.044 1.338 24.061 2.062 1.927 0.174 1.911-2.827 0-3a3457.609 3457.609 0 0 0-24.061-2.062c-1.929-0.161-1.913 2.84 0 3zM237.642 727.541c12.457 2.11 24.792 4.823 37.123 7.562 1.885 0.419 2.686-2.473 0.798-2.893-12.33-2.74-24.666-5.452-37.123-7.562-1.893-0.32-2.703 2.57-0.798 2.893zM240.103 739.969c5.515 0.001 11.014 0.053 16.499 0.688 1.92 0.222 1.898-2.781 0-3-5.485-0.634-10.984-0.686-16.499-0.688-1.935-0.001-1.935 2.999 0 3zM247.665 748.218h5.5c1.935 0 1.935-3 0-3h-5.5c-1.935 0-1.935 3 0 3zM259.351 662.974c13.294 0.032 26.578 0.655 39.872 0.688 1.935 0.005 1.934-2.995 0-3-13.294-0.032-26.578-0.655-39.872-0.688-1.934-0.005-1.934 2.995 0 3zM254.141 668.42c8.866 1.41 17.585 3.404 26.123 6.187 1.845 0.601 2.628-2.296 0.798-2.893-8.538-2.784-17.257-4.777-26.123-6.187-1.893-0.301-2.705 2.59-0.798 2.893zM258.664 679.473c4.967 0.002 9.893 0.031 14.725 1.321 1.872 0.5 2.665-2.394 0.798-2.893-5.089-1.359-10.289-1.427-15.523-1.428-1.935-0.001-1.935 2.999 0 3zM251.391 685.606c5.638 0.802 11.004 2.705 16.499 4.125 1.875 0.484 2.669-2.409 0.798-2.893-5.495-1.419-10.861-3.323-16.499-4.125-1.892-0.269-2.707 2.622-0.798 2.893zM243.54 701.471c11.128 0.883 21.7 4.669 32.599 6.821 1.889 0.373 2.695-2.518 0.798-2.893-11.172-2.205-21.989-6.023-33.397-6.928-1.93-0.153-1.915 2.848 0 3zM254.141 695.918c3.504 0.702 6.97 1.46 10.312 2.75 1.808 0.698 2.582-2.204 0.798-2.893-3.342-1.29-6.808-2.048-10.312-2.75-1.89-0.378-2.695 2.513-0.798 2.893zM251.102 710.408c3.405 0.002 6.687 0.121 9.913 1.321 1.817 0.676 2.594-2.224 0.798-2.893-3.463-1.289-7.053-1.426-10.711-1.429-1.935 0-1.935 3 0 3.001zM276.827 621.673c12.576 3.317 25.118 6.771 37.81 9.624 1.884 0.424 2.685-2.469 0.798-2.893-12.692-2.853-25.234-6.307-37.81-9.624-1.874-0.494-2.668 2.4-0.798 2.893zM273.718 629.771c3.943 1.972 7.891 3.939 11.687 6.187 1.669 0.988 3.177-1.606 1.514-2.59-3.795-2.248-7.744-4.215-11.687-6.187-1.724-0.863-3.244 1.725-1.514 2.59zM267.89 637.484c7.044 1.419 14.862 2.686 20.953 6.723 1.618 1.072 3.118-1.527 1.514-2.59-6.324-4.192-14.362-5.554-21.669-7.026-1.89-0.38-2.694 2.512-0.798 2.893zM274.406 648.332c2.891 1.382 6.051 2.058 8.937 3.437 1.736 0.83 3.259-1.757 1.514-2.59-2.891-1.381-6.051-2.058-8.937-3.437-1.736-0.83-3.259 1.757-1.514 2.59zM263.476 653.349c3.36 0.05 6.628 0.666 9.913 1.321 1.889 0.377 2.694-2.514 0.798-2.893-3.543-0.707-7.087-1.374-10.711-1.428-1.935-0.029-1.933 2.971 0 3z" fill="#280D0D" p-id="2221"></path><path d="M269.663 646.475h3.437c1.935 0 1.935-3 0-3h-3.437c-1.934 0-1.934 3 0 3zM291.951 573.551c5.901 1.558 11.493 4.025 17.186 6.187 1.812 0.688 2.588-2.213 0.798-2.893-5.693-2.162-11.285-4.629-17.186-6.187-1.874-0.494-2.667 2.4-0.798 2.893zM284.718 582.337c5.251 3.243 10.749 6.083 15.811 9.624 1.589 1.112 3.087-1.49 1.514-2.59-5.062-3.542-10.561-6.382-15.811-9.624-1.651-1.02-3.156 1.576-1.514 2.59zM285.405 596.086c3.943 1.972 7.891 3.939 11.687 6.187 1.669 0.988 3.177-1.606 1.514-2.59-3.795-2.248-7.744-4.215-11.687-6.187-1.725-0.863-3.244 1.724-1.514 2.59zM277.156 602.96c4.657 2.013 9.233 4.2 14.107 5.651 1.859 0.553 2.647-2.342 0.798-2.893-4.627-1.378-8.97-3.438-13.391-5.348-1.756-0.759-3.286 1.825-1.514 2.59zM276.827 614.798l14.437 4.125c1.864 0.533 2.654-2.362 0.798-2.893l-14.437-4.125c-1.865-0.532-2.655 2.363-0.798 2.893zM297.241 615.484c0.858 1.605 2.403 2.501 3.975 3.288 0.731 0.366 1.619 0.201 2.052-0.538 0.393-0.671 0.193-1.687-0.538-2.052-1.105-0.553-2.293-1.078-2.899-2.212-0.911-1.707-3.501-0.192-2.59 1.514zM300.529 561.713c2.322 1.561 4.553 3.251 6.875 4.812 1.611 1.083 3.11-1.517 1.514-2.59-2.322-1.561-4.553-3.251-6.875-4.812-1.61-1.083-3.11 1.517-1.514 2.59zM296.404 566.525c1.805 1.192 3.695 2.246 5.5 3.437 1.62 1.069 3.121-1.53 1.514-2.59-1.805-1.192-3.695-2.246-5.5-3.437-1.619-1.07-3.12 1.53-1.514 2.59zM319.16 582.542c1.935 0 1.935-3 0-3s-1.935 3 0 3zM304.723 592.166c1.935 0 1.935-3 0-3s-1.934 3 0 3zM262.789 470.83h24.748c1.935 0 1.935-3 0-3h-24.748c-1.935 0-1.935 3 0 3zM261.125 465.621c2.911-0.903 5.859-0.976 8.882-0.978 1.935-0.001 1.935-3.001 0-3-3.281 0.002-6.523 0.106-9.679 1.085-1.842 0.571-1.056 3.467 0.797 2.893zM254.539 458.456c3.474-0.053 6.849-0.962 10.312-1.031 1.932-0.039 1.936-3.039 0-3-3.464 0.069-6.839 0.978-10.312 1.031-1.932 0.029-1.935 3.029 0 3zM257.633 445.051h5.156c1.935 0 1.935-3 0-3h-5.156c-1.935 0-1.935 3 0 3zM254.539 421.333h10.312c1.935 0 1.935-3 0-3h-10.312c-1.934 0-1.934 3 0 3zM258.664 398.647h2.062c1.935 0 1.935-3 0-3h-2.062c-1.935 0-1.935 3 0 3zM271.038 492.485h4.125c1.935 0 1.935-3 0-3h-4.125c-1.934 0-1.934 3 0 3zM267.945 483.204h6.187c1.935 0 1.935-3 0-3h-6.187c-1.935 0-1.935 3 0 3zM281.35 512.077h17.53c1.935 0 1.935-3 0-3h-17.53c-1.935 0-1.935 3 0 3zM271.038 500.734h11.343c1.935 0 1.935-3 0-3h-11.343c-1.934 0-1.934 3 0 3z" fill="#280D0D" p-id="2222"></path></svg>