<?xml version="1.0" standalone="no"?><!DOCTYPE svg PUBLIC "-//W3C//DTD SVG 1.1//EN" "http://www.w3.org/Graphics/SVG/1.1/DTD/svg11.dtd"><svg t="1528985540556" class="icon" style="" viewBox="0 0 1024 1024" version="1.1" xmlns="http://www.w3.org/2000/svg" p-id="1896" xmlns:xlink="http://www.w3.org/1999/xlink" width="80" height="80"><defs><style type="text/css"></style></defs><path d="M512 513.223m-418.146 0a418.146 418.146 0 1 0 836.292 0 418.146 418.146 0 1 0-836.292 0Z" fill="#FFD7D7" p-id="1897"></path><path d="M605.044 898.69c-2.391 0-4.817-0.412-7.179-1.276L275.803 780.38a20.917 20.917 0 0 1-6.699-35.292L381.938 644.97a20.919 20.919 0 0 1 19.409-4.528l311.207 85.239a20.918 20.918 0 0 1 13.165 29.565L623.74 887.159c-3.64 7.246-10.985 11.531-18.696 11.531zM323.081 753.124l271.645 98.597 82.147-92.438-275.646-75.499-78.146 69.34z" fill="#3A4ABA" p-id="1898"></path><path d="M605.044 903.689c-3.035 0-6.028-0.531-8.896-1.579L274.096 785.08c-8.533-3.12-14.879-10.596-16.571-19.512-1.693-8.916 1.473-18.196 8.261-24.22L378.62 641.23a25.9 25.9 0 0 1 24.047-5.61l311.208 85.239a25.825 25.825 0 0 1 16.829 14.453 25.82 25.82 0 0 1-0.518 22.179 4.956 4.956 0 0 1-0.512 0.812L627.975 889.855c-4.499 8.547-13.239 13.834-22.931 13.834z m-209.22-258.99a15.905 15.905 0 0 0-10.567 4.012L272.422 748.829c-4.169 3.699-6.113 9.398-5.074 14.874a15.994 15.994 0 0 0 10.172 11.981l322.052 117.03c1.772 0.647 3.61 0.975 5.472 0.975a15.839 15.839 0 0 0 14.228-8.774c0.144-0.287 0.315-0.56 0.512-0.813l101.663-131.506a15.85 15.85 0 0 0 0.122-13.215 15.865 15.865 0 0 0-10.336-8.877l-311.207-85.239a15.922 15.922 0 0 0-4.202-0.566z m198.901 212.023a5.003 5.003 0 0 1-1.705-0.3l-271.646-98.598a5.001 5.001 0 0 1-1.612-8.441l78.146-69.339a5.003 5.003 0 0 1 4.639-1.082l275.646 75.499a5 5 0 0 1 2.416 8.143l-82.146 92.438a4.996 4.996 0 0 1-3.738 1.68zM332.682 751.29l260.561 94.574 74.545-83.884-265.269-72.657-69.837 61.967z" fill="#280D0D" p-id="1899"></path><path d="M749.497 208.633c-5.81 23.522-120.79 484.362-134.556 517.284s-38.826 29.873-54.632 29.843c-9.798-0.018 154.228-584.611 154.228-584.611s42.278 7.856 34.96 37.484z" fill="#FF76C4" p-id="1900"></path><path d="M568.505 760.847c-1.583 0-3.121-0.023-4.603-0.047a254.79 254.79 0 0 0-3.604-0.04 5.221 5.221 0 0 1-4.18-2.096c-2.153-2.846-3.854-5.094 20.328-99.478 12.525-48.888 30.503-116.366 53.432-200.562 39.034-143.332 79.439-287.388 79.843-288.826a5.003 5.003 0 0 1 5.728-3.565c1.027 0.191 25.271 4.855 35.444 20.643 4.378 6.794 5.541 14.518 3.457 22.956-1.18 4.779-120.35 483.466-134.797 518.014-12.16 29.08-32.629 33.001-51.048 33.001z m-3.341-10.029c1.087 0.016 2.203 0.028 3.342 0.028 14.801 0 31.458-2.076 41.821-26.858 12.981-31.041 120.318-459.879 134.315-516.555 1.416-5.729 0.716-10.676-2.141-15.119-5.587-8.695-17.853-13.245-24.46-15.146-60.309 215.054-147.241 532.65-152.877 573.65z" fill="#280D0D" p-id="1901"></path><path d="M714.537 171.149l-291.386-54.076c-8.554-1.587-16.932 3.516-19.446 11.844L248.043 644.611c-2.725 9.026 2.389 18.551 11.417 21.268l296.291 89.153c9.184 2.763 18.84-2.583 21.372-11.833l150.756-550.77c2.636-9.631-3.525-19.458-13.342-21.28z" fill="#FF76C4" p-id="1902"></path><path d="M560.675 760.76s0.001 0 0 0c-2.149 0-4.29-0.316-6.364-0.94L258.02 670.667c-5.646-1.699-10.292-5.496-13.081-10.691s-3.387-11.165-1.683-16.81l155.662-515.692c2.789-9.237 11.468-15.688 21.106-15.688 1.348 0 2.707 0.126 4.039 0.373l291.385 54.075a22.12 22.12 0 0 1 14.665 9.971 22.114 22.114 0 0 1 2.588 17.544l-150.756 550.77c-2.616 9.561-11.363 16.241-21.27 16.241zM420.024 121.785c-5.266 0-10.009 3.527-11.533 8.578L252.83 646.057c-0.932 3.085-0.605 6.349 0.92 9.189s4.064 4.916 7.152 5.845l296.291 89.152c1.14 0.343 2.312 0.517 3.483 0.517 5.414 0 10.193-3.652 11.625-8.881l150.757-550.771c0.9-3.293 0.398-6.699-1.415-9.592a11.932 11.932 0 0 0-8.018-5.451L422.238 121.99a12.137 12.137 0 0 0-2.214-0.205z" fill="#280D0D" p-id="1903"></path><path d="M684.092 199.873l-248.161-52.648-152.024 489.824 256.241 76.715z" fill="#FFF6EE" p-id="1904"></path><path d="M540.148 718.764c-0.481 0-0.965-0.069-1.434-0.21l-256.241-76.715a5.001 5.001 0 0 1-3.341-6.272l152.024-489.824a5.005 5.005 0 0 1 5.813-3.409l248.162 52.648a4.998 4.998 0 0 1 3.776 6.241L544.962 715.112a4.999 4.999 0 0 1-4.814 3.652zM290.18 633.707l246.527 73.807L677.84 203.659l-238.485-50.596L290.18 633.707z" fill="#280D0D" p-id="1905"></path><path d="M683.058 318.806c1.685 5.529-1.312 12.3-6.693 15.123-5.381 2.824-11.109 0.63-12.794-4.899s1.312-12.3 6.693-15.123c5.381-2.823 11.109-0.63 12.794 4.899zM627.554 507.068c2.027 5.413-0.539 12.358-5.733 15.513s-11.048 1.324-13.075-4.088c-2.027-5.413 0.539-12.358 5.733-15.513 5.194-3.155 11.048-1.325 13.075 4.088zM569.177 716.588c2.494 5.214 0.545 12.358-4.353 15.955-4.898 3.597-10.89 2.287-13.383-2.928s-0.545-12.358 4.353-15.955c4.897-3.597 10.889-2.287 13.383 2.928zM717.197 201.293c1.173 5.66-2.43 12.129-8.046 14.449-5.617 2.32-11.12-0.387-12.293-6.047s2.43-12.129 8.046-14.449c5.617-2.32 11.121 0.387 12.293 6.047zM576.883 158.784c-0.807 5.723-6.382 10.596-12.452 10.884-6.07 0.288-10.337-4.118-9.53-9.842 0.807-5.723 6.382-10.596 12.452-10.884 6.07-0.288 10.336 4.119 9.53 9.842zM433.789 136.327c-0.807 5.723-6.382 10.596-12.452 10.884-6.07 0.288-10.337-4.118-9.53-9.842 0.807-5.723 6.382-10.596 12.452-10.884 6.07-0.287 10.337 4.119 9.53 9.842zM387.45 260.969c2.283 5.31 0.049 12.37-4.988 15.768-5.038 3.398-10.972 1.849-13.255-3.461s-0.049-12.37 4.988-15.768c5.037-3.399 10.972-1.849 13.255 3.461zM336.741 430.574c2.547 5.189 0.671 12.351-4.189 15.999-4.861 3.647-10.866 2.398-13.413-2.79-2.547-5.189-0.672-12.351 4.189-15.999 4.861-3.647 10.866-2.398 13.413 2.79zM276.689 632.056c1.304 5.631-2.147 12.182-7.708 14.632s-11.126-0.128-12.43-5.759c-1.304-5.631 2.147-12.182 7.708-14.632 5.561-2.45 11.126 0.128 12.43 5.759zM411.611 690.953c-0.807 5.723-6.382 10.596-12.452 10.884-6.07 0.288-10.337-4.118-9.53-9.842s6.382-10.596 12.452-10.884c6.07-0.288 10.337 4.119 9.53 9.842z" fill="#3BFFDE" p-id="1906"></path><path d="M655.693 283.253L352.201 432.939l-12.797 40.871 305.902-153.425zM641.967 331.276L336.956 482.788l-3.692 11.368 306.335-153.481z" fill="#FFFFFF" p-id="1907"></path><path d="M663.187 346.52c6.449 0 6.449-10 0-10s-6.449 10 0 10z" fill="#FFFFFF" p-id="1908"></path><path d="M654.421 358.889c-7.898 28.214-15.178 56.616-24.34 84.458-2.022 6.143 7.637 8.754 9.643 2.658 9.162-27.843 16.442-56.244 24.34-84.458 1.741-6.221-7.908-8.858-9.643-2.658z" fill="#FFFFFF" p-id="1909"></path><path d="M728.067 760.382L627.975 889.855c-4.499 8.547-13.239 13.834-22.931 13.834-3.035 0-6.028-0.531-8.896-1.579L274.096 785.08c-8.533-3.12-14.879-10.596-16.571-19.512-1.693-8.916 1.473-18.196 8.261-24.22l57.519-51.037-65.285-19.644c-5.646-1.699-10.292-5.496-13.081-10.691s-3.387-11.165-1.683-16.81l155.662-515.692c2.32-7.684 8.72-13.425 16.354-15.144-0.017 0.001-0.03-0.003-0.048-0.001-13.043 1.478-40.156 7.56-46.914 29.896-5.413 17.895-119.55 384.395-154.638 496.056-6.187 19.689 3.559 40.857 22.538 48.964l28.598 10.086c3.544 1.514 4.745 5.941 2.451 9.038l-39.171 37.802c-10.369 13.999-4.45 38.417 11.764 44.786l354.026 142.178c24.643 11.644 35.656-4.017 41.024-15.569 20.322-43.737 95.416-132.141 93.588-152.28a27.005 27.005 0 0 0-0.423-2.904z" fill="#280D0D" p-id="1910"></path><path d="M647.924 798.922c0 7.861 7.238 14.233 16.167 14.233 8.929 0 16.167-6.372 16.167-14.233V472.873c0-7.861-7.238-14.233-16.167-14.233-8.929 0-16.167 6.372-16.167 14.233v326.049z" fill="#7A9AF4" p-id="1911"></path><path d="M664.091 818.155c-11.672 0-21.168-8.628-21.168-19.233V472.873c0-10.605 9.496-19.233 21.168-19.233s21.167 8.628 21.167 19.233v326.049c0 10.605-9.495 19.233-21.167 19.233z m0-354.515c-6.158 0-11.168 4.143-11.168 9.233v326.049c0 5.091 5.01 9.233 11.168 9.233 6.157 0 11.167-4.143 11.167-9.233V472.873c0-5.091-5.009-9.233-11.167-9.233z" fill="#280D0D" p-id="1912"></path><path d="M277.558 668.122c15.847 0.441 31.697 0.526 47.547 0.257 1.932-0.033 1.936-3.033 0-3-15.851 0.27-31.701 0.184-47.547-0.257-1.936-0.054-1.931 2.946 0 3z m59.592 0.952h11.409c1.935 0 1.935-3 0-3H337.15c-1.935 0-1.935 3 0 3z m-92.544-16.455a822.666 822.666 0 0 0 64.651-1.964c1.919-0.134 1.932-3.135 0-3a823.166 823.166 0 0 1-64.651 1.964c-1.935-0.018-1.934 2.982 0 3z m75.434 0.748l21.549-0.704c1.929-0.063 1.936-3.063 0-3l-21.549 0.704c-1.929 0.063-1.936 3.063 0 3z m-61.489 8.734h24.087c1.935 0 1.935-3 0-3h-24.087c-1.935 0-1.935 3 0 3z m36.878-0.221c0.808-0.404 1.753-0.583 2.652-0.442 0.807 0.126 1.61-0.193 1.845-1.048 0.198-0.72-0.239-1.719-1.048-1.845-1.75-0.273-3.374-0.051-4.964 0.745-1.729 0.866-0.209 3.453 1.515 2.59z m-37.832-37.898a346.574 346.574 0 0 1 32.008 0.475c1.933 0.118 1.922-2.883 0-3a346.223 346.223 0 0 0-32.008-0.475c-1.929 0.061-1.935 3.061 0 3z m42.473 0.258c3.07 0.036 6.129 0.209 9.184 0.52 1.924 0.196 1.905-2.806 0-3a102.465 102.465 0 0 0-9.184-0.52c-1.935-0.022-1.933 2.978 0 3z m-38.346-16.099l28.205 1.31c1.935 0.09 1.926-2.911 0-3l-28.205-1.31c-1.935-0.09-1.926 2.911 0 3z m41.199 1.954l8.553 0.404c1.935 0.091 1.926-2.909 0-3l-8.553-0.404c-1.935-0.092-1.926 2.909 0 3z m15.823 72.758a159.537 159.537 0 0 1 22.365-1.251c1.936 0.027 1.933-2.973 0-3-7.491-0.106-14.933 0.31-22.365 1.251-1.893 0.24-1.916 3.243 0 3z m30.922-0.785h3.803c1.935 0 1.935-3 0-3h-3.803c-1.934 0-1.934 3 0 3z m3.713 8.436c2.237-0.437 4.475-0.524 6.744-0.327 1.928 0.167 1.912-2.835 0-3-2.539-0.22-5.042-0.054-7.541 0.434-1.898 0.37-1.093 3.262 0.797 2.893z m-82.629-104.953l19.961-1.059c1.924-0.102 1.934-3.103 0-3l-19.961 1.059c-1.924 0.102-1.934 3.103 0 3z m5.233 10.039a61.608 61.608 0 0 1 10.948 0.292c1.92 0.223 1.898-2.78 0-3a61.516 61.516 0 0 0-10.948-0.292c-1.921 0.119-1.933 3.12 0 3z m29.947-10.503h6.18c1.935 0 1.935-3 0-3h-6.18c-1.935 0-1.935 3 0 3z m-31.376-18.54h28.999c1.935 0 1.935-3 0-3h-28.999c-1.935 0-1.935 3 0 3z m4.754 6.656h9.033c1.935 0 1.935-3 0-3h-9.033c-1.935 0-1.935 3 0 3z m38.982-4.754h11.885c1.935 0 1.935-3 0-3h-11.885c-1.934 0-1.934 3 0 3z m-34.711-28.28a734.462 734.462 0 0 1 34.235-0.197c1.936 0.034 1.932-2.966 0-3a734.478 734.478 0 0 0-34.235 0.197c-1.93 0.056-1.935 3.056 0 3z m4.286 10.69h14.737c1.935 0 1.935-3 0-3h-14.737c-1.935 0-1.935 3 0 3z m3.803-33.291c7.852-0.024 15.622 0.579 23.372 1.856 1.892 0.312 2.703-2.579 0.798-2.893a145.495 145.495 0 0 0-24.17-1.963c-1.934 0.006-1.935 3.006 0 3z m-2.485 9.308a43.19 43.19 0 0 1 9.616-0.732c1.936 0.064 1.929-2.936 0-3a46.825 46.825 0 0 0-10.414 0.839c-1.899 0.365-1.093 3.256 0.798 2.893z m35.775 1.066l7.605 0.961c1.916 0.242 1.893-2.761 0-3l-7.605-0.961c-1.916-0.242-1.892 2.761 0 3z m-31.861-30.246l16.16-0.57c1.929-0.068 1.935-3.068 0-3l-16.16 0.57c-1.929 0.068-1.935 3.068 0 3z m2.374 7.05h9.983c1.935 0 1.935-3 0-3h-9.983c-1.934 0-1.934 3 0 3z m3.706-25.367c4.29-0.715 8.589-0.949 12.932-0.764 1.935 0.083 1.927-2.918 0-3-4.615-0.197-9.175 0.112-13.73 0.871-1.904 0.317-1.094 3.208 0.798 2.893z m9.511-20.426l4.314-0.743c0.807-0.139 1.248-1.116 1.048-1.845-0.233-0.845-1.04-1.186-1.845-1.048l-4.314 0.743c-0.807 0.139-1.248 1.116-1.048 1.845 0.233 0.846 1.04 1.187 1.845 1.048z m5.324-17.918a71.24 71.24 0 0 1 11.023 0.83c1.892 0.295 2.704-2.595 0.798-2.893a76.208 76.208 0 0 0-11.82-0.937c-1.936 0.001-1.936 3.001-0.001 3z m7.606 37.089c1.935 0 1.935-3 0-3s-1.935 3 0 3z m-16.163 11.409c1.935 0 1.935-3 0-3s-1.935 3 0 3z m-19.492 70.358c1.935 0 1.935-3 0-3s-1.934 3 0 3z m-12.36 78.441c1.935 0 1.935-3 0-3s-1.934 3 0 3z m35.655 21.392c1.935 0 1.935-3 0-3s-1.935 3 0 3z m11.885-48.965c1.935 0 1.935-3 0-3s-1.935 3 0 3z m3.803-63.228c1.935 0 1.935-3 0-3s-1.935 3 0 3z m27.093 256.927l64.654-0.957c1.933-0.029 1.936-3.029 0-3l-64.654 0.957c-1.932 0.028-1.935 3.028 0 3z m82.739 3.243l9.475-1.209c1.892-0.241 1.915-3.244 0-3l-9.475 1.209c-1.891 0.242-1.915 3.244 0 3z m-97.646-8.295c12.47-2.322 25.047-3.33 37.725-3.068 1.936 0.04 1.932-2.96 0-3a188.647 188.647 0 0 0-38.523 3.175c-1.9 0.354-1.092 3.245 0.798 2.893z m53.382-5.061a29 29 0 0 1 8.119-1.071c1.935 0.017 1.934-2.983 0-3a32.066 32.066 0 0 0-8.917 1.179c-1.861 0.518-1.07 3.412 0.798 2.892z m-83.169-5.981l44.702-2.604c1.923-0.112 1.934-3.113 0-3l-44.702 2.604c-1.923 0.112-1.933 3.112 0 3z m52.635-4.826a37 37 0 0 1 12.981-1.63c1.934 0.098 1.925-2.903 0-3a39.461 39.461 0 0 0-13.778 1.737c-1.842 0.571-1.056 3.467 0.797 2.893z m-93.533-7.747a377.439 377.439 0 0 1 36.152-0.452c1.935 0.069 1.929-2.932 0-3a377.113 377.113 0 0 0-36.152 0.452c-1.922 0.116-1.933 3.117 0 3z m49.466-0.546h18.065c1.935 0 1.935-3 0-3h-18.065c-1.934 0-1.934 3 0 3z m-51.377-11.664a221.404 221.404 0 0 1 39.962-1.548c1.934 0.1 1.925-2.901 0-3a221.404 221.404 0 0 0-39.962 1.548c-1.89 0.245-1.914 3.248 0 3z m5.742-18.863a368.927 368.927 0 0 1 36.151 2.776c1.916 0.242 1.892-2.761 0-3a368.927 368.927 0 0 0-36.151-2.776c-1.936-0.054-1.931 2.947 0 3z m22.817-12.251a144.26 144.26 0 0 1 22.807 1.032c1.916 0.239 1.893-2.763 0-3a144.141 144.141 0 0 0-22.807-1.032c-1.93 0.065-1.936 3.066 0 3z m11.818-13.3c7.128-0.996 14.27-1.284 21.457-0.936 1.935 0.094 1.926-2.907 0-3-7.466-0.361-14.854 0.009-22.255 1.043-1.909 0.267-1.093 3.157 0.798 2.893zM322 707.578a65.054 65.054 0 0 1 22.008 0.271c1.891 0.345 2.699-2.546 0.798-2.893-7.877-1.438-15.693-1.521-23.603-0.271-1.907 0.301-1.095 3.192 0.797 2.893z m11.984 17.306c3.074-0.278 6.025 0.192 8.811 1.542 1.733 0.84 3.255-1.747 1.514-2.59-3.253-1.576-6.715-2.277-10.325-1.951-1.911 0.172-1.928 3.173 0 2.999z m-19.97 32.296c1.935 0 1.935-3 0-3s-1.935 3 0 3z m-2.853 23.77c1.935 0 1.935-3 0-3s-1.934 3 0 3z m76.069 40.785c11.43 0.546 22.838 0.293 34.232-0.76 1.91-0.176 1.927-3.178 0-3a244.951 244.951 0 0 1-34.232 0.76c-1.935-0.093-1.926 2.908 0 3z m45.632-0.852h0.951c1.935 0 1.935-3 0-3h-0.951c-1.934 0-1.934 3 0 3z m1.902 14.262h10.459c1.935 0 1.935-3 0-3h-10.459c-1.935 0-1.935 3 0 3z m-38.982-21.868c1.935 0 1.935-3 0-3s-1.935 3 0 3z m-45.638-96.981c1.935 0 1.935-3 0-3s-1.935 3 0 3zM317.817 419.65h11.409c1.935 0 1.935-3 0-3h-11.409c-1.935 0-1.935 3 0 3z m9.881-16.289l2.835-1c0.77-0.272 1.276-1.015 1.048-1.845-0.205-0.746-1.074-1.32-1.845-1.048l-2.835 1c-0.77 0.272-1.276 1.015-1.048 1.845 0.205 0.747 1.074 1.32 1.845 1.048z m5.756-27.326l7.586-1.094c1.909-0.275 1.094-3.166-0.798-2.893l-7.586 1.094c-1.909 0.276-1.094 3.166 0.798 2.893z m3.938-18.288c3.201 0.447 6.309 0.233 9.382-0.806 1.822-0.616 1.04-3.514-0.798-2.893-2.527 0.854-5.134 1.176-7.787 0.806-1.89-0.264-2.706 2.626-0.797 2.893z" fill="#280D0D" p-id="1913"></path></svg>